<svg width="104" height="58" viewBox="0 0 104 58" fill="none" xmlns="http://www.w3.org/2000/svg">
<path d="M11.4024 35.4099V35.4618C11.362 35.4675 11.3236 35.4828 11.2904 35.5063C11.2579 35.532 11.2323 35.5651 11.2157 35.6028L11.1037 35.8624L10.357 37.7614H10.2898L9.71484 36.2778L9.08015 37.7614H9.02041L8.27372 35.8847C8.2316 35.7642 8.17914 35.6476 8.11691 35.536C8.07275 35.4927 8.01452 35.4664 7.95264 35.4618V35.4099H8.96068V35.4618C8.90298 35.4624 8.84641 35.4777 8.7964 35.5063C8.79086 35.5192 8.788 35.5331 8.788 35.5471C8.788 35.5612 8.79086 35.575 8.7964 35.5879C8.8079 35.6844 8.83834 35.7776 8.88601 35.8624L9.33403 36.9825L9.70738 36.1072L9.6103 35.8624C9.57631 35.7685 9.53641 35.6769 9.49083 35.5879C9.47048 35.5475 9.43596 35.5159 9.39376 35.4989C9.33985 35.4854 9.2834 35.4854 9.22949 35.4989V35.4099H10.3495V35.4618H10.1778C10.1555 35.4698 10.1369 35.4857 10.1255 35.5063C10.118 35.5254 10.118 35.5466 10.1255 35.5657C10.1436 35.6492 10.1686 35.7311 10.2002 35.8105L10.6258 36.9009L11.0066 35.9143L11.0813 35.6992C11.0813 35.6621 11.0813 35.625 11.0813 35.6028C11.0829 35.5813 11.0789 35.5599 11.0697 35.5404C11.0606 35.5209 11.0466 35.5041 11.029 35.4915C11.029 35.4915 10.9394 35.447 10.8498 35.4396V35.4099H11.4024Z" fill="#54301A"/>
<path d="M12.6943 37.6501V37.7095H11.4697V37.6501H11.5444C11.5976 37.6682 11.6554 37.6682 11.7087 37.6501C11.7404 37.632 11.7643 37.603 11.7759 37.5685C11.7889 37.4974 11.7889 37.4245 11.7759 37.3534V35.7956C11.7883 35.7245 11.7883 35.6517 11.7759 35.5805C11.7759 35.5805 11.7759 35.5212 11.7012 35.4989C11.6494 35.4887 11.5962 35.4887 11.5444 35.4989H11.4697V35.4099H12.6943V35.4618H12.6122C12.5602 35.4534 12.5073 35.4534 12.4554 35.4618C12.425 35.4836 12.3996 35.5114 12.3807 35.5434C12.3807 35.5805 12.3807 35.6473 12.3807 35.7586V37.2792C12.3807 37.3979 12.3807 37.4721 12.3807 37.5018C12.4037 37.5337 12.4345 37.5592 12.4703 37.5759C12.5163 37.5918 12.5662 37.5918 12.6122 37.5759L12.6943 37.6501Z" fill="#54301A"/>
<path d="M13.5976 35.4099L14.74 36.8342V35.8476C14.7527 35.7496 14.7317 35.6503 14.6803 35.5657C14.6453 35.5286 14.6021 35.5 14.5543 35.482C14.5064 35.464 14.455 35.4571 14.404 35.4618V35.4099H15.1507V35.4618C15.0839 35.4704 15.0186 35.4878 14.9566 35.5138C14.9182 35.5382 14.8892 35.5748 14.8744 35.6176C14.8624 35.6938 14.8624 35.7714 14.8744 35.8476V37.7614H14.8222L13.2466 35.8402V37.3237C13.24 37.3721 13.2447 37.4213 13.2602 37.4676C13.2757 37.5139 13.3017 37.556 13.3362 37.5908C13.3975 37.6399 13.4741 37.6662 13.5528 37.665H13.6051V37.7243H12.7837V37.665C12.8781 37.6716 12.9715 37.6425 13.045 37.5834C13.0755 37.5478 13.0985 37.5064 13.1127 37.4618C13.1268 37.4172 13.1317 37.3703 13.1272 37.3237V35.7066L13.0749 35.6473C13.0427 35.5963 12.9993 35.5532 12.948 35.5212C12.8934 35.5152 12.8383 35.5152 12.7837 35.5212V35.4099H13.5976Z" fill="#54301A"/>
<path d="M16.1732 35.5434V36.4484H16.218C16.2791 36.4529 16.3403 36.4424 16.3963 36.4178C16.4523 36.3932 16.5013 36.3553 16.5391 36.3075C16.6194 36.1889 16.6635 36.0498 16.6661 35.9069H16.7333V37.1086H16.6661C16.6583 36.9959 16.6305 36.8854 16.5839 36.7822C16.55 36.713 16.4952 36.6559 16.4271 36.619C16.347 36.5853 16.2602 36.5701 16.1732 36.5745V37.2199C16.1604 37.2985 16.1604 37.3786 16.1732 37.4573C16.1757 37.4718 16.1818 37.4855 16.1909 37.4972C16.2 37.5089 16.2119 37.5181 16.2255 37.524C16.2742 37.5385 16.3261 37.5385 16.3748 37.524H16.5093C16.6951 37.5327 16.8787 37.4805 17.0319 37.3757C17.1722 37.2565 17.2692 37.0949 17.3082 36.9158H17.3754L17.2709 37.6575H15.2921V37.5982H15.3668C15.4202 37.6152 15.4777 37.6152 15.5311 37.5982C15.5628 37.5801 15.5867 37.5511 15.5983 37.5166C15.6099 37.4454 15.6099 37.3727 15.5983 37.3015V35.7956C15.604 35.734 15.604 35.6719 15.5983 35.6102C15.592 35.5715 15.5705 35.5368 15.5385 35.5138C15.4853 35.4792 15.4229 35.4611 15.3593 35.4618H15.2847V35.4099H17.2261V36.0849H17.1738C17.1605 35.9475 17.1087 35.8165 17.0245 35.7066C16.9588 35.6291 16.8698 35.5745 16.7706 35.5509C16.6518 35.5335 16.531 35.5335 16.4122 35.5509L16.1732 35.5434Z" fill="#54301A"/>
<path d="M19.1678 35.3583V36.1H19.1155C19.0861 35.922 18.9997 35.7581 18.8691 35.6327C18.7532 35.5257 18.6017 35.4649 18.4435 35.4621C18.3457 35.4563 18.2494 35.4882 18.1747 35.5511C18.1434 35.5764 18.1179 35.608 18.0999 35.6438C18.0818 35.6796 18.0717 35.7188 18.0701 35.7588C18.0657 35.8087 18.0789 35.8585 18.1075 35.8998C18.1477 35.9624 18.2012 36.0155 18.2643 36.0555C18.384 36.1306 18.5088 36.1975 18.6376 36.2558C18.844 36.3426 19.0297 36.4715 19.1827 36.6341C19.2763 36.7467 19.3266 36.8887 19.3246 37.0347C19.325 37.1286 19.3052 37.2215 19.2666 37.3072C19.2279 37.3929 19.1713 37.4695 19.1006 37.5317C19.0232 37.6021 18.9325 37.6568 18.8339 37.6924C18.7352 37.728 18.6305 37.744 18.5256 37.7394C18.4561 37.7471 18.386 37.7471 18.3165 37.7394L18.0701 37.6578C18.0278 37.6379 17.9823 37.6254 17.9357 37.6207C17.9027 37.6234 17.8713 37.6363 17.8461 37.6578C17.8091 37.6837 17.7805 37.7198 17.764 37.7617H17.6968V36.8938H17.764C17.7918 37.1076 17.895 37.3047 18.0552 37.4501C18.1795 37.5701 18.3449 37.639 18.5181 37.643C18.6294 37.6461 18.7381 37.6092 18.8243 37.5391C18.8587 37.508 18.8863 37.4702 18.9056 37.4281C18.9248 37.3861 18.9353 37.3405 18.9363 37.2943C18.9318 37.24 18.9166 37.1871 18.8915 37.1386C18.8549 37.0845 18.8095 37.0368 18.7571 36.9976C18.6611 36.9245 18.5556 36.8646 18.4435 36.8196C18.282 36.748 18.1292 36.6584 17.988 36.5525C17.9041 36.4848 17.8311 36.4047 17.7714 36.3152C17.724 36.2232 17.6985 36.1217 17.6968 36.0184C17.6972 35.9293 17.7159 35.8412 17.7519 35.7596C17.7878 35.6779 17.8402 35.6045 17.9059 35.5437C18.0477 35.4192 18.2319 35.353 18.4211 35.3583C18.4931 35.351 18.5656 35.351 18.6376 35.3583C18.7059 35.3762 18.7713 35.4037 18.8318 35.4398C18.8835 35.4655 18.9389 35.483 18.996 35.4918C19.0065 35.497 19.018 35.4997 19.0296 35.4997C19.0413 35.4997 19.0528 35.497 19.0632 35.4918C19.092 35.4553 19.1101 35.4117 19.1155 35.3657L19.1678 35.3583Z" fill="#54301A"/>
<path d="M22.2668 36.3373H23.0135V36.3966C22.9436 36.405 22.8769 36.4305 22.8193 36.4708C22.7463 36.5448 22.6858 36.6299 22.6401 36.723C22.5511 36.8751 22.4487 37.0191 22.334 37.1532C22.4219 37.2354 22.5168 37.3099 22.6177 37.3758C22.667 37.3852 22.7177 37.3852 22.7671 37.3758C22.8174 37.3703 22.8655 37.3525 22.9072 37.3241C22.9489 37.2956 22.9829 37.2573 23.006 37.2126L23.0657 37.2497C23.0025 37.4024 22.8994 37.5355 22.7671 37.6354C22.689 37.6975 22.5907 37.7292 22.4908 37.7244C22.4034 37.7258 22.3167 37.7081 22.2369 37.6725C22.1311 37.6133 22.0333 37.541 21.9457 37.4574C21.821 37.5438 21.6854 37.6136 21.5425 37.6651C21.4166 37.7034 21.2858 37.7234 21.1542 37.7244C20.9645 37.7357 20.7775 37.6747 20.6315 37.5538C20.5727 37.5015 20.5256 37.4375 20.4935 37.3659C20.4613 37.2943 20.4447 37.2168 20.4448 37.1384C20.4441 36.9725 20.5083 36.8129 20.624 36.6933C20.7778 36.5478 20.9611 36.4365 21.1617 36.3669C21.1265 36.3018 21.1013 36.2318 21.087 36.1592C21.0801 36.0902 21.0801 36.0206 21.087 35.9515C21.0835 35.8672 21.0983 35.7831 21.1305 35.705C21.1628 35.6269 21.2116 35.5567 21.2737 35.499C21.4086 35.3787 21.5852 35.3149 21.7665 35.321C21.9024 35.3145 22.0366 35.3537 22.1473 35.4323C22.1898 35.4661 22.2239 35.509 22.2472 35.5578C22.2705 35.6067 22.2823 35.6601 22.2817 35.7142C22.2855 35.7758 22.2747 35.8375 22.25 35.8942C22.2254 35.9509 22.1876 36.001 22.1398 36.0406C22.011 36.1564 21.858 36.2425 21.6918 36.2928C21.8484 36.5631 22.0391 36.8123 22.2593 37.0346C22.3947 36.9097 22.4819 36.7418 22.5057 36.5598C22.4987 36.5342 22.4855 36.5107 22.4673 36.4913C22.4491 36.4719 22.4264 36.4573 22.4012 36.4485C22.3621 36.4133 22.312 36.3923 22.2593 36.3892L22.2668 36.3373ZM21.1691 36.5153C21.1007 36.5443 21.0376 36.5844 20.9825 36.634C20.9319 36.6947 20.903 36.7703 20.9003 36.8491C20.9013 36.9625 20.935 37.0731 20.9974 37.1681C21.0526 37.2654 21.1291 37.3491 21.2214 37.4129C21.2982 37.4656 21.3893 37.4941 21.4827 37.4945C21.532 37.5043 21.5828 37.5043 21.6321 37.4945L21.8038 37.4129C21.547 37.148 21.3329 36.8452 21.1691 36.5153ZM21.5873 36.226C21.6773 36.1991 21.7594 36.1507 21.8262 36.0851C21.866 36.0342 21.8871 35.9714 21.886 35.907C21.887 35.7899 21.8504 35.6756 21.7814 35.5806C21.7629 35.5565 21.7392 35.5366 21.7121 35.5225C21.685 35.5084 21.6552 35.5004 21.6246 35.499C21.5716 35.5009 21.5211 35.522 21.4827 35.5584C21.4435 35.6066 21.4224 35.667 21.423 35.729C21.4128 35.7879 21.4128 35.8481 21.423 35.907C21.4753 35.9738 21.5201 36.0776 21.5873 36.226Z" fill="#54301A"/>
<path d="M25.6422 35.3586V36.1003H25.575C25.5489 35.9212 25.462 35.7563 25.3286 35.633C25.2146 35.5277 25.0661 35.467 24.9105 35.4624C24.8103 35.4562 24.7116 35.488 24.6342 35.5514C24.6027 35.576 24.5774 35.6076 24.5605 35.6437C24.5437 35.6798 24.5356 35.7193 24.5371 35.7591C24.5206 35.8047 24.5206 35.8545 24.5371 35.9001C24.5774 35.9627 24.6309 36.0158 24.6939 36.0558C24.8137 36.1309 24.9384 36.1978 25.0673 36.2561C25.2745 36.3452 25.4622 36.4738 25.6198 36.6344C25.7081 36.7495 25.7553 36.8904 25.7542 37.035C25.7546 37.1289 25.7348 37.2218 25.6962 37.3075C25.6576 37.3932 25.601 37.4698 25.5302 37.532C25.4528 37.6025 25.3622 37.6571 25.2635 37.6927C25.1649 37.7283 25.0601 37.7443 24.9553 37.7397C24.8858 37.7474 24.8157 37.7474 24.7462 37.7397C24.6647 37.718 24.5849 37.6907 24.5072 37.6581C24.4624 37.638 24.4144 37.6254 24.3654 37.621C24.3323 37.6237 24.3009 37.6366 24.2758 37.6581C24.2388 37.684 24.2102 37.7201 24.1936 37.762H24.1339V36.8941H24.1936C24.2291 37.1039 24.328 37.2979 24.4774 37.4504C24.6066 37.5674 24.7731 37.6357 24.9478 37.6433C25.0571 37.6481 25.1641 37.6109 25.2465 37.5394C25.2842 37.5106 25.3146 37.4735 25.3353 37.431C25.356 37.3886 25.3665 37.3418 25.3659 37.2946C25.3651 37.2397 25.3496 37.1859 25.3211 37.1389C25.2845 37.0848 25.2391 37.0371 25.1867 36.9979C25.0907 36.9248 24.9853 36.8649 24.8731 36.8199C24.7126 36.7465 24.5599 36.657 24.4176 36.5528C24.3339 36.4871 24.2631 36.4066 24.2086 36.3155C24.1577 36.2249 24.1319 36.1225 24.1339 36.0187C24.1329 35.9301 24.1503 35.8422 24.1849 35.7605C24.2196 35.6788 24.2709 35.6051 24.3355 35.544C24.4755 35.4213 24.6566 35.3551 24.8433 35.3586C24.9177 35.3509 24.9928 35.3509 25.0673 35.3586C25.1355 35.3765 25.2009 35.404 25.2614 35.4402C25.3131 35.4658 25.3686 35.4833 25.4257 35.4921C25.4363 35.4968 25.4477 35.4992 25.4593 35.4992C25.4709 35.4992 25.4823 35.4968 25.4929 35.4921C25.5185 35.4539 25.5363 35.411 25.5452 35.366L25.6422 35.3586Z" fill="#54301A"/>
<path d="M26.8811 36.6638V37.3092C26.8634 37.3874 26.8634 37.4684 26.8811 37.5466C26.8979 37.5782 26.9239 37.604 26.9558 37.6208C27.0296 37.6366 27.106 37.6366 27.1798 37.6208V37.6801H26V37.6208C26.0712 37.6375 26.1453 37.6375 26.2165 37.6208C26.2518 37.6063 26.2808 37.58 26.2987 37.5466C26.3115 37.468 26.3115 37.3878 26.2987 37.3092V35.8256C26.3115 35.747 26.3115 35.6669 26.2987 35.5882C26.2911 35.5708 26.2798 35.5551 26.2657 35.5423C26.2515 35.5295 26.2348 35.5199 26.2165 35.5141C26.1454 35.4971 26.0712 35.4971 26 35.5141V35.4102H27.008C27.2693 35.3794 27.5333 35.4397 27.7547 35.5808C27.8225 35.6338 27.8772 35.7014 27.9147 35.7785C27.9523 35.8557 27.9716 35.9403 27.9713 36.0259C27.9711 36.167 27.9208 36.3036 27.8294 36.4116C27.725 36.5208 27.5895 36.5959 27.4411 36.6268C27.2564 36.6596 27.0686 36.672 26.8811 36.6638ZM26.8811 35.5437V36.5303H26.9707C27.0302 36.5332 27.0896 36.5235 27.145 36.5017C27.2003 36.48 27.2504 36.4467 27.2918 36.4042C27.3699 36.2941 27.4069 36.1603 27.3963 36.0259C27.407 35.8939 27.37 35.7623 27.2918 35.655C27.2475 35.6127 27.1946 35.5802 27.1366 35.5597C27.0787 35.5392 27.0171 35.5313 26.9558 35.5363L26.8811 35.5437Z" fill="#54301A"/>
<path d="M29.2936 37.6501V37.7095H28.084V37.6501H28.1661C28.2172 37.6656 28.2718 37.6656 28.3229 37.6501C28.3546 37.632 28.3785 37.603 28.3901 37.5685C28.3992 37.4971 28.3992 37.4248 28.3901 37.3534V35.7956C28.3987 35.7242 28.3987 35.652 28.3901 35.5805C28.3901 35.5805 28.3528 35.5212 28.3155 35.4989C28.2661 35.4895 28.2155 35.4895 28.1661 35.4989H28.084V35.4099H29.2936V35.4618H29.219C29.1646 35.4526 29.1091 35.4526 29.0547 35.4618C29.0245 35.4817 29.0011 35.5101 28.9875 35.5434C28.9756 35.6147 28.9756 35.6873 28.9875 35.7586V37.2792C28.9747 37.3529 28.9747 37.4281 28.9875 37.5018C28.9875 37.5018 28.9875 37.5537 29.0622 37.5759C29.113 37.5929 29.1681 37.5929 29.219 37.5759L29.2936 37.6501Z" fill="#54301A"/>
<path d="M30.2714 36.6567V37.3095C30.2538 37.3876 30.2538 37.4687 30.2714 37.5469C30.2714 37.5469 30.3088 37.5988 30.3461 37.621C30.4174 37.637 30.4914 37.637 30.5627 37.621V37.6804H29.4053V37.621C29.4791 37.6369 29.5555 37.6369 29.6293 37.621C29.6611 37.6043 29.6871 37.5785 29.704 37.5469C29.7168 37.4682 29.7168 37.3881 29.704 37.3095V35.8259C29.716 35.7497 29.716 35.6721 29.704 35.5959C29.6852 35.5637 29.6598 35.5359 29.6293 35.5143C29.555 35.5032 29.4795 35.5032 29.4053 35.5143V35.4105H30.488C30.691 35.4021 30.8943 35.4196 31.0928 35.4624C31.2197 35.5037 31.3332 35.5779 31.4214 35.6775C31.5005 35.7851 31.5424 35.9152 31.5408 36.0484C31.5422 36.1241 31.5268 36.1992 31.4959 36.2684C31.4649 36.3376 31.4191 36.3993 31.3616 36.449C31.2663 36.528 31.1539 36.5839 31.0331 36.6122L31.5931 37.354C31.6339 37.4247 31.6841 37.4895 31.7424 37.5469C31.79 37.5816 31.8477 37.5999 31.9067 37.5988V37.6655H31.16L30.4133 36.6122L30.2714 36.6567ZM30.2714 35.5366V36.538H30.3685C30.4898 36.5473 30.6117 36.5322 30.7269 36.4935C30.7659 36.4833 30.8021 36.4647 30.8331 36.439C30.864 36.4134 30.889 36.3814 30.9061 36.3452C30.9604 36.2559 30.9865 36.1525 30.9808 36.0484C30.9877 35.9789 30.98 35.9087 30.9581 35.8423C30.9363 35.7759 30.9008 35.7148 30.8539 35.6627C30.7439 35.5704 30.6016 35.5251 30.4581 35.5366H30.2714Z" fill="#54301A"/>
<path d="M33.1081 37.6501V37.7095H31.8984V37.6501H31.9806C32.0314 37.6671 32.0865 37.6671 32.1374 37.6501C32.1538 37.6421 32.1684 37.6307 32.18 37.6166C32.1916 37.6026 32.2 37.5861 32.2046 37.5685C32.2217 37.4978 32.2217 37.4241 32.2046 37.3534V35.7956C32.2209 35.7249 32.2209 35.6513 32.2046 35.5805C32.2005 35.5627 32.1923 35.5461 32.1806 35.5319C32.1689 35.5178 32.1542 35.5065 32.1374 35.4989C32.0855 35.4896 32.0324 35.4896 31.9806 35.4989H31.8984V35.4099H33.1081V35.4618H33.0334C32.9817 35.4516 32.9284 35.4516 32.8766 35.4618C32.8445 35.4816 32.8187 35.5098 32.8019 35.5434C32.7953 35.615 32.7953 35.687 32.8019 35.7586V37.2792C32.7946 37.3532 32.7946 37.4278 32.8019 37.5018C32.8218 37.5336 32.8503 37.5593 32.8841 37.5759C32.9324 37.5929 32.9851 37.5929 33.0334 37.5759L33.1081 37.6501Z" fill="#54301A"/>
<path d="M35.3713 35.4099V36.033H35.3116C35.2874 35.9239 35.2472 35.8189 35.1921 35.7215C35.1438 35.6569 35.0795 35.6058 35.0054 35.5731C34.9291 35.5573 34.8503 35.5573 34.774 35.5731H34.6097V37.346C34.5984 37.4197 34.5984 37.4948 34.6097 37.5685C34.6265 37.6001 34.6525 37.626 34.6844 37.6427C34.7352 37.6597 34.7903 37.6597 34.8412 37.6427H34.9158V37.7021H33.7211V37.6427H33.7958C33.8492 37.6597 33.9066 37.6597 33.9601 37.6427C33.9601 37.6427 34.0049 37.5982 34.0273 37.5611C34.0403 37.49 34.0403 37.4171 34.0273 37.346V35.5434H33.863C33.7403 35.5311 33.6175 35.5655 33.5195 35.6399C33.4123 35.7448 33.3462 35.8841 33.3328 36.033H33.2656V35.4099H35.3713Z" fill="#54301A"/>
<path d="M37.1042 35.3585V36.1003H37.0295C37.0034 35.9212 36.9165 35.7563 36.7831 35.633C36.6699 35.5265 36.5209 35.4656 36.365 35.4624C36.2648 35.4562 36.1661 35.488 36.0887 35.5514C36.0574 35.5767 36.0319 35.6082 36.0139 35.6441C35.9959 35.6799 35.9857 35.7191 35.9842 35.7591C35.9832 35.8086 35.9961 35.8574 36.0215 35.9C36.0618 35.9627 36.1153 36.0158 36.1783 36.0558C36.2981 36.1309 36.4228 36.1978 36.5516 36.2561C36.7601 36.3431 36.9482 36.4719 37.1042 36.6344C37.1946 36.7488 37.2445 36.8896 37.2461 37.035C37.2465 37.1296 37.226 37.2232 37.186 37.3091C37.146 37.395 37.0875 37.4711 37.0146 37.532C36.9372 37.6024 36.8466 37.657 36.7479 37.6927C36.6493 37.7283 36.5445 37.7443 36.4396 37.7397C36.3727 37.7478 36.305 37.7478 36.238 37.7397L35.9916 37.6581C35.9493 37.6382 35.9038 37.6257 35.8572 37.621C35.8219 37.6236 35.7881 37.6365 35.7601 37.6581C35.7253 37.6861 35.6972 37.7216 35.678 37.7619H35.6183V36.894H35.678C35.7126 37.1057 35.8147 37.3007 35.9692 37.4504C36.0943 37.5692 36.2592 37.6379 36.4322 37.6433C36.5437 37.6477 36.6528 37.6107 36.7383 37.5394C36.8002 37.4948 36.842 37.4278 36.8546 37.3528C36.8671 37.2779 36.8495 37.201 36.8055 37.1388C36.7719 37.0848 36.7289 37.0371 36.6786 36.9979C36.5817 36.9262 36.4764 36.8664 36.365 36.8199C36.2022 36.7462 36.0471 36.6567 35.902 36.5528C35.8203 36.485 35.7498 36.4049 35.6929 36.3154C35.642 36.2249 35.6163 36.1225 35.6183 36.0187C35.6173 35.9301 35.6346 35.8422 35.6693 35.7605C35.704 35.6788 35.7553 35.6051 35.8199 35.544C35.9618 35.4195 36.1459 35.3532 36.3351 35.3585C36.4071 35.3509 36.4797 35.3509 36.5516 35.3585C36.6218 35.378 36.6894 35.4053 36.7533 35.4401C36.8029 35.4644 36.8557 35.4819 36.9101 35.4921C36.9205 35.4973 36.932 35.5 36.9437 35.5C36.9553 35.5 36.9668 35.4973 36.9773 35.4921C37.006 35.4556 37.0241 35.412 37.0295 35.366L37.1042 35.3585Z" fill="#54301A"/>
<path d="M23.8944 18.4009C23.8367 18.4226 23.773 18.4226 23.7152 18.4009C23.7015 18.4 23.6881 18.3964 23.6757 18.3903C23.6634 18.3842 23.6524 18.3757 23.6434 18.3654C23.6344 18.355 23.6275 18.343 23.6232 18.33C23.6188 18.317 23.6171 18.3033 23.6181 18.2897C23.7152 18.0449 23.7973 17.7482 23.8944 17.3995C23.9915 17.0509 24.0662 16.7393 24.1259 16.4649C24.1425 16.3033 24.2026 16.1493 24.2998 16.0187C24.3971 15.8882 24.5278 15.7861 24.6784 15.7231C25.5405 15.2659 26.4337 14.8693 27.3516 14.5362C28.3266 14.181 29.3244 13.8911 30.3384 13.6683C32.1946 13.3007 34.0833 13.1193 35.976 13.1268C37.8807 13.0501 39.7836 13.3191 41.5911 13.9205C42.1928 14.1118 42.7146 14.4942 43.0762 15.0089C43.4377 15.5235 43.6191 16.142 43.5923 16.769C43.5729 17.5075 43.3424 18.2253 42.9277 18.8386C42.4327 19.6088 41.8001 20.2826 41.061 20.8266C40.1496 21.4799 39.1455 21.9949 38.0817 22.3547C36.8817 22.818 35.627 23.1271 34.3482 23.2745C34.0719 23.2745 33.9823 23.4303 34.0719 23.638C34.6543 24.7062 35.4558 26.0365 36.4763 27.6288C37.5067 29.2237 38.6566 30.915 39.9409 32.7027C40.6269 33.6344 41.3753 34.5191 42.181 35.3509C43.0123 36.1843 43.9282 36.9301 44.9139 37.5763C45.8871 38.2339 46.941 38.7649 48.0501 39.1563C49.1626 39.5474 50.3346 39.7457 51.5148 39.7423C53.4231 39.7247 55.2977 39.2406 56.9731 38.3329C57.1523 38.2142 57.2494 38.2439 57.2494 38.4293C57.2518 38.4829 57.2339 38.5353 57.1994 38.5765C57.1649 38.6177 57.1161 38.6445 57.0627 38.6519C56.0842 39.17 55.0562 39.59 53.9938 39.9055C52.8758 40.2296 51.7161 40.3895 50.5515 40.3803C49.0071 40.4042 47.4661 40.2296 45.9668 39.861C44.6766 39.5218 43.4508 38.9755 42.3378 38.2439C41.1677 37.4482 40.1125 36.4974 39.2017 35.4177C38.0817 34.0985 37.0491 32.7084 36.1104 31.2562C35.8042 30.774 35.4309 30.1732 35.0053 29.4537C34.5797 28.7341 34.1391 27.9701 33.6762 27.2283C33.2132 26.4865 32.7876 25.7447 32.3694 25.0029C31.9513 24.2611 31.6227 23.7122 31.339 23.2523C31.339 23.1336 31.3838 23.0668 31.4809 23.0668C32.7492 23.0767 34.0153 22.9574 35.2592 22.7108C36.3105 22.505 37.32 22.1265 38.2459 21.5907C39.0546 21.1276 39.7326 20.4693 40.2172 19.6768C40.7179 18.8622 40.9767 17.9237 40.9639 16.9693C40.9591 16.5723 40.8885 16.1788 40.7548 15.8047C40.6019 15.3847 40.3451 15.0098 40.0082 14.7142C39.5966 14.3637 39.1231 14.0921 38.6118 13.9131C37.8899 13.6763 37.1315 13.5683 36.3717 13.5941C36.0698 13.5973 35.7692 13.6347 35.4757 13.7054C35.1853 13.7914 34.926 13.9588 34.729 14.1876C34.2203 14.8243 33.7467 15.488 33.3103 16.1756C32.698 17.1028 32.026 18.1636 31.2942 19.3875C30.5624 20.6115 29.8008 21.8874 29.0018 23.2523C28.2029 24.6172 27.4487 25.9524 26.7617 27.2357C26.0748 28.519 25.3878 29.7281 24.8278 30.774C24.2678 31.82 23.8944 32.6434 23.5883 33.2516C23.5695 33.2831 23.5417 33.3084 23.5085 33.3242C23.4753 33.34 23.4381 33.3458 23.4016 33.3406C23.2515 33.3095 23.0992 33.2896 22.9461 33.2813C22.7945 33.27 22.6422 33.27 22.4906 33.2813H21.9381C21.7066 33.2868 21.4763 33.3166 21.2511 33.3703C20.8486 33.6016 20.4815 33.8888 20.1609 34.2234C20.0912 34.2243 20.0221 34.2091 19.9593 34.1789C19.8847 34.1492 19.8847 34.1047 19.9593 34.0453C22.7769 29.9704 25.1464 26.3381 27.0679 23.1484C28.9894 19.9587 30.6695 17.041 32.1081 14.3953C32.1977 14.1505 32.2276 14.0021 32.1753 13.9354C32.1363 13.9002 32.09 13.874 32.0397 13.8586C31.9893 13.8432 31.9362 13.839 31.8841 13.8463C30.9457 13.9109 30.0196 14.0954 29.1288 14.3953C28.2451 14.6851 27.3882 15.0499 26.5676 15.4857C26.0065 15.8139 25.5023 16.2297 25.0742 16.7171C24.6213 17.2347 24.2258 17.7993 23.8944 18.4009Z" fill="#54301A"/>
<path d="M54.5093 27.9253C53.9311 28.6229 53.3102 29.2843 52.65 29.9059C51.925 30.5928 51.1432 31.2181 50.3129 31.7752C49.4964 32.3268 48.6197 32.7847 47.6994 33.1401C46.8469 33.4807 45.9376 33.6593 45.0188 33.6668C43.5851 33.6668 42.8608 33.0289 42.8608 31.7456C42.8887 30.8044 43.1151 29.8794 43.5254 29.0306C43.9703 28.0451 44.5481 27.1242 45.2428 26.2934C45.9121 25.4893 46.6941 24.7848 47.565 24.2015C48.2633 23.6871 49.1008 23.3925 49.9694 23.3559C50.286 23.326 50.603 23.4074 50.8654 23.5859C50.9476 23.6613 51.0127 23.7532 51.0564 23.8555C51.1002 23.9578 51.1216 24.0682 51.1193 24.1793C51.0964 24.5815 50.9787 24.9728 50.7758 25.3216C50.513 25.7863 50.1602 26.1947 49.7379 26.5234C49.2184 26.9404 48.6297 27.2642 47.9981 27.4803C47.1865 27.7566 46.3319 27.8872 45.4743 27.866C45.2665 28.2846 45.099 28.7217 44.974 29.1716C44.7897 29.7523 44.6966 30.3578 44.6977 30.9667C44.6977 32.2129 45.2577 32.836 46.3927 32.836C47.1476 32.8263 47.8915 32.6542 48.5731 32.3316C49.3483 31.9921 50.0864 31.5745 50.7758 31.0854C51.4692 30.5954 52.1187 30.0469 52.7172 29.446C53.254 28.9279 53.753 28.3727 54.2106 27.7844C54.2367 27.7566 54.2707 27.7374 54.3081 27.7295C54.3455 27.7215 54.3845 27.7251 54.4197 27.7399C54.4521 27.7578 54.4782 27.7852 54.4942 27.8185C54.5103 27.8517 54.5155 27.889 54.5093 27.9253ZM49.6931 24.3722C49.7043 24.2916 49.6965 24.2096 49.6704 24.1326C49.6443 24.0556 49.6006 23.9856 49.5428 23.9281C49.4849 23.8706 49.4145 23.8272 49.3369 23.8013C49.2594 23.7754 49.1768 23.7677 49.0958 23.7787C48.7566 23.7939 48.4305 23.9131 48.1624 24.1199C47.8112 24.3748 47.4949 24.674 47.2216 25.0101C46.9049 25.3866 46.6131 25.783 46.3479 26.197C46.0913 26.589 45.8618 26.998 45.661 27.4209C45.7638 27.4597 45.8722 27.4822 45.982 27.4877H46.3479C47.2155 27.4978 48.0532 27.1734 48.6851 26.5827C49.0004 26.3056 49.2533 25.9654 49.427 25.5845C49.6007 25.2035 49.6914 24.7904 49.6931 24.3722Z" fill="#54301A"/>
<path d="M70.1896 29.4241C69.764 29.9137 69.2488 30.4626 68.6514 31.0709C68.0508 31.683 67.4151 32.2601 66.7474 32.7993C66.1028 33.3252 65.4046 33.7827 64.6641 34.1642C64.0235 34.5093 63.3093 34.6975 62.5808 34.7131C62.3425 34.747 62.0997 34.7323 61.8673 34.6698C61.6349 34.6073 61.4178 34.4984 61.2293 34.3496C61.0944 34.193 60.992 34.0115 60.9279 33.8154C60.8638 33.6194 60.8394 33.4127 60.8559 33.2073C60.9301 32.6332 61.1098 32.0775 61.3861 31.5679C61.737 30.8261 62.1328 30.0176 62.5584 29.2016C62.984 28.3856 63.3723 27.5919 63.7232 26.8501C64.0002 26.378 64.1899 25.8605 64.2833 25.322C64.2833 25.1366 64.2086 25.0475 64.0518 25.0475C63.5812 25.3015 63.1361 25.5995 62.7227 25.9377C62.2014 26.3615 61.703 26.8121 61.2293 27.2878C60.7365 27.7699 60.2884 28.2447 59.8703 28.6972C59.4521 29.1497 59.1236 29.5354 58.9369 29.8321C58.6807 30.182 58.4487 30.5488 58.2425 30.93C58.0259 31.3528 57.8243 31.7682 57.6227 32.1613C57.4526 32.5099 57.2553 32.8447 57.0328 33.1628C56.8312 33.4372 56.652 33.5707 56.5027 33.5707C56.4209 33.5671 56.3411 33.5443 56.2698 33.5044C56.1984 33.4644 56.1375 33.4084 56.092 33.3408C55.9801 33.2153 55.9143 33.0558 55.9053 32.8883C55.9255 32.7233 55.9735 32.5628 56.0472 32.4136C56.1804 32.1118 56.351 31.8277 56.5549 31.5679C56.9525 31.0156 57.3093 30.4355 57.6227 29.8321C57.9513 29.2313 58.2201 28.6675 58.4516 28.1482C58.683 27.629 58.8548 27.1913 58.9817 26.8353C59.0576 26.6274 59.1175 26.4142 59.1609 26.1973C59.1609 25.9525 59.1012 25.8264 58.9817 25.8264C58.8622 25.8264 58.4889 26.0193 58.0409 26.3976C57.5929 26.7759 57.115 27.2433 56.5923 27.7848C56.0696 28.3263 55.5618 28.9123 55.0989 29.5206C54.6359 30.1288 54.1655 30.6703 53.837 31.1525C53.4039 31.7979 53.0455 32.3542 52.7319 32.8438C52.4182 33.3334 52.2017 33.5856 52.0524 33.5856C51.9509 33.5988 51.8481 33.5733 51.7649 33.514C51.6817 33.4548 51.6243 33.3663 51.6043 33.2666C51.5623 33.0566 51.5422 32.8428 51.5446 32.6287C51.534 32.4186 51.5973 32.2114 51.7238 32.0427C52.5526 30.7297 53.3591 29.4019 54.158 28.0296C54.957 26.6572 55.7485 25.3072 56.54 23.972C56.6894 23.7049 56.8611 23.564 57.0403 23.564C57.1257 23.5676 57.2089 23.5927 57.282 23.6367C57.3551 23.6808 57.4158 23.7426 57.4584 23.8162C57.5671 23.9545 57.6297 24.123 57.6377 24.2983C57.3455 25.0738 56.9779 25.8192 56.54 26.5237C56.0173 27.4064 55.5618 28.2076 55.1661 28.942C56.1156 27.8112 57.1435 26.7478 58.2425 25.7597C58.7721 25.1855 59.4835 24.8086 60.2586 24.6915C60.5946 24.6915 60.7589 24.9214 60.7589 25.3739C60.7065 25.857 60.5674 26.3268 60.3482 26.7611C60.0719 27.3842 59.8255 27.896 59.6015 28.2892C59.5417 28.4079 59.5343 28.4672 59.6015 28.4524C59.6634 28.4237 59.7192 28.3834 59.7657 28.3337C60.1316 27.9109 60.5124 27.4584 61.0277 26.991C61.4976 26.5138 61.9963 26.0654 62.5211 25.6484C63.0512 25.2182 63.5888 24.825 64.119 24.4615C64.5929 24.1334 65.0923 23.8432 65.6124 23.5936C66.0679 23.5936 66.2993 23.8088 66.2993 24.2316C66.2985 24.3272 66.2834 24.4222 66.2545 24.5135C66.2545 24.5951 66.1799 24.7063 66.1201 24.825C65.9633 25.1588 65.6796 25.7077 65.2689 26.4644C64.8582 27.221 64.4401 28.037 64.007 28.9049C63.5739 29.7728 63.2006 30.6036 62.8869 31.4047C62.6166 31.9871 62.4523 32.6124 62.4016 33.2518C62.4016 33.86 62.6928 34.1642 63.2752 34.1642C63.8944 34.1408 64.4957 33.9511 65.015 33.6153C65.6635 33.2271 66.278 32.7854 66.8519 32.2949C67.4491 31.7902 68.0152 31.2502 68.5469 30.6778C69.0696 30.1214 69.5101 29.6244 69.876 29.1942C70.003 29.0087 70.1224 28.9345 70.2419 28.9642C70.3614 28.9939 70.3315 29.1571 70.1896 29.4241Z" fill="#54301A"/>
<path d="M87.8048 9.31387C87.7952 9.4655 87.7778 9.61654 87.7525 9.76636C87.7525 9.98148 87.6853 10.2189 87.6479 10.5082C87.6106 10.7975 87.5957 11.0274 87.5583 11.287C87.5312 11.4789 87.5138 11.672 87.5061 11.8656C87.4859 11.8867 87.4615 11.9035 87.4346 11.915C87.4076 11.9265 87.3786 11.9324 87.3493 11.9324C87.3235 11.9307 87.2984 11.9239 87.2753 11.9125C87.2522 11.901 87.2317 11.8851 87.2149 11.8656C87.2528 11.7169 87.2803 11.5657 87.297 11.4131C87.297 11.287 87.297 11.1535 87.297 11.0274C87.3043 10.8272 87.2585 10.6286 87.1641 10.4515C87.0698 10.2744 86.9302 10.1251 86.7594 10.0186C86.3069 9.75854 85.788 9.63483 85.266 9.66251C84.2048 9.67023 83.1778 10.0365 82.3539 10.701C81.7706 11.1611 81.2375 11.6807 80.7634 12.2514C80.1263 13.0174 79.5568 13.8364 79.0609 14.6993C78.7324 15.263 78.3142 15.9826 77.8513 16.8653C77.3883 17.7481 76.8731 18.6901 76.3579 19.6915C75.8427 20.693 75.2752 21.7166 74.7376 22.7626C74.1999 23.8085 73.6922 24.7802 73.2442 25.6852H74.2149H77.7318C77.8363 25.7446 77.8662 25.8484 77.8289 26.0042H77.1793H75.9397H74.4463H73.065C72.3183 27.3765 71.5716 28.7637 70.8249 30.1508C70.0782 31.538 69.2419 32.8732 68.4578 34.1713C67.6738 35.4695 66.8823 36.6563 66.1057 37.769C65.3292 38.8817 64.6123 39.8535 63.9776 40.6917C62.5495 42.5369 61.0032 44.2887 59.3481 45.9362C58.0629 47.2183 56.6661 48.3849 55.1741 49.4226C54.0215 50.2295 52.766 50.8806 51.4406 51.3587C50.3847 51.7411 49.2715 51.9442 48.1477 51.9595C47.8144 51.9577 47.4819 51.9254 47.1546 51.8631C46.7889 51.7944 46.4379 51.6639 46.1166 51.4774C45.763 51.2685 45.4577 50.9879 45.2206 50.654C44.9304 50.2293 44.7321 49.7493 44.6382 49.2446C44.6382 49.0715 44.6606 48.9973 44.7054 49.022C44.764 49.0741 44.8078 49.1406 44.8323 49.2149C44.8823 49.4269 44.9709 49.628 45.0937 49.8083C45.2717 50.0909 45.4963 50.3417 45.7582 50.5501C46.0871 50.8008 46.4521 51.0008 46.8409 51.1435C47.3453 51.3147 47.8763 51.3951 48.409 51.3809C49.4659 51.3437 50.513 51.1666 51.5227 50.8542C52.8141 50.4464 54.0335 49.8407 55.1367 49.0591C56.5671 48.0753 57.8909 46.9467 59.0868 45.6914C60.6589 44.0307 62.0876 42.2416 63.3579 40.3431C64.1419 39.2081 64.911 37.9842 65.6876 36.6786C66.4641 35.373 67.181 34.0897 67.9277 32.8064C68.6744 31.5231 69.3389 30.2992 69.9736 29.0975C70.6083 27.8958 71.1907 26.8721 71.7134 25.9968C70.7801 26.0635 70.0408 26.1229 69.4733 26.1896C69.028 26.2298 68.5906 26.3321 68.1741 26.4938C67.8721 26.6255 67.6134 26.8389 67.4274 27.1095C67.1963 27.469 66.9844 27.8404 66.7927 28.2222H66.6956C66.9219 27.6466 67.2313 27.1069 67.6141 26.6199C67.8301 26.3311 68.1184 26.1035 68.4504 25.9597C68.6296 25.9226 68.861 25.8707 69.1523 25.8336C69.4639 25.7845 69.778 25.7523 70.0931 25.7372L71.0862 25.6704C71.4147 25.6704 71.691 25.6704 71.93 25.6704C73.0127 23.6898 74.0581 21.8502 75.0661 20.1663C76.0741 18.4824 77.127 16.8208 78.2097 15.2037C78.7921 14.3284 79.4193 13.4679 80.0914 12.6371C80.7168 11.8459 81.4007 11.102 82.1373 10.4117C82.7647 9.83697 83.4591 9.3389 84.2057 8.92814C84.8004 8.57514 85.4769 8.38093 86.1695 8.36438C86.5674 8.35497 86.9602 8.4551 87.3045 8.65368C87.4382 8.71141 87.5545 8.80257 87.6422 8.91827C87.7299 9.03397 87.7859 9.17027 87.8048 9.31387Z" fill="#54301A"/>
<path d="M89.2306 13.0003C89.1867 13.4573 89.0655 13.9037 88.8722 14.3207C88.5762 15.0124 88.2344 15.684 87.8493 16.331C87.3526 17.1786 86.8091 17.9983 86.2215 18.7863C85.5521 19.7001 84.8238 20.5698 84.0411 21.39C83.2158 22.2661 82.3301 23.0841 81.3903 23.8379C80.4131 24.6219 79.3688 25.3193 78.2691 25.9223C78.0824 26.2636 77.8062 26.7235 77.4627 27.3095C77.1192 27.8955 76.7683 28.5038 76.4322 29.1491C76.1069 29.7686 75.8153 30.405 75.5586 31.0555C75.3389 31.5554 75.2124 32.0908 75.1853 32.6356C75.1853 33.3254 75.4989 33.6667 76.1261 33.6667C76.7173 33.6547 77.2966 33.4993 77.8136 33.2142C78.4091 32.9077 78.972 32.5424 79.4937 32.1237C80.018 31.6929 80.5166 31.2322 80.9871 30.744C81.4501 30.2618 81.8458 29.8316 82.1744 29.4384C82.3237 29.2901 82.4133 29.253 82.4282 29.3272C82.4432 29.4013 82.4282 29.4829 82.3386 29.5645C81.9429 30.0393 81.4874 30.5511 80.9572 31.0481C80.4301 31.5838 79.8636 32.0797 79.2622 32.5317C78.6838 32.9748 78.0577 33.353 77.3955 33.6592C76.7884 33.9548 76.1226 34.1119 75.4466 34.1191C75.2269 34.1386 75.0056 34.1131 74.7963 34.0442C74.5869 33.9753 74.394 33.8645 74.2295 33.7186C73.9788 33.4486 73.8447 33.0917 73.8561 32.7246C73.9104 32.1432 74.0805 31.5784 74.3564 31.063C74.685 30.3212 75.1031 29.5794 75.5437 28.7857C75.9842 27.9919 76.4546 27.2427 76.9101 26.5603C77.3656 25.8778 77.6568 25.3215 77.8808 24.9728L79.0382 23.0219C79.434 22.3469 79.8372 21.6793 80.2255 21.0339L81.3455 19.1794C81.7039 18.586 82.0325 18.0593 82.3386 17.6143C82.7045 17.0505 83.0853 16.5238 83.4736 16.0268C83.9176 15.4816 84.4181 14.9843 84.967 14.5432C85.6605 13.9458 86.4107 13.4167 87.2071 12.9632C87.6341 12.6955 88.1076 12.5093 88.6034 12.4143C88.7591 12.4081 88.9113 12.4612 89.029 12.5627C89.0935 12.616 89.1451 12.683 89.1799 12.7587C89.2148 12.8345 89.2322 12.917 89.2306 13.0003ZM87.7372 13.8311C87.7372 13.4899 87.5879 13.3193 87.3116 13.3193C87.1884 13.3222 87.0679 13.3553 86.9607 13.4157C86.7704 13.5206 86.5989 13.6559 86.4529 13.8163C86.2439 14.024 85.9974 14.3133 85.7062 14.6693L84.5787 16.0936C84.407 16.331 84.1606 16.6722 83.832 17.1247C83.5035 17.5772 83.0853 18.178 82.6224 18.9198C82.1594 19.6616 81.5546 20.5814 80.8751 21.6645C80.1956 22.7475 79.3817 24.0382 78.4483 25.5218C79.7673 24.7773 80.9951 23.8837 82.1071 22.8587C83.2123 21.8849 84.2224 20.8095 85.1238 19.6468C85.8832 18.6524 86.534 17.5807 87.0652 16.4497C87.4835 15.6362 87.7228 14.7435 87.7671 13.8311H87.7372Z" fill="#54301A"/>
<path d="M81.2328 33.6894C80.969 33.7112 80.7057 33.6432 80.4861 33.4965C80.399 33.4284 80.3302 33.3399 80.2859 33.2389C80.2417 33.138 80.2232 33.0277 80.2322 32.9179C80.3324 32.2225 80.6043 31.5624 81.0237 30.9967C81.5613 30.1436 82.2035 29.1422 82.9651 27.9776C83.0302 27.8946 83.1 27.8153 83.1742 27.7402C83.2249 27.6809 83.2855 27.6307 83.3534 27.5919L83.7939 27.5103C83.9044 27.4842 84.0167 27.4668 84.1299 27.4583C84.2195 27.4583 84.2569 27.4583 84.2569 27.5548C83.5102 28.9197 82.8232 30.0175 82.2931 30.8632C81.863 31.4487 81.5882 32.1324 81.4941 32.8512C81.4941 33.1108 81.6136 33.2369 81.86 33.2369C82.004 33.2298 82.1457 33.1971 82.2781 33.1405C82.4686 33.0707 82.6533 32.9864 82.8307 32.8883C83.0248 32.777 83.204 32.6657 83.3832 32.547C83.5283 32.4522 83.6591 32.3373 83.7715 32.2058C84.1141 31.7842 84.4049 31.3235 84.6377 30.8335C85.011 30.0917 85.4665 29.2683 86.0116 28.304C86.2377 27.8899 86.487 27.4887 86.7583 27.1023C86.9823 26.7759 87.169 26.6201 87.3258 26.6201C87.437 26.7039 87.5224 26.817 87.5722 26.9465C87.639 27.1091 87.6745 27.2827 87.6768 27.4583C87.6181 27.6749 87.5194 27.8786 87.3855 28.0592C87.1914 28.3707 86.945 28.7342 86.6388 29.157C86.3327 29.5799 86.0042 30.0175 85.6457 30.4923C85.2873 30.967 84.9513 31.4121 84.6228 31.8201C83.8761 33.0069 83.0622 34.2235 82.2632 35.4845C81.4642 36.7456 80.7026 37.9325 79.8962 39.1342C79.0897 40.3359 78.2758 41.4115 77.4246 42.4574C76.6361 43.442 75.7615 44.3555 74.8112 45.1872C73.9662 45.9203 73.0271 46.5389 72.0185 47.0268C71.0687 47.4739 70.0304 47.7045 68.9795 47.7019C68.384 47.7114 67.7974 47.5574 67.2845 47.2568C67.0271 47.084 66.8218 46.8451 66.6903 46.5656C66.5588 46.286 66.5061 45.9763 66.5378 45.6693C66.5373 45.49 66.5548 45.3111 66.59 45.1353C66.6123 44.986 66.6499 44.8393 66.702 44.6976C66.7169 44.6468 66.7485 44.6024 66.7916 44.5715C66.8439 44.5715 66.8663 44.5715 66.8663 44.6679C66.8646 44.9608 66.9211 45.2511 67.0326 45.5223C67.1441 45.7934 67.3083 46.04 67.5159 46.2479C67.826 46.524 68.1908 46.7326 68.5869 46.8604C68.983 46.9881 69.4015 47.0322 69.8158 46.9897C70.7382 46.9784 71.6455 46.755 72.4665 46.337C73.3942 45.8584 74.2573 45.2652 75.0352 44.5715C75.9161 43.7915 76.728 42.9377 77.4619 42.0197C78.2385 41.0307 78.9852 40.0194 79.702 38.9858C80.4189 37.9522 81.1083 36.8915 81.7704 35.8035C82.42 34.7427 83.0248 33.7339 83.5625 32.7844C83.5625 32.6954 83.5625 32.6657 83.5625 32.688L83.4579 32.7547C83.1523 32.9909 82.8276 33.2018 82.4872 33.3853C82.101 33.5887 81.6699 33.6932 81.2328 33.6894Z" fill="#54301A"/>
</svg>
