<svg width="244" height="138" viewBox="0 0 244 138" fill="none" xmlns="http://www.w3.org/2000/svg">
<path d="M26.7518 84.2512V84.3747C26.6571 84.3882 26.5669 84.4246 26.489 84.4806C26.4129 84.5415 26.3528 84.6203 26.3139 84.7101L26.0511 85.3278L24.2992 89.8461H24.1415L22.7926 86.3162L21.3035 89.8461H21.1634L19.4115 85.3807C19.3127 85.0941 19.1896 84.8166 19.0436 84.5512C18.94 84.4481 18.8034 84.3856 18.6582 84.3747V84.2512H21.0232V84.3747C20.8879 84.3761 20.7551 84.4126 20.6378 84.4806C20.6248 84.5113 20.6181 84.5443 20.6181 84.5777C20.6181 84.6111 20.6248 84.6441 20.6378 84.6748C20.6648 84.9042 20.7362 85.1261 20.848 85.3278L21.8992 87.9929L22.7751 85.9102L22.5473 85.3278C22.4676 85.1044 22.374 84.8863 22.267 84.6748C22.2193 84.5786 22.1383 84.5032 22.0393 84.463C21.9128 84.4308 21.7804 84.4308 21.6539 84.463V84.2512H24.2817V84.3747H23.8788C23.8264 84.3937 23.7828 84.4314 23.7561 84.4806C23.7385 84.526 23.7385 84.5764 23.7561 84.6218C23.7986 84.8205 23.8572 85.0153 23.9313 85.2042L24.9299 87.7987L25.8233 85.4513L25.9985 84.9395C25.9985 84.8513 25.9985 84.763 25.9985 84.7101C26.0022 84.6591 25.9928 84.608 25.9714 84.5616C25.9499 84.5153 25.917 84.4753 25.8759 84.4453C25.8759 84.4453 25.6657 84.3394 25.4554 84.3218V84.2512H26.7518Z" fill="#54301A"/>
<path d="M29.7832 89.5813V89.7225H26.9102V89.5813H27.0853C27.2103 89.6244 27.3458 89.6244 27.4708 89.5813C27.5451 89.5382 27.6012 89.4692 27.6284 89.3872C27.659 89.218 27.659 89.0446 27.6284 88.8754V85.1689C27.6575 84.9996 27.6575 84.8265 27.6284 84.6571C27.6284 84.6571 27.6284 84.5159 27.4532 84.463C27.3318 84.4387 27.2068 84.4387 27.0853 84.463H26.9102V84.2512H29.7832V84.3747H29.5905C29.4687 84.3546 29.3444 84.3546 29.2226 84.3747C29.1515 84.4264 29.0918 84.4926 29.0474 84.5689C29.0474 84.6571 29.0474 84.816 29.0474 85.0807V88.6989C29.0474 88.9812 29.0474 89.1577 29.0474 89.2283C29.1014 89.3043 29.1738 89.365 29.2577 89.4048C29.3655 89.4425 29.4827 89.4425 29.5905 89.4048L29.7832 89.5813Z" fill="#54301A"/>
<path d="M31.9017 84.2512L34.5821 87.6399V85.2925C34.6118 85.0594 34.5624 84.823 34.4419 84.6218C34.3597 84.5336 34.2586 84.4655 34.1462 84.4227C34.0339 84.3798 33.9133 84.3634 33.7937 84.3747V84.2512H35.5456V84.3747C35.3889 84.395 35.2357 84.4366 35.0901 84.4983C35 84.5563 34.9321 84.6434 34.8974 84.7454C34.8692 84.9266 34.8692 85.1112 34.8974 85.2925V89.8461H34.7748L31.0783 85.2748V88.8048C31.0628 88.9198 31.0737 89.0369 31.1101 89.1471C31.1466 89.2572 31.2076 89.3575 31.2886 89.4401C31.4322 89.5571 31.612 89.6196 31.7966 89.6166H31.9192V89.7578H29.9922V89.6166C30.2136 89.6325 30.4328 89.5631 30.6053 89.4225C30.6769 89.3378 30.7309 89.2395 30.764 89.1333C30.7971 89.0272 30.8087 88.9155 30.798 88.8048V84.9572L30.6754 84.816C30.5998 84.6947 30.498 84.5921 30.3776 84.5159C30.2495 84.5016 30.1203 84.5016 29.9922 84.5159V84.2512H31.9017Z" fill="#54301A"/>
<path d="M37.9448 84.5689V86.7221H38.0499C38.1932 86.7327 38.3368 86.7077 38.4682 86.6492C38.5995 86.5907 38.7146 86.5006 38.8032 86.3868C38.9916 86.1046 39.095 85.7737 39.1011 85.4337H39.2587V88.2929H39.1011C39.0829 88.0246 39.0176 87.7617 38.9084 87.5163C38.8287 87.3516 38.7001 87.2158 38.5405 87.128C38.3524 87.0478 38.1488 87.0116 37.9448 87.0221V88.5577C37.9147 88.7447 37.9147 88.9354 37.9448 89.1224C37.9506 89.1571 37.9648 89.1898 37.9862 89.2175C38.0076 89.2452 38.0355 89.2671 38.0675 89.2813C38.1818 89.3156 38.3035 89.3156 38.4178 89.2813H38.7332C39.1692 89.3018 39.6 89.1778 39.9595 88.9283C40.2885 88.6448 40.5162 88.2604 40.6077 87.834H40.7653L40.5201 89.599H35.8776V89.4578H36.0528C36.1781 89.4983 36.3129 89.4983 36.4382 89.4578C36.5126 89.4147 36.5687 89.3456 36.5959 89.2636C36.623 89.0941 36.623 88.9213 36.5959 88.7518V85.1689C36.6093 85.0222 36.6093 84.8745 36.5959 84.7277C36.5811 84.6356 36.5307 84.5531 36.4557 84.4983C36.3308 84.416 36.1845 84.373 36.0353 84.3747H35.8601V84.2512H40.415V85.8573H40.2923C40.261 85.5302 40.1396 85.2185 39.942 84.9572C39.7878 84.7727 39.579 84.6428 39.3463 84.5865C39.0675 84.5452 38.7842 84.5452 38.5054 84.5865L37.9448 84.5689Z" fill="#54301A"/>
<path d="M44.971 84.1283V85.8932H44.8483C44.7794 85.4696 44.5767 85.0796 44.2702 84.7813C43.9984 84.5267 43.6428 84.3821 43.2716 84.3754C43.0422 84.3616 42.8163 84.4375 42.641 84.5872C42.5676 84.6473 42.5078 84.7224 42.4655 84.8076C42.4232 84.8928 42.3994 84.9862 42.3957 85.0814C42.3853 85.2 42.4163 85.3186 42.4833 85.4167C42.5778 85.5657 42.7033 85.6922 42.8512 85.7873C43.1322 85.9659 43.4248 86.1251 43.7271 86.2639C44.2113 86.4703 44.6471 86.7769 45.006 87.164C45.2256 87.4319 45.3436 87.7697 45.3388 88.1171C45.3398 88.3405 45.2933 88.5615 45.2027 88.7655C45.1121 88.9694 44.9793 89.1515 44.8133 89.2996C44.6317 89.4672 44.4191 89.5971 44.1876 89.6819C43.9562 89.7667 43.7104 89.8047 43.4643 89.7938C43.3013 89.812 43.1368 89.812 42.9738 89.7938L42.3957 89.5996C42.2964 89.5523 42.1897 89.5225 42.0804 89.5114C42.0028 89.5177 41.9292 89.5486 41.8701 89.5996C41.7833 89.6612 41.7163 89.7472 41.6774 89.8467H41.5198V87.7817H41.6774C41.7428 88.2904 41.9849 88.7594 42.3607 89.1054C42.6523 89.391 43.0403 89.5549 43.4468 89.5643C43.708 89.5717 43.963 89.4839 44.1651 89.3172C44.2458 89.2432 44.3107 89.1533 44.3558 89.0532C44.401 88.9531 44.4255 88.8448 44.4279 88.7348C44.4173 88.6055 44.3816 88.4796 44.3228 88.3642C44.2369 88.2355 44.1303 88.1222 44.0074 88.0288C43.7822 87.8549 43.5347 87.7124 43.2716 87.6052C42.8927 87.4349 42.5342 87.2217 42.203 86.9699C42.0063 86.8086 41.835 86.6182 41.695 86.4051C41.5837 86.1863 41.5238 85.9448 41.5198 85.6991C41.5207 85.487 41.5647 85.2774 41.649 85.0832C41.7334 84.8889 41.8563 84.7141 42.0103 84.5695C42.3432 84.2734 42.7752 84.1157 43.2191 84.1283C43.388 84.1109 43.5582 84.1109 43.7271 84.1283C43.8873 84.171 44.0407 84.2363 44.1826 84.3224C44.304 84.3834 44.434 84.4251 44.568 84.446C44.5925 84.4584 44.6195 84.4648 44.6469 84.4648C44.6742 84.4648 44.7012 84.4584 44.7257 84.446C44.7931 84.3592 44.8356 84.2554 44.8483 84.1459L44.971 84.1283Z" fill="#54301A"/>
<path d="M52.2416 86.4579H53.9935V86.5991C53.8295 86.6191 53.673 86.6797 53.538 86.7756C53.3668 86.9516 53.2248 87.1542 53.1175 87.3757C52.9087 87.7377 52.6684 88.0803 52.3993 88.3993C52.6055 88.5949 52.8283 88.7721 53.065 88.9288C53.1807 88.9512 53.2996 88.9512 53.4154 88.9288C53.5334 88.9158 53.6464 88.8736 53.7442 88.8058C53.842 88.738 53.9216 88.6469 53.976 88.5405L54.1161 88.6288C53.9678 88.9921 53.7259 89.3089 53.4154 89.5466C53.2321 89.6943 53.0016 89.7697 52.7672 89.7584C52.562 89.7616 52.3587 89.7194 52.1715 89.6348C51.9233 89.4939 51.6937 89.3219 51.4883 89.123C51.1958 89.3286 50.8777 89.4948 50.5423 89.6172C50.247 89.7084 49.9402 89.756 49.6313 89.7584C49.1862 89.7852 48.7476 89.6401 48.405 89.3524C48.267 89.2281 48.1567 89.0757 48.0812 88.9054C48.0057 88.7351 47.9668 88.5506 47.9671 88.364C47.9652 87.9694 48.116 87.5896 48.3875 87.3051C48.7484 86.9588 49.1784 86.694 49.6489 86.5285C49.5663 86.3735 49.5073 86.2069 49.4737 86.0343C49.4575 85.87 49.4575 85.7044 49.4737 85.5401C49.4654 85.3395 49.5003 85.1394 49.5759 84.9536C49.6514 84.7678 49.766 84.6006 49.9116 84.4635C50.2282 84.1771 50.6426 84.0253 51.0679 84.0399C51.3868 84.0244 51.7015 84.1177 51.9613 84.3047C52.0609 84.385 52.1411 84.4871 52.1958 84.6034C52.2504 84.7196 52.2781 84.8468 52.2767 84.9753C52.2856 85.122 52.2602 85.2688 52.2023 85.4037C52.1445 85.5386 52.0559 85.6579 51.9438 85.7519C51.6416 86.0275 51.2826 86.2324 50.8927 86.352C51.26 86.9951 51.7074 87.5882 52.2241 88.117C52.5417 87.8199 52.7462 87.4203 52.8022 86.9874C52.7858 86.9265 52.7548 86.8706 52.7121 86.8244C52.6694 86.7783 52.6161 86.7434 52.5569 86.7226C52.4652 86.6387 52.3478 86.5889 52.2241 86.5814L52.2416 86.4579ZM49.6664 86.8815C49.5059 86.9505 49.3579 87.046 49.2284 87.1639C49.1097 87.3083 49.0419 87.4883 49.0357 87.6757C49.0381 87.9454 49.1171 88.2088 49.2634 88.4346C49.3929 88.6662 49.5725 88.8653 49.789 89.0171C49.9693 89.1426 50.183 89.2103 50.4022 89.2112C50.5178 89.2345 50.6369 89.2345 50.7525 89.2112L51.1555 89.0171C50.5528 88.3868 50.0505 87.6664 49.6664 86.8815ZM50.6474 86.1932C50.8587 86.1292 51.0512 86.0141 51.208 85.8578C51.3014 85.7369 51.3508 85.5874 51.3482 85.4342C51.3507 85.1556 51.2648 84.8835 51.1029 84.6576C51.0594 84.6001 51.0039 84.553 50.9404 84.5194C50.8768 84.4859 50.8067 84.4668 50.735 84.4635C50.6106 84.4679 50.4922 84.5181 50.4022 84.6047C50.3101 84.7195 50.2605 84.863 50.262 85.0106C50.2381 85.1508 50.2381 85.294 50.262 85.4342C50.3846 85.5931 50.4897 85.8402 50.6474 86.1932Z" fill="#54301A"/>
<path d="M60.1608 84.129V85.8939H60.0032C59.942 85.4677 59.738 85.0754 59.4251 84.782C59.1577 84.5314 58.8091 84.3871 58.444 84.3761C58.2091 84.3614 57.9774 84.4371 57.7958 84.5879C57.7219 84.6463 57.6627 84.7215 57.6231 84.8074C57.5835 84.8933 57.5647 84.9874 57.5681 85.0821C57.5293 85.1904 57.5293 85.309 57.5681 85.4174C57.6626 85.5664 57.7881 85.6929 57.936 85.7881C58.217 85.9666 58.5096 86.1258 58.8119 86.2646C59.2981 86.4766 59.7385 86.7824 60.1083 87.1647C60.3153 87.4384 60.4262 87.7737 60.4236 88.1178C60.4245 88.3412 60.3781 88.5623 60.2875 88.7662C60.1969 88.9701 60.0641 89.1522 59.8981 89.3003C59.7165 89.4679 59.5039 89.5978 59.2724 89.6826C59.041 89.7674 58.7952 89.8054 58.5491 89.7945C58.3861 89.8127 58.2216 89.8127 58.0586 89.7945C57.8675 89.7428 57.6802 89.678 57.498 89.6004C57.3927 89.5524 57.2802 89.5226 57.1652 89.5121C57.0876 89.5184 57.014 89.5493 56.9549 89.6004C56.8681 89.662 56.8011 89.7479 56.7622 89.8475H56.6221V87.7825H56.7622C56.8454 88.2816 57.0776 88.7434 57.4279 89.1062C57.7311 89.3846 58.1217 89.547 58.5316 89.5651C58.788 89.5765 59.039 89.488 59.2324 89.318C59.3208 89.2495 59.3921 89.1612 59.4408 89.0601C59.4894 88.959 59.514 88.8479 59.5127 88.7355C59.5107 88.6048 59.4744 88.4769 59.4075 88.3649C59.3217 88.2362 59.2151 88.1229 59.0922 88.0296C58.867 87.8556 58.6195 87.7132 58.3564 87.606C57.9797 87.4313 57.6216 87.2184 57.2878 86.9706C57.0914 86.8141 56.9252 86.6227 56.7973 86.4058C56.6779 86.1902 56.6174 85.9466 56.6221 85.6998C56.6197 85.4889 56.6604 85.2797 56.7418 85.0854C56.8232 84.8911 56.9435 84.7157 57.0951 84.5702C57.4235 84.2783 57.8485 84.1209 58.2864 84.129C58.4611 84.1107 58.6372 84.1107 58.8119 84.129C58.9721 84.1717 59.1254 84.2371 59.2674 84.3231C59.3888 84.3841 59.5188 84.4258 59.6528 84.4467C59.6776 84.4579 59.7045 84.4637 59.7316 84.4637C59.7588 84.4637 59.7857 84.4579 59.8105 84.4467C59.8706 84.3558 59.9122 84.2538 59.9331 84.1466L60.1608 84.129Z" fill="#54301A"/>
<path d="M63.0672 87.2346V88.7701C63.0257 88.956 63.0257 89.1489 63.0672 89.3349C63.1067 89.4101 63.1677 89.4716 63.2424 89.5114C63.4156 89.5491 63.5948 89.5491 63.768 89.5114V89.6526H61V89.5114C61.167 89.5512 61.341 89.5512 61.508 89.5114C61.5907 89.4768 61.6588 89.4144 61.7007 89.3349C61.7308 89.1478 61.7308 88.9571 61.7007 88.7701V85.2402C61.7308 85.0531 61.7308 84.8624 61.7007 84.6754C61.683 84.6338 61.6566 84.5966 61.6233 84.5662C61.5901 84.5357 61.5508 84.5128 61.508 84.4989C61.3411 84.4584 61.167 84.4584 61 84.4989V84.2518H63.365C63.978 84.1784 64.5973 84.3219 65.1169 84.6577C65.2759 84.7838 65.4042 84.9446 65.4923 85.1281C65.5803 85.3116 65.6257 85.5129 65.6249 85.7167C65.6244 86.0525 65.5066 86.3774 65.2921 86.6345C65.047 86.8943 64.7293 87.0729 64.3811 87.1463C63.9477 87.2244 63.5071 87.254 63.0672 87.2346ZM63.0672 84.5695V86.9169H63.2774C63.417 86.9238 63.5563 86.9006 63.6862 86.8488C63.8162 86.7971 63.9336 86.718 64.0307 86.6168C64.214 86.3547 64.3008 86.0364 64.276 85.7167C64.3011 85.4025 64.2142 85.0896 64.0307 84.8342C63.9268 84.7335 63.8027 84.6562 63.6667 84.6075C63.5308 84.5588 63.3862 84.5398 63.2424 84.5518L63.0672 84.5695Z" fill="#54301A"/>
<path d="M68.7272 89.5813V89.7225H65.8892V89.5813H66.0819C66.2018 89.6182 66.3299 89.6182 66.4498 89.5813C66.5241 89.5382 66.5802 89.4692 66.6074 89.3872C66.6287 89.2172 66.6287 89.0453 66.6074 88.8754V85.1689C66.6275 84.9989 66.6275 84.8271 66.6074 84.6571C66.6074 84.6571 66.5198 84.5159 66.4322 84.463C66.3165 84.4406 66.1976 84.4406 66.0819 84.463H65.8892V84.2512H68.7272V84.3747H68.552C68.4245 84.3527 68.2941 84.3527 68.1666 84.3747C68.0958 84.4219 68.0408 84.4896 68.0089 84.5689C67.9811 84.7383 67.9811 84.9112 68.0089 85.0807V88.6989C67.9788 88.874 67.9788 89.0531 68.0089 89.2283C68.0089 89.2283 68.0089 89.3519 68.1841 89.4048C68.3035 89.4452 68.4326 89.4452 68.552 89.4048L68.7272 89.5813Z" fill="#54301A"/>
<path d="M71.0212 87.2178V88.7709C70.9797 88.9569 70.9797 89.1498 71.0212 89.3357C71.0212 89.3357 71.1088 89.4593 71.1964 89.5122C71.3636 89.5502 71.5372 89.5502 71.7044 89.5122V89.6534H68.989V89.5122C69.1622 89.5499 69.3414 89.5499 69.5146 89.5122C69.5892 89.4724 69.6503 89.4109 69.6898 89.3357C69.7198 89.1487 69.7198 88.958 69.6898 88.7709V85.241C69.718 85.0597 69.718 84.8751 69.6898 84.6939C69.6458 84.6173 69.5861 84.5511 69.5146 84.4997C69.3404 84.4731 69.1632 84.4731 68.989 84.4997V84.2526H71.5292C72.0055 84.2327 72.4824 84.2742 72.9482 84.3762C73.246 84.4743 73.5122 84.651 73.7191 84.888C73.9048 85.1439 74.0032 85.4535 73.9994 85.7705C74.0025 85.9506 73.9665 86.1293 73.8938 86.2939C73.8212 86.4586 73.7137 86.6052 73.5789 86.7236C73.3554 86.9116 73.0915 87.0445 72.8081 87.1119L74.122 88.8768C74.2177 89.045 74.3356 89.1993 74.4724 89.3357C74.5839 89.4184 74.7193 89.4618 74.8578 89.4593V89.6181H73.1059L71.354 87.1119L71.0212 87.2178ZM71.0212 84.5527V86.9354H71.2489C71.5334 86.9575 71.8195 86.9214 72.0898 86.8295C72.1812 86.8051 72.2662 86.7609 72.3388 86.6999C72.4115 86.6389 72.47 86.5627 72.5103 86.4765C72.6377 86.2642 72.6987 86.0182 72.6855 85.7705C72.7016 85.6051 72.6835 85.4381 72.6322 85.2801C72.5809 85.1221 72.4976 84.9766 72.3876 84.8527C72.1296 84.6331 71.7958 84.5252 71.4591 84.5527H71.0212Z" fill="#54301A"/>
<path d="M77.6771 89.5813V89.7225H74.8391V89.5813H75.0318C75.1512 89.6217 75.2803 89.6217 75.3997 89.5813C75.4383 89.5623 75.4724 89.5352 75.4996 89.5017C75.5269 89.4681 75.5466 89.4291 75.5574 89.3872C75.5975 89.219 75.5975 89.0436 75.5574 88.8754V85.1689C75.5956 85.0005 75.5956 84.8255 75.5574 84.6571C75.5477 84.6147 75.5285 84.5751 75.5011 84.5414C75.4738 84.5078 75.4391 84.4809 75.3997 84.463C75.2781 84.4408 75.1535 84.4408 75.0318 84.463H74.8391V84.2512H77.6771V84.3747H77.5019C77.3805 84.3505 77.2555 84.3505 77.1341 84.3747C77.0588 84.4216 76.9981 84.4889 76.9589 84.5689C76.9432 84.7391 76.9432 84.9105 76.9589 85.0807V88.6989C76.9417 88.8749 76.9417 89.0523 76.9589 89.2283C77.0054 89.3042 77.0722 89.3653 77.1516 89.4048C77.2649 89.4452 77.3886 89.4452 77.5019 89.4048L77.6771 89.5813Z" fill="#54301A"/>
<path d="M82.9862 84.2512V85.7337H82.846C82.7893 85.4741 82.6949 85.2243 82.5657 84.9925C82.4523 84.8388 82.3015 84.7172 82.1278 84.6395C81.9486 84.6019 81.7638 84.6019 81.5847 84.6395H81.1993V88.8577C81.1728 89.0332 81.1728 89.2117 81.1993 89.3872C81.2387 89.4624 81.2998 89.5239 81.3744 89.5637C81.4938 89.604 81.623 89.604 81.7423 89.5637H81.9175V89.7049H79.1145V89.5637H79.2897C79.415 89.6042 79.5498 89.6042 79.6751 89.5637C79.6751 89.5637 79.7802 89.4578 79.8328 89.3695C79.8634 89.2003 79.8634 89.0269 79.8328 88.8577V84.5689H79.4474C79.1596 84.5394 78.8715 84.6215 78.6415 84.7983C78.3901 85.048 78.2349 85.3795 78.2036 85.7337H78.0459V84.2512H82.9862Z" fill="#54301A"/>
<path d="M87.0519 84.1289V85.8939H86.8767C86.8155 85.4677 86.6115 85.0754 86.2986 84.782C86.033 84.5285 85.6833 84.3838 85.3175 84.376C85.0826 84.3613 84.851 84.437 84.6694 84.5878C84.596 84.6479 84.5362 84.7231 84.4939 84.8083C84.4516 84.8935 84.4278 84.9868 84.4241 85.082C84.4219 85.1998 84.4522 85.3159 84.5117 85.4174C84.6062 85.5663 84.7317 85.6928 84.8796 85.788C85.1606 85.9665 85.4532 86.1258 85.7555 86.2645C86.2445 86.4715 86.6858 86.778 87.0519 87.1647C87.264 87.4368 87.381 87.7718 87.3847 88.1177C87.3858 88.3429 87.3377 88.5656 87.2439 88.7699C87.15 88.9743 87.0127 89.1553 86.8417 89.3003C86.6601 89.4679 86.4475 89.5978 86.216 89.6826C85.9846 89.7674 85.7388 89.8054 85.4927 89.7945C85.3356 89.8137 85.1768 89.8137 85.0197 89.7945L84.4416 89.6003C84.3423 89.553 84.2356 89.5231 84.1263 89.5121C84.0434 89.5182 83.9641 89.5489 83.8985 89.6003C83.8167 89.667 83.7508 89.7515 83.7058 89.8474H83.5657V87.7824H83.7058C83.787 88.286 84.0265 88.7499 84.3891 89.1061C84.6826 89.3888 85.0694 89.5522 85.4752 89.565C85.7368 89.5756 85.993 89.4875 86.1935 89.3179C86.3387 89.2117 86.4367 89.0523 86.4662 88.8739C86.4957 88.6956 86.4544 88.5127 86.3511 88.3648C86.2722 88.2363 86.1714 88.1228 86.0533 88.0295C85.826 87.8588 85.5789 87.7166 85.3175 87.6059C84.9357 87.4305 84.5719 87.2177 84.2314 86.9705C84.0397 86.8091 83.8742 86.6186 83.7409 86.4057C83.6215 86.1902 83.561 85.9466 83.5657 85.6998C83.5633 85.4888 83.6041 85.2797 83.6854 85.0853C83.7668 84.891 83.8871 84.7156 84.0387 84.5702C84.3715 84.2741 84.8036 84.1164 85.2475 84.1289C85.4163 84.1107 85.5867 84.1107 85.7555 84.1289C85.9201 84.1752 86.0788 84.2403 86.2285 84.3231C86.345 84.3808 86.4688 84.4224 86.5964 84.4466C86.6209 84.4591 86.6479 84.4655 86.6752 84.4655C86.7026 84.4655 86.7296 84.4591 86.7541 84.4466C86.8215 84.3599 86.864 84.2561 86.8767 84.1466L87.0519 84.1289Z" fill="#54301A"/>
<path d="M56.06 43.7815C55.9245 43.8329 55.7751 43.8329 55.6396 43.7815C55.6073 43.7792 55.5759 43.7706 55.5469 43.7561C55.518 43.7415 55.4922 43.7214 55.4711 43.6968C55.4499 43.6722 55.4338 43.6436 55.4236 43.6127C55.4134 43.5818 55.4094 43.5492 55.4118 43.5167C55.6396 42.9343 55.8323 42.2283 56.06 41.3988C56.2878 40.5692 56.4629 39.828 56.6031 39.1749C56.6422 38.7906 56.7831 38.424 57.0112 38.1135C57.2393 37.8029 57.5461 37.5599 57.8995 37.41C59.922 36.3222 62.0177 35.3785 64.1712 34.586C66.4586 33.741 68.7997 33.0511 71.1786 32.521C75.5335 31.6463 79.9647 31.2147 84.4052 31.2326C88.874 31.0501 93.3384 31.6901 97.5793 33.1211C98.9909 33.5763 100.215 34.4861 101.063 35.7107C101.912 36.9352 102.337 38.4066 102.274 39.8986C102.229 41.6557 101.688 43.3636 100.715 44.8228C99.5538 46.6554 98.0694 48.2584 96.3354 49.5529C94.1973 51.1072 91.8415 52.3325 89.3455 53.1887C86.5302 54.2911 83.5865 55.0265 80.5862 55.3772C79.938 55.3772 79.7277 55.7478 79.938 56.242C81.3044 58.7836 83.1848 61.9487 85.579 65.7375C87.9966 69.5321 90.6944 73.5562 93.7076 77.8098C95.3171 80.0266 97.0729 82.1317 98.9632 84.1107C100.914 86.0937 103.062 87.8681 105.375 89.4055C107.658 90.9703 110.131 92.2337 112.733 93.1649C115.343 94.0955 118.093 94.5672 120.862 94.5592C125.339 94.5172 129.737 93.3656 133.668 91.2058C134.088 90.9234 134.316 90.994 134.316 91.4352C134.321 91.5626 134.28 91.6874 134.199 91.7854C134.118 91.8833 134.003 91.9473 133.878 91.9647C131.582 93.1976 129.17 94.1968 126.678 94.9475C124.055 95.7186 121.334 96.0991 118.602 96.0771C114.978 96.134 111.363 95.7187 107.845 94.8416C104.818 94.0345 101.942 92.7348 99.3311 90.994C96.5857 89.1009 94.1102 86.8384 91.9733 84.2695C89.3455 81.1307 86.9228 77.8233 84.7206 74.3681C84.0023 73.2209 83.1264 71.7913 82.1278 70.0793C81.1292 68.3673 80.0956 66.5494 79.0095 64.7844C77.9233 63.0195 76.9248 61.2545 75.9437 59.4896C74.9627 57.7246 74.1918 56.4185 73.5261 55.3243C73.5261 55.0419 73.6312 54.883 73.859 54.883C76.8348 54.9066 79.8051 54.6227 82.7234 54.0358C85.1901 53.5464 87.5585 52.6456 89.7309 51.3708C91.6282 50.269 93.2189 48.7028 94.3558 46.8172C95.5304 44.8789 96.1377 42.6458 96.1077 40.3751C96.0964 39.4305 95.9307 38.4943 95.6172 37.6041C95.2584 36.605 94.656 35.7128 93.8653 35.0096C92.8997 34.1756 91.7889 33.5293 90.5893 33.1035C88.8956 32.5401 87.1163 32.2832 85.3337 32.3445C84.6253 32.3522 83.92 32.441 83.2315 32.6093C82.5502 32.814 81.9419 33.2123 81.4796 33.7565C80.2862 35.2715 79.1751 36.8505 78.1511 38.4866C76.7145 40.6928 75.1378 43.2167 73.421 46.1288C71.7042 49.041 69.9173 52.0767 68.0428 55.3243C66.1683 58.5718 64.3989 61.7487 62.7872 64.8021C61.1755 67.8554 59.5638 70.7323 58.2499 73.2209C56.936 75.7095 56.06 77.6686 55.3418 79.1158C55.2976 79.1908 55.2325 79.2508 55.1546 79.2885C55.0767 79.3262 54.9894 79.3398 54.9038 79.3276C54.5516 79.2535 54.1944 79.2063 53.8351 79.1864C53.4794 79.1596 53.1222 79.1596 52.7665 79.1864H51.4701C50.927 79.1995 50.3867 79.2705 49.8584 79.3982C48.9141 79.9485 48.0528 80.632 47.3007 81.4279C47.137 81.4302 46.975 81.394 46.8277 81.322C46.6525 81.2514 46.6525 81.1455 46.8277 81.0043C53.4381 71.3089 58.9973 62.6665 63.5055 55.0772C68.0136 47.4879 71.9553 40.5457 75.3306 34.2507C75.5408 33.6683 75.6109 33.3153 75.4882 33.1564C75.3968 33.0727 75.2881 33.0104 75.1701 32.9737C75.052 32.9371 74.9273 32.9272 74.805 32.9446C72.6034 33.0982 70.4307 33.5372 68.3406 34.2507C66.2675 34.9403 64.2571 35.8083 62.3317 36.8452C61.0154 37.6262 59.8324 38.6154 58.828 39.775C57.7655 41.0067 56.8375 42.3499 56.06 43.7815Z" fill="#54301A"/>
<path d="M127.887 66.4428C126.53 68.1024 125.074 69.6762 123.525 71.1552C121.824 72.7896 119.989 74.2774 118.041 75.6029C116.126 76.9152 114.069 78.0046 111.91 78.8504C109.91 79.6606 107.776 80.0857 105.621 80.1035C102.257 80.1035 100.558 78.5857 100.558 75.5323C100.623 73.2929 101.154 71.0922 102.117 69.0726C103.161 66.7277 104.516 64.5367 106.146 62.5599C107.717 60.6466 109.551 58.9704 111.595 57.5827C113.233 56.3587 115.198 55.6578 117.236 55.5707C117.978 55.4996 118.722 55.6933 119.338 56.1178C119.531 56.2974 119.683 56.5161 119.786 56.7594C119.889 57.0028 119.939 57.2654 119.934 57.5298C119.88 58.4868 119.604 59.4178 119.128 60.2478C118.511 61.3533 117.683 62.325 116.693 63.107C115.474 64.0993 114.092 64.8698 112.611 65.3838C110.707 66.0413 108.702 66.3521 106.689 66.3016C106.202 67.2975 105.809 68.3376 105.516 69.4079C105.083 70.7897 104.865 72.2303 104.867 73.6791C104.867 76.6442 106.181 78.1268 108.844 78.1268C110.615 78.1036 112.361 77.6942 113.96 76.9266C115.778 76.1188 117.51 75.1252 119.128 73.9615C120.754 72.7956 122.278 71.4906 123.682 70.0609C124.942 68.8282 126.113 67.5071 127.186 66.1074C127.247 66.0413 127.327 65.9957 127.415 65.9767C127.503 65.9578 127.594 65.9664 127.677 66.0015C127.753 66.0441 127.814 66.1094 127.852 66.1885C127.889 66.2675 127.902 66.3564 127.887 66.4428ZM116.587 57.9887C116.614 57.7971 116.595 57.602 116.534 57.4187C116.473 57.2354 116.37 57.0688 116.235 56.9321C116.099 56.7953 115.934 56.6921 115.752 56.6304C115.57 56.5688 115.376 56.5504 115.186 56.5767C114.39 56.6128 113.625 56.8965 112.996 57.3886C112.172 57.9949 111.43 58.7069 110.789 59.5065C110.046 60.4023 109.361 61.3456 108.739 62.3304C108.137 63.2633 107.599 64.2363 107.127 65.2426C107.369 65.3349 107.623 65.3885 107.881 65.4015H108.739C110.775 65.4256 112.74 64.6537 114.222 63.2482C114.962 62.589 115.555 61.7796 115.963 60.8732C116.371 59.9667 116.583 58.9837 116.587 57.9887Z" fill="#54301A"/>
<path d="M164.676 70.009C163.677 71.1739 162.468 72.48 161.067 73.9272C159.658 75.3837 158.166 76.7568 156.599 78.0396C155.087 79.291 153.449 80.3795 151.712 81.2871C150.209 82.1082 148.533 82.556 146.824 82.5932C146.265 82.6739 145.695 82.6388 145.15 82.4901C144.605 82.3414 144.095 82.0822 143.653 81.7283C143.337 81.3557 143.096 80.9238 142.946 80.4573C142.796 79.9909 142.738 79.4992 142.777 79.0103C142.951 77.6444 143.373 76.3222 144.021 75.1098C144.844 73.3448 145.773 71.421 146.771 69.4796C147.77 67.5381 148.681 65.6496 149.504 63.8847C150.154 62.7615 150.599 61.5301 150.818 60.2488C150.818 59.8076 150.643 59.5958 150.275 59.5958C149.171 60.1999 148.127 60.9092 147.157 61.7138C145.934 62.722 144.764 63.7942 143.653 64.926C142.497 66.0732 141.446 67.2028 140.465 68.2794C139.484 69.356 138.713 70.2738 138.275 70.9798C137.674 71.8124 137.129 72.6851 136.646 73.5919C136.138 74.5979 135.665 75.5863 135.192 76.5217C134.792 77.3509 134.33 78.1476 133.808 78.9044C133.335 79.5574 132.914 79.8751 132.564 79.8751C132.372 79.8664 132.185 79.8123 132.017 79.7172C131.85 79.6222 131.707 79.4889 131.6 79.328C131.338 79.0293 131.183 78.6498 131.162 78.2514C131.21 77.8587 131.322 77.4769 131.495 77.1218C131.808 76.4038 132.208 75.7279 132.686 75.1098C133.619 73.7957 134.456 72.4154 135.192 70.9798C135.962 69.5502 136.593 68.2088 137.136 66.9733C137.679 65.7379 138.082 64.6965 138.38 63.8494C138.558 63.3548 138.699 62.8474 138.8 62.3315C138.8 61.7491 138.66 61.449 138.38 61.449C138.1 61.449 137.224 61.9079 136.173 62.808C135.122 63.7082 134 64.8201 132.774 66.1085C131.548 67.3969 130.356 68.7912 129.27 70.2385C128.184 71.6857 127.08 72.9742 126.31 74.1214C125.294 75.6569 124.453 76.9806 123.717 78.1455C122.981 79.3104 122.473 79.9104 122.123 79.9104C121.885 79.942 121.644 79.8811 121.448 79.7402C121.253 79.5992 121.118 79.3888 121.072 79.1515C120.973 78.6518 120.926 78.1431 120.931 77.6336C120.906 77.1338 121.055 76.6408 121.352 76.2393C123.296 73.1154 125.188 69.9561 127.063 66.6909C128.937 63.4258 130.794 60.2135 132.651 57.0366C133.002 56.4012 133.405 56.0659 133.825 56.0659C134.026 56.0746 134.221 56.1342 134.392 56.2391C134.564 56.344 134.706 56.4908 134.806 56.666C135.061 56.9952 135.208 57.3961 135.227 57.8132C134.541 59.6583 133.679 61.4317 132.651 63.1081C131.425 65.2084 130.356 67.1145 129.428 68.8618C131.656 66.1714 134.067 63.6413 136.646 61.2902C137.888 59.924 139.557 59.0272 141.376 58.7486C142.164 58.7486 142.549 59.2958 142.549 60.3724C142.427 61.5217 142.1 62.6395 141.586 63.6729C140.938 65.1554 140.36 66.3732 139.834 67.3087C139.694 67.5911 139.676 67.7323 139.834 67.697C139.979 67.6287 140.11 67.5328 140.219 67.4146C141.078 66.4085 141.971 65.3319 143.18 64.22C144.283 63.0845 145.453 62.0176 146.684 61.0254C147.928 60.0017 149.189 59.0663 150.433 58.2015C151.545 57.4209 152.716 56.7304 153.937 56.1365C155.005 56.1365 155.548 56.6483 155.548 57.6544C155.546 57.8819 155.511 58.1079 155.443 58.325C155.443 58.5192 155.268 58.7839 155.128 59.0663C154.76 59.8606 154.094 61.1666 153.131 62.9669C152.167 64.7671 151.186 66.7086 150.17 68.7736C149.154 70.8386 148.278 72.8153 147.542 74.7215C146.908 76.1071 146.523 77.595 146.404 79.1162C146.404 80.5635 147.087 81.2871 148.453 81.2871C149.906 81.2315 151.317 80.7801 152.535 79.981C154.057 79.0574 155.498 78.0065 156.845 76.8394C158.246 75.6387 159.574 74.3538 160.821 72.9918C162.048 71.6681 163.081 70.4856 163.94 69.4619C164.238 69.0207 164.518 68.8442 164.798 68.9148C165.078 68.9854 165.008 69.3737 164.676 70.009Z" fill="#54301A"/>
<path d="M206.003 22.1606C205.981 22.5214 205.94 22.8807 205.88 23.2372C205.88 23.7491 205.723 24.3138 205.635 25.0022C205.547 25.6905 205.512 26.2376 205.425 26.8554C205.361 27.3119 205.32 27.7714 205.302 28.232C205.255 28.2822 205.198 28.3222 205.134 28.3495C205.071 28.3768 205.003 28.3909 204.934 28.3909C204.874 28.3869 204.815 28.3707 204.761 28.3435C204.707 28.3162 204.658 28.2783 204.619 28.232C204.708 27.8781 204.772 27.5184 204.812 27.1554C204.812 26.8554 204.812 26.5377 204.812 26.2376C204.829 25.7612 204.721 25.2887 204.5 24.8674C204.279 24.4461 203.951 24.0908 203.55 23.8373C202.489 23.2186 201.271 22.9243 200.047 22.9901C197.557 23.0085 195.147 23.8799 193.214 25.4611C191.846 26.5557 190.595 27.7921 189.483 29.1498C187.988 30.9724 186.652 32.921 185.489 34.9742C184.718 36.3155 183.737 38.0275 182.651 40.1278C181.564 42.2281 180.356 44.4696 179.147 46.8523C177.938 49.235 176.607 51.6706 175.345 54.1592C174.084 56.6478 172.893 58.9599 171.842 61.1131H174.119H182.37C182.616 61.2543 182.686 61.5014 182.598 61.8721H181.074H178.166H174.662H171.421C169.669 65.1372 167.917 68.4377 166.166 71.7382C164.414 75.0386 162.452 78.2155 160.612 81.3042C158.773 84.3929 156.916 87.2168 155.094 89.8642C153.272 92.5117 151.59 94.8238 150.101 96.8182C146.75 101.208 143.122 105.376 139.239 109.296C136.224 112.347 132.947 115.123 129.446 117.592C126.742 119.512 123.797 121.061 120.687 122.198C118.21 123.108 115.598 123.591 112.961 123.628C112.179 123.623 111.399 123.547 110.631 123.398C109.774 123.235 108.95 122.924 108.196 122.481C107.367 121.984 106.65 121.316 106.094 120.522C105.413 119.511 104.948 118.369 104.728 117.168C104.728 116.756 104.78 116.58 104.885 116.639C105.023 116.763 105.125 116.921 105.183 117.097C105.3 117.602 105.508 118.08 105.796 118.509C106.214 119.182 106.741 119.779 107.355 120.274C108.127 120.871 108.983 121.347 109.896 121.686C111.079 122.094 112.325 122.285 113.574 122.251C116.054 122.163 118.511 121.741 120.88 120.998C123.91 120.028 126.77 118.587 129.359 116.727C132.715 114.386 135.82 111.701 138.626 108.714C142.315 104.763 145.667 100.506 148.647 95.9886C150.486 93.2883 152.291 90.3761 154.113 87.2698C155.935 84.1634 157.616 81.1101 159.368 78.0567C161.12 75.0033 162.679 72.0912 164.168 69.2319C165.657 66.3727 167.024 63.9371 168.25 61.8544C166.06 62.0133 164.326 62.1545 162.995 62.3133C161.95 62.4087 160.924 62.6524 159.946 63.0369C159.238 63.3505 158.631 63.858 158.195 64.5019C157.652 65.3573 157.155 66.241 156.705 67.1493H156.478C157.008 65.7799 157.734 64.4956 158.632 63.337C159.139 62.6499 159.816 62.1084 160.595 61.7662C161.015 61.6779 161.558 61.5544 162.241 61.4661C162.972 61.3493 163.709 61.2728 164.449 61.2367L166.779 61.0778C167.549 61.0778 168.198 61.0778 168.758 61.0778C171.298 56.3654 173.751 51.9883 176.116 47.9819C178.481 43.9754 180.951 40.0219 183.491 36.1743C184.858 34.0917 186.33 32.0443 187.906 30.0676C189.374 28.185 190.978 26.4152 192.706 24.7727C194.178 23.4052 195.807 22.2201 197.559 21.2428C198.954 20.4029 200.541 19.9408 202.166 19.9015C203.1 19.8791 204.022 20.1173 204.829 20.5898C205.143 20.7272 205.416 20.9441 205.622 21.2193C205.827 21.4946 205.959 21.8189 206.003 22.1606Z" fill="#54301A"/>
<path d="M209.349 30.9318C209.245 32.0191 208.961 33.0812 208.508 34.0734C207.813 35.7193 207.011 37.3171 206.108 38.8564C204.942 40.8731 203.667 42.8234 202.289 44.6984C200.718 46.8727 199.009 48.942 197.173 50.8934C195.237 52.978 193.159 54.9242 190.954 56.7178C188.661 58.5831 186.211 60.2426 183.631 61.6773C183.193 62.4892 182.545 63.5834 181.739 64.9778C180.933 66.3721 180.11 67.8193 179.322 69.3548C178.558 70.8288 177.874 72.343 177.272 73.8908C176.756 75.0801 176.46 76.3539 176.396 77.6501C176.396 79.2915 177.132 80.1034 178.603 80.1034C179.99 80.0749 181.35 79.7053 182.563 79.0268C183.96 78.2976 185.28 77.4284 186.504 76.4323C187.734 75.4073 188.904 74.3112 190.008 73.1495C191.094 72.0023 192.023 70.9786 192.794 70.0432C193.144 69.6902 193.354 69.6019 193.389 69.7784C193.424 69.9549 193.389 70.1491 193.179 70.3432C192.25 71.4728 191.182 72.6906 189.938 73.8731C188.701 75.1477 187.372 76.3276 185.961 77.403C184.604 78.4573 183.135 79.357 181.582 80.0858C180.157 80.789 178.595 81.1628 177.009 81.18C176.494 81.2263 175.975 81.1656 175.483 81.0017C174.992 80.8377 174.54 80.5741 174.154 80.227C173.565 79.5847 173.251 78.7354 173.278 77.8619C173.405 76.4788 173.804 75.1349 174.451 73.9084C175.222 72.1435 176.203 70.3785 177.237 68.49C178.271 66.6015 179.374 64.8189 180.443 63.1951C181.511 61.5714 182.195 60.2477 182.72 59.4181L185.436 54.7763C186.364 53.1702 187.31 51.5818 188.221 50.0462L190.849 45.6339C191.69 44.2219 192.461 42.9688 193.179 41.9098C194.037 40.5684 194.931 39.3153 195.842 38.1328C196.883 36.8355 198.058 35.6523 199.345 34.6029C200.973 33.1814 202.733 31.9224 204.601 30.8435C205.603 30.2065 206.714 29.7635 207.877 29.5375C208.242 29.5228 208.6 29.6491 208.876 29.8905C209.027 30.0173 209.148 30.1767 209.23 30.3569C209.312 30.5372 209.352 30.7336 209.349 30.9318ZM205.845 32.9085C205.845 32.0967 205.495 31.6907 204.846 31.6907C204.557 31.6976 204.274 31.7764 204.023 31.9202C203.577 32.1697 203.174 32.4917 202.832 32.8732C202.341 33.3674 201.763 34.0558 201.08 34.9029L198.435 38.2916C198.032 38.8564 197.453 39.6683 196.683 40.7449C195.912 41.8216 194.931 43.2512 193.845 45.0161C192.758 46.7811 191.339 48.9696 189.745 51.5464C188.151 54.1233 186.242 57.1943 184.052 60.7242C187.146 58.953 190.027 56.8268 192.636 54.388C195.229 52.071 197.599 49.5122 199.713 46.7458C201.495 44.3799 203.022 41.8299 204.268 39.1388C205.25 37.2033 205.811 35.0795 205.915 32.9085H205.845Z" fill="#54301A"/>
<path d="M190.584 80.1576C189.965 80.2096 189.348 80.0477 188.832 79.6987C188.628 79.5365 188.467 79.326 188.363 79.0858C188.259 78.8456 188.216 78.5832 188.237 78.322C188.472 76.6673 189.11 75.0969 190.094 73.7508C191.355 71.7211 192.862 69.3384 194.648 66.5674C194.801 66.3699 194.965 66.1813 195.139 66.0026C195.258 65.8614 195.4 65.742 195.559 65.6497L196.593 65.4555C196.852 65.3935 197.116 65.3522 197.381 65.332C197.592 65.332 197.679 65.332 197.679 65.5614C195.927 68.8089 194.316 71.4211 193.072 73.4331C192.063 74.8263 191.418 76.453 191.197 78.1632C191.197 78.7809 191.478 79.081 192.056 79.081C192.394 79.064 192.726 78.9863 193.037 78.8515C193.484 78.6855 193.917 78.4849 194.333 78.2514C194.789 77.9867 195.209 77.722 195.63 77.4396C195.97 77.2139 196.277 76.9405 196.541 76.6277C197.344 75.6245 198.026 74.5284 198.573 73.3625C199.449 71.5976 200.517 69.6385 201.796 67.344C202.327 66.3587 202.911 65.4042 203.548 64.4848C204.074 63.7082 204.511 63.3376 204.879 63.3376C205.14 63.5369 205.341 63.8059 205.458 64.1141C205.614 64.501 205.697 64.9141 205.703 65.332C205.565 65.8472 205.334 66.332 205.02 66.7616C204.564 67.5029 203.986 68.3677 203.268 69.3737C202.549 70.3797 201.779 71.4211 200.938 72.5506C200.097 73.6802 199.308 74.7392 198.538 75.7099C196.786 78.5338 194.876 81.4284 193.002 84.4288C191.127 87.4292 189.34 90.2531 187.448 93.1124C185.556 95.9716 183.647 98.5308 181.65 101.019C179.8 103.362 177.748 105.535 175.518 107.514C173.536 109.259 171.332 110.731 168.966 111.891C166.738 112.955 164.302 113.504 161.836 113.498C160.439 113.52 159.063 113.154 157.859 112.439C157.256 112.027 156.774 111.459 156.465 110.794C156.157 110.129 156.033 109.392 156.107 108.662C156.106 108.235 156.148 107.809 156.23 107.391C156.282 107.036 156.37 106.687 156.493 106.35C156.528 106.229 156.602 106.123 156.703 106.049C156.826 106.049 156.878 106.049 156.878 106.279C156.874 106.976 157.007 107.667 157.268 108.312C157.53 108.957 157.915 109.544 158.402 110.038C159.13 110.695 159.986 111.192 160.915 111.495C161.844 111.799 162.826 111.904 163.798 111.803C165.962 111.776 168.091 111.245 170.017 110.25C172.194 109.111 174.219 107.7 176.044 106.049C178.11 104.194 180.015 102.162 181.737 99.978C183.559 97.6248 185.311 95.2185 186.993 92.7594C188.675 90.3002 190.292 87.7763 191.846 85.1877C193.37 82.6638 194.789 80.2635 196.05 78.0043C196.05 77.7926 196.05 77.722 196.05 77.7749L195.805 77.9337C195.088 78.4957 194.326 78.9975 193.527 79.434C192.621 79.918 191.61 80.1667 190.584 80.1576Z" fill="#54301A"/>
</svg>
