<svg width="563" height="457" fill="none" xmlns="http://www.w3.org/2000/svg"><g clip-path="url(#clip0_3460_31606)"><path d="M290.557 240.212h-20.869v209.693h20.869V240.212z" fill="#7F6344"/><path d="M290.557 240.293h-20.952v7.251h20.952v-7.251z" fill="#54301A"/><path d="M402.296 70.65v99.915l-70.757 70.65H231.464l-70.761-70.65V70.65L231.464 0h100.075l70.757 70.65z" fill="#B89772"/><path d="M402.294 70.65v99.93l-70.761 70.635H231.447l-47.33-47.278C362.048 220.119 363.902 32.31 363.902 32.31l38.392 38.34z" fill="#7F6344"/><path d="M402.293 120.607s-34.014 126.115-170.832 120.608h100.086l70.761-70.65-.015-49.958z" fill="#54301A"/><path d="M390.555 75.506v90.203l-63.88 63.785h-90.349l-63.881-63.785V75.506l63.881-63.785h90.349l63.88 63.785z" stroke="#fff" stroke-width="12" stroke-miterlimit="10"/><path d="M290.557 240.212h-8.377v209.693h8.377V240.212z" fill="#54301A"/><path d="M254.785 128.631c-1.257-.566-2.936-.851-4.993-.851h-1.305V97.886c0-4.763-2.131-7.18-6.331-7.18a4.825 4.825 0 00-3.411 1.333 31.704 31.704 0 00-3.395 4.019l-20.759 27.725-1.445 1.917a30.827 30.827 0 00-1.15 1.643 8.105 8.105 0 00-.86 1.681 4.836 4.836 0 00-.296 1.632c0 2.032.667 3.668 1.983 4.856 1.316 1.188 3.27 1.78 5.835 1.78h19.276v6.895c0 2.043.485 3.62 1.445 4.693a5.366 5.366 0 003.827 1.628 5.385 5.385 0 003.843-1.591c.949-1.044 1.431-2.635 1.431-4.73v-6.877h2.009c2.053 0 3.629-.37 4.682-1.11 1.052-.74 1.649-1.976 1.649-3.612.008-2.017-.674-3.342-2.035-3.957zm-16.844-22.04v21.204h-15.717l15.717-21.204zm56.908-10.318a17.158 17.158 0 00-5.905-3.916 20.1 20.1 0 00-7.466-1.34c-4.129 0-7.74 1.018-10.728 3.017-2.987 1.998-5.293 4.948-6.857 8.76a35.66 35.66 0 00-1.98 8.239 82.121 82.121 0 00-.63 10.688 60.318 60.318 0 00.571 8.557 35.117 35.117 0 001.805 7.266c1.613 4.012 4.048 7.198 7.24 9.471a19.124 19.124 0 0020.484.881 19.684 19.684 0 007.043-7.258 26.135 26.135 0 002.943-8.509c.57-3.673.834-7.387.79-11.103 0-7.891-1.012-14.087-3.01-18.421a22.482 22.482 0 00-4.3-6.332zm-21.185 36.27c-.567-3.09-.856-7.117-.856-11.976 0-7.14.671-12.488 1.99-15.897 1.298-3.331 3.533-4.959 6.836-4.959 2.279 0 4.077.74 5.356 2.198 1.279 1.459 2.254 3.75 2.814 6.703.559 2.954.856 6.921.856 11.644 0 4.985-.274 9.067-.819 12.136-.545 3.068-1.483 5.374-2.78 6.984-1.298 1.61-3.044 2.376-5.338 2.376-2.224 0-3.941-.74-5.238-2.273-1.298-1.532-2.261-3.886-2.821-6.936zm76.458-3.912c-1.257-.566-2.936-.851-4.993-.851h-1.305V97.886c0-4.763-2.132-7.18-6.331-7.18a4.824 4.824 0 00-3.411 1.333 31.704 31.704 0 00-3.395 4.019l-20.759 27.725-1.453 1.917a30.812 30.812 0 00-1.149 1.643 8.105 8.105 0 00-.86 1.681 4.831 4.831 0 00-.275 1.624c0 2.032.668 3.668 1.984 4.856 1.316 1.188 3.251 1.806 5.801 1.806h19.276v6.896c0 2.043.485 3.619 1.446 4.693a5.376 5.376 0 005.908 1.219 5.363 5.363 0 001.761-1.182c.949-1.044 1.431-2.636 1.431-4.73v-6.896h2.009c2.054 0 3.629-.37 4.682-1.11 1.053-.74 1.649-1.976 1.649-3.612.019-2.017-.659-3.342-2.016-3.957zm-16.844-22.04v21.204h-15.717l15.717-21.204z" fill="#fff"/><path d="M435.269 449.257H124.287a3.82 3.82 0 00-3.822 3.816v.111a3.819 3.819 0 003.822 3.816h310.982a3.819 3.819 0 003.822-3.816v-.111a3.82 3.82 0 00-3.822-3.816z" fill="#54301A"/><path d="M130.18 449.257H79.822A3.82 3.82 0 0076 453.073v.111A3.819 3.819 0 0079.822 457h50.358a3.819 3.819 0 003.822-3.816v-.111a3.82 3.82 0 00-3.822-3.816z" fill="#54301A"/><path d="M56.73 449.257H3.822A3.82 3.82 0 000 453.073v.111A3.819 3.819 0 003.822 457H56.73a3.819 3.819 0 003.822-3.816v-.111a3.82 3.82 0 00-3.822-3.816z" fill="#242850"/><path d="M502.404 449.257h-43.43a3.82 3.82 0 00-3.822 3.816v.111a3.819 3.819 0 003.822 3.816h43.43a3.819 3.819 0 003.822-3.816v-.111a3.82 3.82 0 00-3.822-3.816zm56.77 0h-33.032a3.82 3.82 0 00-3.822 3.816v.111a3.819 3.819 0 003.822 3.816h33.032a3.819 3.819 0 003.822-3.816v-.111a3.82 3.82 0 00-3.822-3.816z" fill="#54301A"/><path d="M239.01 434.542H129.227l1.998-7.218 3.899-14.101 2.365-8.534 3.481-12.588 6.713-24.261 3.485-12.587 24.484-88.482h16.937l8.97 32.429 15.51 56.053 3.484 12.587 6.714 24.261 3.484 12.588 6.261 22.635 1.998 7.218z" fill="#B89772"/><path d="M239.01 434.542H129.227l1.998-7.217 3.899-14.101c76.503-4.512 66.435-114.024 66.435-114.024l35.453 128.125 1.998 7.217zm22.463 0H106.766v14.685h154.707v-14.685z" fill="#AB8F73"/><path d="M239.01 434.542H129.227l1.998-7.217h105.787l1.998 7.217z" fill="#54301A"/><path d="M220.562 367.841s-2.302 48.44-58.042 59.521l74.508-.037-16.466-59.484z" fill="#7F6344"/><path d="M220.554 367.841h-72.87l3.484-12.588h65.901l3.485 12.588zm10.196 36.848h-93.262l3.481-12.587h86.297l3.484 12.587z" fill="#fff"/><path d="M225.687 434.542s-20.506 15.459-96.46 14.685H261.47v-14.685h-35.783z" fill="#7F6344"/></g><defs><clipPath id="clip0_3460_31606"><path fill="#fff" d="M0 0h563v457H0z"/></clipPath></defs></svg>