<svg width="20" height="20" fill="none" xmlns="http://www.w3.org/2000/svg"><g clip-path="url(#clip0_1962_10458)"><path d="M16.7 7.258V3.333h-3.916L10 .575 7.26 3.333H3.334v3.925L.575 10l2.759 2.783V16.7h3.925L10 19.458l2.784-2.758H16.7v-3.917L19.46 10 16.7 7.258zM7.36 5.875c.816 0 1.475.658 1.475 1.483A1.475 1.475 0 017.36 8.833a1.474 1.474 0 01-1.484-1.475c0-.825.659-1.483 1.484-1.483zm5.325 8.292a1.48 1.48 0 11.009-2.96 1.48 1.48 0 01-.01 2.96zm-5.6.025l-1.25-1.25 7.108-7.109 1.25 1.25-7.108 7.109z" fill="#fff"/></g><defs><clipPath id="clip0_1962_10458"><path fill="#fff" d="M0 0h20v20H0z"/></clipPath></defs></svg>