<svg width="24" height="25" fill="none" xmlns="http://www.w3.org/2000/svg"><g clip-path="url(#clip0_1716_26588)" fill="#1E1D1B"><path d="M21.5 4.5h-2.166v1.333h2V20.5H2.667V5.833h2V4.5H2.501a1.186 1.186 0 00-1.167 1.207v14.92a1.187 1.187 0 001.167 1.206h19a1.187 1.187 0 001.166-1.206V5.707A1.188 1.188 0 0021.502 4.5z"/><path d="M5.334 9.833h1.333v1.334H5.334V9.833zm4 0h1.333v1.334H9.334V9.833zm4 0h1.333v1.334h-1.333V9.833zm4 0h1.333v1.334h-1.333V9.833zm-12 3.334h1.333V14.5H5.334v-1.333zm4 0h1.333V14.5H9.334v-1.333zm4 0h1.333V14.5h-1.333v-1.333zm4 0h1.333V14.5h-1.333v-1.333zm-12 3.333h1.333v1.333H5.334V16.5zm4 0h1.333v1.333H9.334V16.5zm4 0h1.333v1.333h-1.333V16.5zm4 0h1.333v1.333h-1.333V16.5zM6.667 7.167a.667.667 0 00.666-.667v-4A.667.667 0 106 2.5v4a.667.667 0 00.667.667zm10.666 0a.667.667 0 00.666-.667v-4a.667.667 0 10-1.333 0v4a.667.667 0 00.667.667zM8.666 4.5h6.667v1.333H8.666V4.5z"/></g><defs><clipPath id="clip0_1716_26588"><path fill="#fff" transform="translate(0 .5)" d="M0 0h24v24H0z"/></clipPath></defs></svg>