<svg xmlns="http://www.w3.org/2000/svg" width="220" height="65" fill="none"><g clip-path="url(#clip0_1769_26782)" fill="#fff"><path d="M217.655 36.898h-.09c.204.104.389.242.547.408.82.653.875 1.397.273 2.22-.634.738-1.367.952-2.204.347-1.077-.746-1.033-1.602-.243-2.526.162-.162.346-.299.547-.408a1.544 1.544 0 00-1.034.84 1.51 1.51 0 00.328 1.977 1.846 1.846 0 002.377.191c.325-.208.582-.607 1.069-.421v-1.914c-.681.074-.96-.65-1.57-.714z"/><path d="M218.459 36.857c-.922-.593-1.914-.629-2.789.028a1.915 1.915 0 00-.684 2.414c.419 1.023 1.266 1.318 2.3 1.334.888.014 1.348-.64 1.93-1.115-.486-.186-.743.213-1.069.421a1.842 1.842 0 01-2.376-.191 1.505 1.505 0 01-.328-1.977 1.53 1.53 0 011.033-.84 1.154 1.154 0 011.094-.04h.09c.61.062.889.787 1.548.707a5.021 5.021 0 00-.749-.74zM33.175 63.676a4.192 4.192 0 00-.763-.273c-2.655-.73-2.948-1.094-2.95-3.828V42.09c0-2.03.462-2.513 2.515-2.735.35-.038.966.274 1.004-.322.044-.678-.596-.692-1.094-.695-1.821 0-3.645.044-5.469-.022-1.137-.04-1.742.449-2.135 1.471-1.07 2.779-2.188 5.54-3.303 8.302-1.267 3.14-2.549 6.273-3.902 9.603-.318-.752-.547-1.282-.763-1.818a5579.573 5579.573 0 01-6.536-16.237c-.257-.642-.5-1.296-1.367-1.296H1.715c-.434 0-.885.14-.894.634 0 .58.523.345.82.383 2.59.334 3.216 1.045 3.219 3.719v16.797c.008 2.47-.506 3.055-2.967 3.462-.223.037-.44.1-.648.189-.257.11-.503.287-.446.607.072.4.422.232.657.246 1.35.077 2.658.15 3.99-.421 1.33-.572 2.531.91 3.942.547a8.2 8.2 0 011.354-.12c.547-.047.46-.342.219-.63a1.468 1.468 0 00-.977-.42C7.652 62.97 7.05 62.3 7.042 59.949a2377.27 2377.27 0 010-15.299c0-.208-.21-.547.274-.659a21420.56 21420.56 0 007.555 17.98c.273.68.388 1.79 1.178 1.79.651 0 .804-1.094 1.078-1.739a5684.975 5684.975 0 007.81-18.698c.18.15.245.18.245.21.074 5.869.25 11.737-.117 17.6-.08 1.265-.925 2.034-2.234 2.162-.498.05-1.004.036-1.444.323a.583.583 0 00-.29.571c.046.337.32.233.53.222 1.827-.096 3.736.498 5.442-.64a.389.389 0 01.487-.027c1.698 1.137 3.604.607 5.439.664.21 0 .47.112.53-.221.06-.285-.15-.416-.35-.512zm177.588-25.353c-1.461-.15-2.803.216-4.222.569-1.25.311-2.623-1.02-4.121-.706h-.137c-.407.09-1.058-.093-1.053.547 0 .547.613.572 1.051.665 2.499.524 2.98 1.093 2.985 3.655v12.565c0 .32.197.716-.199.993-.118-.159-.224-.298-.328-.443a8983.075 8983.075 0 01-11.909-16.281c-.53-.722-1.028-1.482-2.089-1.575a32.677 32.677 0 00-5.173 0c-.43.03-.892.11-.911.618-.027.705.583.372.894.396 2.308.173 3.055 1.048 3.115 3.104.169 5.914.169 11.827 0 17.74-.066 2.462-.479 2.683-2.994 3.165a2.216 2.216 0 00-.758.273.653.653 0 00-.221.462c-.017.214.172.274.366.293 1.392.033 2.806.32 4.126-.421.274-.154.493-.498.941-.186 1.285.902 2.756.719 4.206.607.199-.014.489.104.546-.216a.511.511 0 00-.039-.397.5.5 0 00-.319-.24 7.392 7.392 0 00-1.055-.216c-1.611-.178-2.284-.769-2.461-2.366-.583-5.674-.066-11.364-.298-17.155.618.153.716.546.921.82 4.607 6.31 9.212 12.624 13.814 18.938.348.476.679 1.034 1.403.845.859-.221.528-.94.528-1.479.025-6.598.014-13.199.052-19.8 0-2.759.312-3.068 3.038-3.686.131-.03.273-.08.391-.117.325-.096.634-.274.621-.627.005-.475-.43-.314-.711-.344zM99.942 19.346c2.904-3.828 5.401-7.987 8.928-11.331 2.207-2.092 4.589-3.913 7.725-4.217 1.583-.15 3.172-.257 4.703-.654 1.731-.453 3.492-.957 4.662-2.556-.62-.35-1.02.016-1.441.251a13.347 13.347 0 01-7.426 1.791c-3.449-.21-6.804-1.009-10.14-1.81-5.567-1.34-10.968-1.132-16.19 1.335-3.3 1.561-6.24 3.587-7.854 7.016-1.676 3.555.11 7.296 3.9 8.132 1.788.389 3.645.317 5.398-.207 3.497-1.023 6.576-2.678 8.113-6.232 1.255-2.907-.022-5.105-3.164-5.423a7.142 7.142 0 00-6.147 2.215c.683.372 1.028-.054 1.422-.216.667-.273 1.293-.661 1.977-.886 2.11-.686 4.24-.273 5.031.897.878 1.31.481 3.312-1.094 5.075-2.291 2.554-5.258 3.798-8.61 4.13-2.292.226-4.375-.326-5.696-2.401-1.32-2.076-.722-4.138.601-5.932 2.77-3.773 6.596-5.837 11.192-6.521 2.6-.386 5.144 0 7.692.53 2.97.613 5.964 1.094 9.103 1.641-.366.222-.582.383-.82.498-3.801 1.818-6.921 4.479-9.56 7.746-2.677 3.33-4.861 7.02-7.656 10.276-2.25 2.636-4.769 4.827-8.17 5.847-4.332 1.31-8.237.459-10.424-3.58-.126-.232-.243-.632-.686-.43.407 2.511 2.767 4.753 5.493 5.358 2.445.546 4.782.166 7.063-.69 5.083-1.903 8.868-5.422 12.075-9.652zM60.203 63.438c-1.988-.109-2.562-1.624-3.161-3.106A8244.497 8244.497 0 0148.42 38.98c-.232-.571-.287-1.515-.932-1.526-.769-.013-.782.982-1.012 1.567-2.592 6.645-5.108 13.32-7.744 19.961-.77 1.94-1.145 4.375-3.992 4.575-.273.02-.364.252-.377.492-.025.438.317.334.563.367 1.14.142 2.258.134 3.3-.443.298-.167.509-.468.941-.156 1.29.932 2.759.547 4.41.547-.77-.85-.77-.85-1.889-1.053-1.329-.243-1.914-1-1.624-2.313.2-.92.65-1.786.842-2.705.246-1.178.995-1.531 2.054-1.536 1.64 0 3.28-.022 4.922 0 4.328.057 3.437-.646 5.195 3.737.599 1.499-.11 2.574-1.715 2.82-.36.034-.717.093-1.069.175-.3.087-.62.246-.563.656.058.41.427.273.65.334a6.943 6.943 0 004.376-.5c.3-.13.517-.52.96-.209 1.329.933 2.843.766 4.334.627.273-.025.71.216.82-.227.11-.443-.342-.73-.667-.73zM49.99 55.161c-2.587-.03-5.176 0-7.93 0 1.436-3.847 2.827-7.58 4.266-11.427.448.35.52.785.667 1.173 1.19 3.115 2.351 6.238 3.587 9.333.299.722.22.919-.59.91v.011zm132.594 8.212c-1.368-.03-1.991-.954-2.508-1.993-.399-.807-.741-1.641-1.077-2.48a18825.45 18825.45 0 01-8.075-20.11c-.2-.5-.383-1.227-.867-1.25-.547-.024-.763.674-.902 1.215a1.1 1.1 0 01-.041.126c-2.625 6.73-5.215 13.47-7.897 20.174-.758 1.893-1.094 4.28-3.889 4.474a.51.51 0 00-.421.406.512.512 0 000 .206c.085.38.435.22.673.25 1.14.141 2.264.139 3.281-.515.315-.202.569-.298.952-.038 1.077.733 2.308.678 3.536.547.232-.025.598.136.598-.306a.547.547 0 00-.467-.586c-.274-.057-.525-.134-.791-.17-1.933-.245-2.521-1.129-1.941-2.971.241-.774.596-1.518.785-2.303.243-1.003.755-1.395 1.824-1.337 1.725.093 3.459 0 5.195.027 4.044.039 3.383-.497 4.988 3.479.016.04.043.079.06.12.61 1.712 0 2.734-1.797 2.95-.456.058-.916.071-1.282.375a.774.774 0 00-.243.462c-.025.219.164.29.363.273 1.641-.098 3.358.468 4.922-.546.194-.123.378-.337.711-.11 1.605 1.094 3.41.613 5.261.624-.117-.67-.495-.982-.951-.993zm-10.028-8.222a288.47 288.47 0 00-7.109 0c-.667 0-.788-.236-.569-.82 1.343-3.542 2.677-7.088 4.121-10.911 1.457 3.784 2.814 7.323 4.184 10.856.268.686.079.883-.627.875zm-62.9 8.263c-1.889-.05-2.496-1.477-3.057-2.86-2.97-7.318-5.89-14.651-8.84-21.977-.18-.448-.331-1.132-.82-1.143-.49-.01-.589.678-.764 1.13-2.734 7.027-5.474 14.052-8.22 21.074-.688 1.755-1.205 3.716-3.63 3.872a.488.488 0 00-.474.547c0 .423.37.298.61.322 1.135.123 2.256.145 3.295-.46.243-.144.432-.472.82-.182 1.327.99 2.844.689 4.49.598-.413-.907-1.137-.902-1.772-1.033-1.555-.315-2.083-1.094-1.684-2.625.224-.867.607-1.696.82-2.565.274-1.023.938-1.381 1.898-1.384h5.053c4.46.022 3.427-.344 5.1 3.509.036.082.06.17.09.254.52 1.52-.147 2.606-1.744 2.797-.495.06-1.02 0-1.406.397a.782.782 0 00-.197.47c0 .243.205.238.386.232 1.641-.057 3.371.457 4.908-.571a.549.549 0 01.728-.047c1.337.92 2.849.714 4.336.6.274-.023.714.237.774-.255a.681.681 0 00-.428-.653.681.681 0 00-.272-.047zM99.618 55.14h-8.077l4.391-11.734c1.488 3.894 2.85 7.479 4.238 11.056.249.645-.073.68-.552.678zm-17.084.404c-.377-.128-.58.274-.689.517-.273.612-.443 1.274-.673 1.914-1.996 5.54-8.832 6.836-12.753 2.415-1.955-2.202-2.833-4.818-2.967-7.706-.158-3.44.09-6.822 2.166-9.756 1.826-2.584 4.34-3.867 7.525-3.33 3.369.565 5.217 2.496 5.934 5.875.112.528 0 1.094.328 1.586.227.35.457.777.932.586.35-.143.454-.547.375-.947a37.304 37.304 0 01-.76-8.118c0-.547-.24-1.045-.73-1.195-.654-.205-.709.492-.82.858-.337 1.204-1.013 1.174-1.937.692a10.412 10.412 0 00-4.84-1.129c-3.492.044-6.453 1.304-8.82 3.891-2.834 3.09-3.86 6.787-3.627 10.9.293 5.195 2.552 9.168 7.383 11.293 6.106 2.677 12.095.45 14.006-5.833a9.474 9.474 0 00.364-1.714.758.758 0 00-.397-.799zm73.617.542c-.687-.17-.843.547-1.034 1.036-.273.711-.489 1.45-.738 2.174-.618 1.818-1.775 2.959-3.766 3.281-1.914.301-3.828.205-5.717.145-1.135-.038-1.983-.733-1.983-1.999-.014-6.282-.009-12.562.017-18.84 0-1.124.596-1.876 1.72-2.152.609-.15 1.227-.273 1.835-.451a.584.584 0 00.451-.604c0-.301-.274-.348-.498-.334-1.745.107-3.555-.388-5.195.577-.287.17-.517.315-.848.077-1.075-.772-2.324-.654-3.555-.665-.503 0-1.003-.016-1.504 0-.287.014-.719-.15-.795.274-.077.424.306.631.656.74.305.08.617.129.932.148 1.466.164 2.396.985 2.407 2.445.047 6.278.047 12.557 0 18.837-.014 1.641-.873 2.36-2.598 2.535-.457.047-.919.085-1.244.449a.728.728 0 00-.164.484c0 .251.24.194.415.194 1.094 0 2.188.134 3.26 0 1.515-.192 2.904-.498 4.55-.159 2.313.476 4.796.17 7.205.156.943 0 1.914.027 2.784-.47.462-.274.795-.4 1.047.273a.758.758 0 00.927.413.982.982 0 00.714-.908c.098-.626.084-1.271.21-1.89.274-1.418.662-2.816.911-4.24.093-.536.413-1.327-.402-1.526zm-22.94-.112c-.615-.132-.82.432-.985.916-.347.979-.667 1.971-1.052 2.934-.624 1.55-1.737 2.442-3.437 2.718-1.915.309-3.829.2-5.724.186-1.277 0-1.949-.752-2.086-2.043-.273-2.409-.126-4.82-.12-7.23 0-3.773-.148-7.552.139-11.326.126-1.67.864-2.46 2.502-2.65.313-.035.623-.09.93-.16a.651.651 0 00.574-.665c-.035-.473-.478-.34-.752-.323-1.739.101-3.555-.405-5.168.703a.483.483 0 01-.615-.033c-1.121-.785-2.412-.68-3.681-.68h-1.64c-.208 0-.487-.11-.566.204a.576.576 0 00.358.662c.283.139.587.23.899.274 2.111.314 2.787.987 2.798 3.076.029 6.016.029 12.025 0 18.028 0 1.64-.774 2.46-2.461 2.707a2.764 2.764 0 00-1.384.49c-.145.117-.273.22-.232.434.041.213.249.208.424.208 1.178 0 2.365.098 3.535 0 1.381-.126 2.614-.49 4.159-.156 2.434.522 5.062.137 7.605.153.82 0 1.659 0 2.392-.4.569-.308.842-.428 1.264.29.421.72 1.427.406 1.528-.546.233-2.215.892-4.342 1.214-6.533.085-.511.244-1.096-.418-1.238zm-10.13-39.059a17.474 17.474 0 00-7.629 5.97c-1.526 2.143-3.798 3.177-5.909 4.478-.23.145-.547.274-.744.02-.197-.255-.066-.52.12-.739.465-.547.919-1.126 1.417-1.64 1.865-1.988 4.066-3.66 5.644-5.915.432-.632 1.033-1.315.404-2.103-.574-.727-1.424-.41-2.168-.35-.298.025-.577.255-.875.356-1.545.547-2.981 1.331-4.484 1.974 2.444-2.551 4.922-5.023 7.656-7.21 1.794-1.43 3.5-2.981 5.822-4.23-2.461-.209-4.209.767-5.825 1.984a78.605 78.605 0 00-9.163 8.157c-2.535 2.611-4.99 5.302-6.798 8.493-.366.648-.905 1.608-.183 2.084.676.445.968-.66 1.422-1.094.184-.201.346-.421.484-.656 2.781-4.06 6.563-6.853 11.066-8.731.438-.183.862-.547 1.408-.312.093.503-.298.727-.582.993-.93.87-1.887 1.711-2.811 2.586-1.419 1.34-2.939 2.598-3.828 4.395-.41.82-.911 1.722-.2 2.537.711.815 1.663.391 2.521.069 1.389-.523 2.593-1.392 3.878-2.188.456 2.549 1.132 2.983 3.555 2.264 3.161-.932 5.359-3.281 7.763-5.343.15-.131.109-.325-.2-.528-1.676 1.294-3.391 2.623-5.111 3.94-.907.695-1.87 1.267-3.049 1.387-.371.038-.787.15-1.017-.159a.975.975 0 01.074-1.15c.607-.849 1.266-1.658 1.876-2.506.927-1.285 1.969-2.245 3.724-2.318 1.217-.052 2.33-.725 3.314-1.46.935-.695 2.04-1.414 1.753-2.8-.156-.818-1.72-.93-3.325-.255zm-2.672 3.935c1.551-1.263 2.984-2.694 4.922-3.418-1.096 1.909-2.704 3.109-4.922 3.418z"/><path d="M216.522 39.023c.246-.353.61-.43 1.151-.101-.189-.391.044-.82.148-1.217a2.073 2.073 0 01-1.485-.274c.212.503.276 1.055.186 1.592z"/><path d="M216.334 37.431c-.049-.032-.101-.062-.15-.1l.049 2.427a2.1 2.1 0 01.273-.735 2.869 2.869 0 00-.172-1.592zm1.338 1.491c-.547-.328-.905-.252-1.151.1a9.94 9.94 0 01-.08.498.688.688 0 01-.136.222c.448-.12.273-.662.514-.878.465-.087.495.936 1.094.372a.9.9 0 01-.241-.314z"/><path d="M216.442 39.52c.03-.164.058-.33.079-.497a2.108 2.108 0 00-.273.735l.071-.016a.676.676 0 00.123-.221zm1.229-.598l.156.106c-.126-.478.41-.894.249-1.367-.088.02-.172.038-.257.052-.104.4-.337.818-.148 1.209z"/><path d="M217.926 39.236a.76.76 0 01-.098-.208l-.156-.106a.91.91 0 00.254.314zm-1.591-1.805a2.07 2.07 0 001.485.274l.016-.071a.967.967 0 01.068-.112c-.5-.32-1.093-.18-1.64-.19l.035.031c.019.022.025.047.036.068z"/><path d="M216.334 37.431c0-.021-.016-.046-.027-.068l-.036-.03h-.087c.049.036.101.066.15.098zm1.486.274c.085 0 .17-.033.257-.052a1.41 1.41 0 00-.172-.131.975.975 0 00-.068.112l-.017.07z"/></g><defs><clipPath id="clip0_1769_26782"><path fill="#fff" transform="translate(.799)" d="M0 0h218.404v65H0z"/></clipPath></defs></svg>