<svg width="81" height="80" fill="none" xmlns="http://www.w3.org/2000/svg"><g clip-path="url(#clip0_4352_31165)" fill="#1AAD19"><path d="M40.5 0C18.443 0 .5 17.943.5 40s17.943 40 40 40 40-17.946 40-40-17.943-40-40-40zm0 73.803C21.863 73.803 6.697 58.64 6.697 40c0-18.64 15.166-33.803 33.803-33.803C59.14 6.197 74.303 21.36 74.303 40c0 18.64-15.166 33.803-33.803 33.803z"/><path d="M58.851 26.088a3.1 3.1 0 00-4.375.211l-18.9 20.812-9.13-9.283a3.095 3.095 0 00-4.382-.037 3.095 3.095 0 00-.037 4.381l11.43 11.62a3.095 3.095 0 002.209.925c.018 0 .04 0 .059.004a3.1 3.1 0 002.234-1.017L59.06 30.467a3.1 3.1 0 00-.21-4.379z"/></g><defs><clipPath id="clip0_4352_31165"><path fill="#fff" transform="translate(.5)" d="M0 0h80v80H0z"/></clipPath></defs></svg>