<svg width="24" height="24" fill="none" xmlns="http://www.w3.org/2000/svg"><path d="M12.09 17.559l-.09.087-.099-.087C7.626 13.8 4.8 11.315 4.8 8.796c0-1.744 1.35-3.052 3.15-3.052 1.386 0 2.736.872 3.213 2.058h1.674c.477-1.186 1.827-2.058 3.213-2.058 1.8 0 3.15 1.308 3.15 3.052 0 2.52-2.826 5.005-7.11 8.763zM16.05 4A5.486 5.486 0 0012 5.814 5.486 5.486 0 007.95 4C5.178 4 3 6.101 3 8.796c0 3.287 3.06 5.981 7.695 10.053L12 20l1.305-1.151C17.94 14.777 21 12.083 21 8.796 21 6.1 18.822 4 16.05 4z" fill="#1C1D1D"/></svg>