<svg width="146" height="105" fill="none" xmlns="http://www.w3.org/2000/svg"><g clip-path="url(#clip0_2480_22773)"><path d="M145.5 88.611a16.107 16.107 0 01-16.111 16.111H16.611A16.109 16.109 0 01.5 88.612v-72.5A16.111 16.111 0 0116.611 0H129.39a16.11 16.11 0 0116.11 16.111v72.5z" fill="#DE2910"/><path d="M79.55 15.31c-2.433-1.266-5.192-1.938-8.197-1.25-3.65.838-8.1 4.624-9.312 9.023-.572 2.074-1.052 3.907-1.023 5.602.02 1.168.016 3.118.157 5.043.096 1.366.777 4.314 1.856 6.916l.069-.024c.592 1.977 2.55 5.047 4.467 7.564 2.199 2.888 3.919 4.189 4.265 4.185a2.27 2.27 0 01-.652-.552c-1.257-1.575-2.514-4.447-2.772-6.392-.499-3.798.145-6.545 1.197-9.844.261-.826.805-1.063 1.164-.85.028.016.044.052.072.077.222.205.359.58.161 1.264-.503 1.764-1.736 6.203-1.08 9.353.605 2.904 1.467 4.636 2.486 5.86a10.29 10.29 0 01-.898-4.003c-.016-.903-.093-1.797.358-2.606.758-1.358 1.861-2.087 3.138-2.776.882-.475 1.712-1.123 2.473-1.61 3.464-2.208 4.628-6.574 4.531-8.338l-.084-1.317c.072-.48-.145-1.797-.721-3.118a14.725 14.725 0 00-1.66-2.71c-.278-.383-.435-.822-.588-1.092-.592-1.027-.592-2.191-.584-2.928.004-.87.117-.97.367-1.386.197-.33.41-.777 1.08-1.136.49-.257 1.598-.18 2.25.154.556.277.661.253.947.41.258.141.93.496.89.355-.157-.532-2.106-2.707-4.358-3.875zM64.492 55.05c-3.79-.52-6.275-1.865-9.183-3.75-.72-.467-.814-1.05-.524-1.34l.025-.013c.237-.21.668-.266 1.337.137 1.575.95 5.53 3.307 8.74 3.508 2.614.161 4.378-.125 5.76-.648a10.66 10.66 0 01-3.585-.274c-.874-.23-1.756-.399-2.416-1.047-1.1-1.092-1.507-2.353-1.83-3.77-.22-.98-.62-1.95-.885-2.816-1.188-3.931-5.08-6.23-6.807-6.613l-1.29-.27c-.442-.202-1.771-.339-3.197-.15-1.048.179-2.073.47-3.057.87-.447.17-.907.198-1.209.275-1.151.294-2.271-.02-2.976-.226-.838-.242-.906-.379-1.237-.733-.265-.278-.64-.596-.805-1.341-.117-.54.258-1.587.753-2.127.419-.451.423-.564.648-.801.206-.214.73-.762.58-.758-.547 0-3.165 1.29-4.893 3.142-1.877 2.006-3.27 4.479-3.416 7.556-.173 3.742 2.272 9.05 6.179 11.407 1.837 1.103 3.476 2.066 5.12 2.493 1.13.294 3.004.826 4.897 1.212 1.341.27 4.362.42 7.157.08v-.076c2.067-.036 5.547-1.095 8.483-2.255 3.71-1.474 5.522-2.965 5.248-3.102l-.048.04c-.037.04-.105.053-.178.065-.157.117-.261.242-.503.346-1.84.79-4.946 1.25-6.888.98zm10.134 4.717c-.245-3.48-.918-5.47-1.232-5.796.024.105.072.153.088.274.246 1.997-.189 5.103-.994 6.895-1.567 3.492-3.557 5.494-6.183 7.762-.435.37-.862.479-1.16.398a.492.492 0 01-.379-.378c-.06-.29.097-.709.605-1.172 1.353-1.245 4.732-4.37 5.828-7.403.846-2.349 1.083-4.064 1.007-5.498a10.407 10.407 0 01-1.382 3.512c-.48.761-.906 1.55-1.728 1.982-1.373.72-2.698.725-4.144.596-.995-.08-2.047.008-2.953-.008-4.108-.057-7.475 2.956-8.361 4.487l-.649 1.148c-.326.358-.858 1.583-1.104 3-.189 1.068-.149 2.256-.1 3.178.024.475-.089.923-.105 1.237-.072 1.184-.709 2.159-1.12 2.77-.483.722-.632.746-1.067.956-.342.165-.765.426-1.526.362-.548-.052-1.434-.725-1.797-1.361-.306-.536-.41-.572-.568-.862-.14-.258-.503-.927-.548-.782-.165.524.27 3.412 1.51 5.615 1.346 2.4 3.283 4.47 6.175 5.542 3.509 1.297 9.309.576 12.736-2.44 1.615-1.418 3.025-2.695 3.931-4.125.625-.987 1.696-2.61 2.639-4.298.664-1.192 1.711-4.036 2.239-6.799l-.069-.02c.585-1.977.633-5.615.411-8.772z" fill="#fff"/><path d="M99.146 71.162c-.73-2.026-1.394-3.798-2.4-5.168-.69-.942-1.81-2.533-3.038-4.031-.866-1.056-3.121-3.07-5.506-4.576l-.036.056c-1.631-1.268-4.999-2.646-8.015-3.596-3.154-.991-5.28-1.148-5.853-1.015.296-.031.594-.003.878.084 1.934.568 4.608 2.212 5.933 3.658 2.582 2.831 3.617 5.453 4.652 8.764.262.834-.056 1.345-.483 1.357-.012 0-.012.02-.024.02-.02 0-.024-.024-.036-.032-.303-.028-.64-.258-.879-.95-.6-1.736-2.126-6.078-4.466-8.294-2.155-2.034-3.855-2.96-5.394-3.387-.285-.077-.434-.201-.588-.318-.02.016-.04.012-.06.036l.576.342c.802.431 2.086 1.447 3.045 2.752.528.733 1.108 1.417 1.208 2.34.166 1.538-.314 2.77-.954 4.08-.443.898-.75 1.905-1.092 2.743-1.559 3.798.008 8.035 1.108 9.42l.83 1.028c.217.435 1.16 1.381 2.388 2.126.922.568 2.046.963 2.928 1.265.447.15.822.415 1.108.548 1.075.495 1.748 1.45 2.167 2.058.495.713.463.862.5 1.345.028.379.112.866-.226 1.547-.25.491-1.2 1.071-1.921 1.18-.613.085-.685.17-1.011.21-.29.036-1.052.128-.927.225.423.347 3.27.999 5.776.653 2.727-.37 5.365-1.418 7.42-3.71 2.488-2.807 3.934-8.47 2.392-12.76z" fill="#fff"/><path d="M109.291 38.945c-1.998-3.166-7.037-6.118-11.592-5.816-2.135.145-4.032.298-5.619.882-1.1.403-2.94 1.039-4.712 1.808-1.257.544-3.81 2.163-5.913 4.036l.044.053c-1.675 1.216-3.93 4.076-5.67 6.714-1.833 2.775-2.538 4.716-2.558 5.288.056-.23.108-.463.293-.761 1.072-1.708 3.376-3.834 5.132-4.717 3.424-1.711 6.227-2.005 9.69-2.102.875-.024 1.278.415 1.18.826a.559.559 0 01-.1.185c-.165.23-.467.431-1.091.463-1.829.105-6.425.399-9.188 2.05-2.545 1.527-3.899 2.912-4.724 4.274a1.478 1.478 0 01-.471.487c.007.02 0 .036.016.06l.491-.463c.632-.648 1.966-1.603 3.48-2.167.846-.314 1.668-.68 2.586-.523 1.526.262 2.582 1.067 3.653 2.046.745.673 1.627 1.245 2.332 1.8 3.23 2.542 7.737 2.203 9.373 1.53l1.216-.519c.471-.084 1.64-.733 2.703-1.707.793-.733 1.486-1.696 2.01-2.461.269-.395.628-.677.837-.915.774-.898 1.873-1.28 2.57-1.518.822-.278.955-.206 1.43-.105.375.077.866.125 1.426.64.407.375.701 1.45.596 2.175-.085.613-.016.705-.073 1.028-.048.29-.157 1.043-.036.954.447-.314 1.861-2.872 2.219-5.377.387-2.719.113-5.542-1.53-8.148z" fill="#fff"/><path d="M72.156 29.072l-1.474 2.224-2.526-.593-.068-.016 1.655 2.09-1.345 2.216-.036.064 2.501-.93 1.744 2.022-.117-2.67 2.393-1.007.068-.029-2.573-.712-.222-2.659zM53.713 45.425l-.008-.072-1.378 2.283-2.626-.503 1.744 2.022-1.248 2.271-.037.065 2.461-1.035 1.773 1.889.052.056-.226-2.658 2.349-1.104.068-.032-2.598-.608-.326-2.574zm41.68-.773l-2.59-.657-.282-2.654-1.422 2.255-2.542-.535-.068-.016 1.703 2.054-1.3 2.247-.033.065 2.477-.991 1.736 1.93.053.052-.17-2.663 2.369-1.055.068-.032zm-31.578 22.49l-.009-.068-1.369 2.288-2.546-.471-.072-.016 1.752 2.01-1.232 2.283-.037.065 2.453-1.051 1.785 1.88.052.057-.242-2.654 2.344-1.124.065-.032-2.602-.588-.342-2.578zm23.268-2.041l-.004-.073-1.502 2.212-2.518-.629-.072-.016 1.631 2.11-1.373 2.204-.037.06 2.51-.902 1.663 1.986.048.06-.072-2.666 2.4-.979.073-.024-2.562-.75-.185-2.593z" fill="#DE2910"/></g><defs><clipPath id="clip0_2480_22773"><path fill="#fff" transform="translate(.5)" d="M0 0h145v105H0z"/></clipPath></defs></svg>