<svg width="24" height="24" fill="none" xmlns="http://www.w3.org/2000/svg"><path d="M12 2.32c3.155 0 3.525.014 4.772.07 1.154.052 1.777.244 2.194.408.554.216.947.47 1.36.882.413.412.67.806.881 1.36.16.416.356 1.04.408 2.193.056 1.247.07 1.617.07 4.772 0 3.156-.014 3.525-.07 4.773-.052 1.153-.244 1.776-.408 2.193a3.675 3.675 0 01-.881 1.36c-.413.413-.806.67-1.36.881-.417.16-1.04.357-2.194.408-1.247.057-1.617.07-4.772.07-3.155 0-3.525-.013-4.772-.07-1.153-.051-1.777-.243-2.194-.408a3.674 3.674 0 01-1.36-.88 3.604 3.604 0 01-.88-1.36c-.16-.418-.357-1.04-.409-2.194-.056-1.248-.07-1.617-.07-4.773 0-3.155.014-3.525.07-4.772.052-1.153.244-1.777.408-2.194.215-.552.469-.947.881-1.36.413-.412.807-.67 1.36-.88.417-.16 1.041-.357 2.194-.409 1.246-.06 1.617-.07 4.772-.07zm0-2.13c-3.206 0-3.61.015-4.87.07-1.257.057-2.115.259-2.865.55a5.76 5.76 0 00-2.09 1.363A5.852 5.852 0 00.81 4.265c-.29.75-.492 1.608-.548 2.87C.206 8.39.192 8.793.192 12c0 3.206.014 3.61.07 4.87.056 1.257.258 2.115.548 2.87.3.778.708 1.434 1.364 2.09a5.851 5.851 0 002.091 1.365c.75.29 1.608.492 2.87.548 1.26.056 1.659.07 4.87.07 3.21 0 3.61-.014 4.87-.07 1.256-.056 2.114-.258 2.869-.548a5.753 5.753 0 002.09-1.365 5.85 5.85 0 001.365-2.09c.29-.75.492-1.609.548-2.87.057-1.26.07-1.658.07-4.87 0-3.211-.013-3.61-.07-4.87-.056-1.257-.258-2.115-.548-2.87a5.754 5.754 0 00-1.364-2.09A5.851 5.851 0 0019.744.806c-.75-.29-1.608-.492-2.869-.549C15.61.206 15.206.191 12 .191z" fill="#1E1D1B"/><path d="M12 5.935a6.066 6.066 0 000 12.13A6.07 6.07 0 0018.064 12a6.07 6.07 0 00-6.066-6.066zm0 10.003a3.937 3.937 0 110-7.875 3.937 3.937 0 010 7.875zm7.72-10.242a1.416 1.416 0 11-2.832.002 1.416 1.416 0 012.832-.002z" fill="#1E1D1B"/></svg>