<svg width="16" height="16" fill="none" xmlns="http://www.w3.org/2000/svg"><path d="M8 1.548c2.103 0 2.35.01 3.182.047.769.034 1.184.162 1.462.272.37.143.631.312.907.587.275.275.447.538.587.907.106.278.238.693.272 1.462.038.831.047 1.078.047 3.182 0 2.103-.01 2.35-.047 3.181-.034.77-.162 1.185-.272 1.463a2.45 2.45 0 01-.587.906 2.397 2.397 0 01-.907.588c-.278.106-.693.237-1.462.272-.832.037-1.078.047-3.182.047-2.103 0-2.35-.01-3.181-.047-.769-.035-1.185-.163-1.463-.272a2.45 2.45 0 01-.906-.588 2.403 2.403 0 01-.588-.906c-.106-.278-.237-.694-.272-1.463-.037-.831-.047-1.078-.047-3.181 0-2.104.01-2.35.047-3.182.035-.768.163-1.184.272-1.462.144-.369.313-.632.588-.907.275-.275.537-.447.906-.587.278-.106.694-.238 1.463-.272.83-.04 1.078-.047 3.181-.047zm0-1.42c-2.137 0-2.406.01-3.247.048-.837.037-1.41.172-1.91.365a3.84 3.84 0 00-1.393.91 3.901 3.901 0 00-.91 1.394c-.193.5-.328 1.072-.365 1.912-.038.838-.047 1.107-.047 3.244 0 2.138.01 2.407.047 3.247.037.838.172 1.41.365 1.913.2.519.472.956.91 1.394.437.437.878.706 1.394.91.5.193 1.072.327 1.912.365.84.037 1.107.047 3.247.047 2.14 0 2.407-.01 3.247-.047.838-.038 1.41-.172 1.913-.366.519-.2.956-.472 1.394-.91.437-.437.706-.877.91-1.393.193-.5.327-1.072.365-1.913.037-.84.047-1.106.047-3.247 0-2.14-.01-2.406-.047-3.247-.038-.837-.172-1.41-.366-1.912a3.836 3.836 0 00-.91-1.394 3.901 3.901 0 00-1.393-.91C12.663.345 12.09.21 11.25.173 10.406.138 10.138.129 8 .129z" fill="#fff"/><path d="M8 3.956a4.044 4.044 0 000 8.087A4.046 4.046 0 0012.043 8 4.046 4.046 0 008 3.955zm0 6.669a2.625 2.625 0 110-5.25 2.625 2.625 0 010 5.25zm5.147-6.828a.944.944 0 11-1.888 0 .944.944 0 011.888 0z" fill="#fff"/></svg>