<svg width="214" height="119" fill="none" xmlns="http://www.w3.org/2000/svg"><path d="M23.463 72.652v.107a.525.525 0 00-.23.091.518.518 0 00-.154.198l-.23.533-1.537 3.896h-.139l-1.183-3.044-1.306 3.044h-.123l-1.536-3.85a4.539 4.539 0 00-.323-.716.54.54 0 00-.338-.152v-.107h2.075v.107a.696.696 0 00-.338.091.212.212 0 000 .168 1.5 1.5 0 00.184.563l.922 2.298.768-1.796-.2-.502a4.847 4.847 0 00-.246-.563.383.383 0 00-.2-.183.698.698 0 00-.337 0v-.183h2.304v.107h-.353a.2.2 0 00-.108.091.166.166 0 000 .122c.038.171.089.34.154.502l.876 2.237.783-2.024.154-.441v-.198a.257.257 0 00-.107-.228s-.185-.092-.37-.107v-.06h1.138zm2.658 4.597v.121h-2.52v-.121h.154c.11.037.229.037.338 0a.304.304 0 00.139-.168 1.221 1.221 0 000-.441v-3.196a1.283 1.283 0 000-.442s0-.121-.154-.167a.838.838 0 00-.323 0h-.153v-.183h2.52v.107h-.17a1.01 1.01 0 00-.322 0 .55.55 0 00-.154.167v4.018c.047.066.11.118.184.153a.45.45 0 00.292 0l.17.152zm1.859-4.597l2.35 2.922V73.55a.89.89 0 00-.123-.578.692.692 0 00-.568-.213v-.107h1.536v.107a1.547 1.547 0 00-.4.106.412.412 0 00-.168.214 1.511 1.511 0 000 .471v3.927h-.108l-3.242-3.942v3.044a.649.649 0 00.185.548c.126.1.283.155.445.152h.108v.122h-1.69v-.122a.773.773 0 00.538-.167.714.714 0 00.169-.533v-3.318l-.108-.122a.825.825 0 00-.261-.258 1.553 1.553 0 00-.338 0v-.229h1.674zm5.3.274v1.857h.092a.776.776 0 00.66-.29c.166-.242.256-.528.262-.82h.138v2.465h-.138a1.944 1.944 0 00-.17-.67.764.764 0 00-.322-.335c-.165-.07-.344-.1-.522-.091v1.324a1.507 1.507 0 000 .487.181.181 0 00.107.137c.1.03.207.03.307 0h.277c.383.018.76-.09 1.076-.304a1.72 1.72 0 00.568-.944h.138l-.215 1.522h-4.071v-.122h.153c.11.035.228.035.338 0a.305.305 0 00.139-.167 1.373 1.373 0 000-.442v-3.09a2.05 2.05 0 000-.38.304.304 0 00-.123-.198.665.665 0 00-.37-.106h-.153v-.107h3.995v1.385h-.107a1.515 1.515 0 00-.308-.776.985.985 0 00-.522-.32 2.56 2.56 0 00-.738 0l-.491-.015zm6.162-.38v1.522h-.108a1.714 1.714 0 00-.507-.959 1.328 1.328 0 00-.875-.35.789.789 0 00-.554.183.578.578 0 00-.215.426.438.438 0 00.077.29c.083.128.193.237.323.319.246.154.503.291.768.41a3.29 3.29 0 011.122.777c.192.231.296.522.291.822a1.345 1.345 0 01-.46 1.02 1.647 1.647 0 01-1.184.426 1.958 1.958 0 01-.43 0l-.507-.168a.853.853 0 00-.276-.076.325.325 0 00-.185.076.473.473 0 00-.169.214h-.138v-1.781h.138c.058.438.27.843.6 1.141.255.247.596.388.952.396a.958.958 0 00.63-.213.7.7 0 00.23-.502.847.847 0 00-.092-.32 1.206 1.206 0 00-.276-.29 2.773 2.773 0 00-.645-.364 4.816 4.816 0 01-.938-.548 2.183 2.183 0 01-.445-.487 1.375 1.375 0 01-.154-.61 1.329 1.329 0 01.43-.973 1.536 1.536 0 011.06-.38c.149-.016.298-.016.446 0 .14.036.275.093.4.167.106.052.22.088.338.106a.155.155 0 00.138 0 .514.514 0 00.107-.258l.108-.016zm6.376 2.007h1.537v.122a.88.88 0 00-.4.152c-.15.152-.274.327-.368.518a6.094 6.094 0 01-.63.883c.18.168.376.32.584.456.101.02.205.02.307 0a.633.633 0 00.492-.335l.122.076c-.13.314-.342.587-.614.792a.85.85 0 01-.569.182 1.239 1.239 0 01-.522-.106 2.963 2.963 0 01-.6-.442 3.576 3.576 0 01-.829.427c-.259.078-.528.12-.799.121a1.546 1.546 0 01-1.076-.35 1.141 1.141 0 01-.384-.852c-.001-.34.131-.668.37-.913a3.076 3.076 0 011.105-.67 1.512 1.512 0 01-.153-.426 2.136 2.136 0 010-.426 1.193 1.193 0 01.384-.928 1.452 1.452 0 011.014-.366c.28-.013.556.067.783.228a.731.731 0 01.277.579.801.801 0 01-.292.67 2.44 2.44 0 01-.922.517 7.509 7.509 0 001.168 1.522c.279-.256.458-.6.507-.974a.333.333 0 00-.215-.228.479.479 0 00-.292-.122l.015-.107zm-2.258.366c-.141.06-.27.141-.384.243a.727.727 0 00-.17.441c.003.233.072.46.2.655.114.2.271.371.461.502a.959.959 0 00.538.168c.102.02.206.02.307 0l.354-.168a7.323 7.323 0 01-1.306-1.841zm.86-.594c.185-.055.354-.154.492-.29a.574.574 0 00.123-.364 1.118 1.118 0 00-.215-.67.429.429 0 00-.323-.168.448.448 0 00-.292.122.545.545 0 00-.123.35c-.02.121-.02.245 0 .366.108.137.2.35.338.654zm8.344-1.778v1.522h-.138a1.623 1.623 0 00-.507-.959 1.328 1.328 0 00-.86-.35.82.82 0 00-.57.183.518.518 0 00-.199.426.421.421 0 000 .289c.083.129.193.238.323.32.246.154.503.29.768.41.426.183.813.447 1.137.777.181.236.279.525.276.822a1.343 1.343 0 01-.46 1.02 1.647 1.647 0 01-1.184.425 1.97 1.97 0 01-.43 0 3.811 3.811 0 01-.491-.167.911.911 0 00-.292-.076.324.324 0 00-.185.076.472.472 0 00-.169.213h-.123v-1.78h.123c.073.43.277.828.584 1.14.266.241.609.381.968.397a.88.88 0 00.615-.213.626.626 0 00.153-.822 1.206 1.206 0 00-.276-.29 2.777 2.777 0 00-.645-.365 5.35 5.35 0 01-.938-.548 1.786 1.786 0 01-.43-.487 1.193 1.193 0 01-.154-.609 1.313 1.313 0 01.415-.974 1.549 1.549 0 011.045-.38 2.22 2.22 0 01.461 0c.14.037.275.093.4.167.106.053.22.089.337.107a.17.17 0 00.139 0 .71.71 0 00.107-.259l.2-.015zm2.549 2.678v1.324c-.036.16-.036.327 0 .487a.367.367 0 00.154.152c.152.033.309.033.46 0v.122H53.5v-.122a.96.96 0 00.446 0 .337.337 0 00.169-.152 1.507 1.507 0 000-.487v-3.044a1.508 1.508 0 000-.487.274.274 0 00-.17-.152.961.961 0 00-.445 0v-.213h2.074a2.354 2.354 0 011.537.35 1.159 1.159 0 01.445.913c0 .29-.103.57-.292.791a1.54 1.54 0 01-.799.442 5.29 5.29 0 01-1.152.076zm0-2.298v2.024h.184a.868.868 0 00.661-.259c.16-.226.237-.5.215-.776.022-.27-.054-.54-.215-.76a.893.893 0 00-.691-.244l-.154.015zm4.964 4.322v.121h-2.489v-.121h.17a.558.558 0 00.322 0 .305.305 0 00.138-.168 1.743 1.743 0 000-.441v-3.196a1.852 1.852 0 000-.442s-.077-.121-.154-.167a.823.823 0 00-.307 0h-.169v-.183h2.49v.107h-.154a1.01 1.01 0 00-.339 0 .366.366 0 00-.138.167 1.345 1.345 0 000 .442v3.12a1.326 1.326 0 000 .456s0 .107.154.153a.511.511 0 00.322 0l.154.152zm2.013-2.039v1.339c-.037.16-.037.326 0 .487 0 0 .076.106.153.152.147.033.299.033.445 0v.122h-2.381v-.122c.152.033.309.033.46 0a.367.367 0 00.154-.152 1.508 1.508 0 000-.487v-3.044a1.505 1.505 0 000-.472.535.535 0 00-.153-.167 1.555 1.555 0 00-.461 0v-.213h2.228a4.9 4.9 0 011.244.106c.261.085.495.237.676.442.163.22.25.487.246.76a1.058 1.058 0 01-.369.822 1.65 1.65 0 01-.676.335l1.153 1.522c.084.145.187.278.307.396a.557.557 0 00.338.106v.137h-1.536l-1.537-2.16-.292.09zm0-2.299v2.055h.199c.25.019.5-.012.737-.091a.57.57 0 00.37-.305c.11-.183.164-.395.153-.608a1.025 1.025 0 00-.261-.792 1.129 1.129 0 00-.815-.259h-.384z" fill="#54301A"/><path d="M68.127 77.249v.121h-2.49v-.121h.17a.512.512 0 00.322 0 .26.26 0 00.139-.168.933.933 0 000-.441v-3.196a.979.979 0 000-.442.242.242 0 00-.139-.167.916.916 0 00-.322 0h-.17v-.183h2.49v.107h-.154a.838.838 0 00-.323 0 .411.411 0 00-.153.167 2.375 2.375 0 000 .442v3.12a2.307 2.307 0 000 .456c.04.066.1.118.169.153.1.034.208.034.307 0l.154.152zm4.656-4.597v1.279h-.123a2.313 2.313 0 00-.246-.64.966.966 0 00-.384-.304 1.18 1.18 0 00-.476 0h-.338v3.638a1.513 1.513 0 000 .456.367.367 0 00.154.152.512.512 0 00.322 0h.154v.122h-2.459v-.122h.154c.11.035.228.035.338 0 0 0 .092-.09.138-.167a1.222 1.222 0 000-.441v-3.699h-.338a1.005 1.005 0 00-.706.198c-.22.215-.357.501-.385.807h-.138v-1.279h4.333zm3.566-.105v1.522h-.154a1.623 1.623 0 00-.507-.959 1.297 1.297 0 00-.86-.35.82.82 0 00-.569.183.58.58 0 00-.215.426.544.544 0 00.077.289c.083.129.193.237.323.32.246.154.503.29.768.41a3.38 3.38 0 011.137.777 1.313 1.313 0 01-.184 1.842 1.648 1.648 0 01-1.184.425 1.735 1.735 0 01-.414 0l-.507-.167a.853.853 0 00-.277-.076.37.37 0 00-.2.076.61.61 0 00-.169.213h-.123v-1.78h.123c.071.434.281.834.6 1.14.257.245.596.386.952.397a.929.929 0 00.63-.213.592.592 0 00.138-.822 1.113 1.113 0 00-.261-.29c-.2-.147-.416-.27-.645-.365a5.617 5.617 0 01-.953-.548 2.092 2.092 0 01-.43-.487 1.194 1.194 0 01-.154-.609 1.313 1.313 0 01.415-.974c.292-.255.67-.39 1.06-.38a2.1 2.1 0 01.446 0c.144.04.283.096.415.167.102.05.21.086.322.107a.155.155 0 00.139 0 .514.514 0 00.107-.259l.154-.015z" fill="#54301A"/><path d="M49.167 37.754a.527.527 0 01-.368 0 .219.219 0 01-.148-.073.211.211 0 01-.052-.156c.2-.502.369-1.11.569-1.826.2-.715.353-1.355.476-1.918.034-.331.158-.647.358-.915.2-.268.469-.477.779-.607a43.236 43.236 0 015.5-2.435 48.246 48.246 0 016.146-1.78 58.672 58.672 0 0111.6-1.111 32.55 32.55 0 0111.555 1.628 5.927 5.927 0 013.056 2.233 5.835 5.835 0 011.062 3.611 7.938 7.938 0 01-1.368 4.246 15.43 15.43 0 01-3.84 4.08 23.408 23.408 0 01-6.132 3.135 31.387 31.387 0 01-7.682 1.887c-.568 0-.753.32-.568.746 1.198 2.191 2.847 4.92 4.947 8.188a255.511 255.511 0 007.13 10.41 52.862 52.862 0 004.609 5.433 35.165 35.165 0 005.623 4.566 28.434 28.434 0 006.453 3.242 21.385 21.385 0 007.13 1.202 24.1 24.1 0 0011.231-2.892c.369-.243.569-.182.569.198a.446.446 0 01-.384.457 34.528 34.528 0 01-6.315 2.572 24.807 24.807 0 01-7.083.974c-3.178.05-6.35-.309-9.434-1.065a25.346 25.346 0 01-7.468-3.318 31.9 31.9 0 01-6.453-5.799 81.833 81.833 0 01-6.36-8.538c-.63-.99-1.399-2.222-2.275-3.698-.876-1.477-1.782-3.044-2.735-4.566a117.808 117.808 0 01-2.689-4.566 102.609 102.609 0 00-2.12-3.592c0-.243.092-.38.292-.38 2.61.02 5.215-.225 7.775-.73a19.938 19.938 0 006.145-2.299c1.665-.95 3.06-2.3 4.057-3.927a10.32 10.32 0 001.536-5.555 7.35 7.35 0 00-.43-2.39 5.461 5.461 0 00-1.536-2.237 9.041 9.041 0 00-2.874-1.643 13.378 13.378 0 00-4.609-.655 8.269 8.269 0 00-1.844.229 3.244 3.244 0 00-1.536.989 46.214 46.214 0 00-2.92 4.079 173.049 173.049 0 00-4.148 6.59 974.992 974.992 0 00-4.717 7.93c-1.644 2.8-3.196 5.54-4.61 8.172-1.413 2.633-2.827 5.114-3.979 7.26-1.152 2.146-1.92 3.835-2.55 5.083a.383.383 0 01-.384.183 6.317 6.317 0 00-.938-.122 6.319 6.319 0 00-.937 0h-1.137a6.8 6.8 0 00-1.414.183 10.019 10.019 0 00-2.243 1.75.93.93 0 01-.415-.091c-.153-.061-.153-.153 0-.274 5.798-8.361 10.674-15.814 14.627-22.358 3.954-6.544 7.411-12.53 10.372-17.959.184-.502.246-.807.138-.944a.738.738 0 00-.6-.182 22.65 22.65 0 00-5.669 1.126 33.548 33.548 0 00-5.27 2.237 12.464 12.464 0 00-3.073 2.527 19.629 19.629 0 00-2.428 3.455z" fill="#54301A"/><path d="M112.163 57.294a45.222 45.222 0 01-3.825 4.064 36.782 36.782 0 01-4.81 3.835 26.994 26.994 0 01-5.377 2.8 15.245 15.245 0 01-5.516 1.08c-2.95 0-4.44-1.308-4.44-3.941a13.698 13.698 0 011.367-5.57 24.41 24.41 0 013.534-5.616 22.494 22.494 0 014.778-4.292 8.996 8.996 0 014.948-1.735 2.816 2.816 0 011.843.472 1.612 1.612 0 01.523 1.217 5.25 5.25 0 01-.707 2.344 8.32 8.32 0 01-2.136 2.465 11.845 11.845 0 01-3.58 1.964 14.99 14.99 0 01-5.193.791 15.125 15.125 0 00-1.03 2.679 12.067 12.067 0 00-.568 3.683c0 2.557 1.152 3.835 3.488 3.835a10.839 10.839 0 004.486-1.035 25.598 25.598 0 004.533-2.557 30.398 30.398 0 003.995-3.363 32.438 32.438 0 003.073-3.41.38.38 0 01.43-.09.364.364 0 01.184.38zm-9.91-7.29a1.07 1.07 0 00-.733-1.171 1.098 1.098 0 00-.496-.047 3.399 3.399 0 00-1.92.7 10.256 10.256 0 00-1.937 1.827 23.365 23.365 0 00-1.797 2.435c-.528.804-1 1.643-1.414 2.511.212.08.435.126.66.137h.754a6.936 6.936 0 004.809-1.857 6.083 6.083 0 001.526-2.048c.358-.782.545-1.63.548-2.487z" fill="#54301A"/><path d="M144.429 60.371a78.032 78.032 0 01-3.165 3.379 45.911 45.911 0 01-3.918 3.546 24.664 24.664 0 01-4.287 2.8 9.49 9.49 0 01-4.287 1.127 3.675 3.675 0 01-2.781-.746 3.199 3.199 0 01-.768-2.344 9.61 9.61 0 011.091-3.364 139.45 139.45 0 012.412-4.855 137.63 137.63 0 002.397-4.824 9.33 9.33 0 001.152-3.135c0-.38-.153-.563-.476-.563a17.263 17.263 0 00-2.735 1.826 39.471 39.471 0 00-3.073 2.77 78.743 78.743 0 00-2.796 2.892c-.861.928-1.537 1.72-1.921 2.328a19.575 19.575 0 00-1.429 2.253c-.445.867-.86 1.72-1.275 2.526-.35.715-.756 1.402-1.214 2.055-.415.563-.784.837-1.091.837a1.084 1.084 0 01-.845-.472 1.514 1.514 0 01-.384-.928c.041-.339.14-.668.292-.974a8.1 8.1 0 011.045-1.736 28.887 28.887 0 002.197-3.56 46.92 46.92 0 001.705-3.456 37.41 37.41 0 001.091-2.694c.156-.426.28-.863.369-1.308 0-.503-.123-.761-.369-.761s-1.014.395-1.936 1.171c-.922.777-1.905 1.736-2.981 2.847a40.409 40.409 0 00-3.072 3.56c-.953 1.249-1.921 2.36-2.597 3.35a186.634 186.634 0 00-2.274 3.47c-.645 1.004-1.091 1.521-1.398 1.521a.836.836 0 01-.592-.147.82.82 0 01-.33-.507 6.253 6.253 0 01-.123-1.31 1.84 1.84 0 01.369-1.201 268.394 268.394 0 005.009-8.234 1211.35 1211.35 0 014.901-8.325c.307-.548.661-.837 1.029-.837a1.056 1.056 0 01.861.517c.223.284.352.63.369.99a26.072 26.072 0 01-2.259 4.565 140.99 140.99 0 00-2.827 4.962 65.092 65.092 0 016.33-6.53 7.09 7.09 0 014.149-2.191c.691 0 1.029.472 1.029 1.4a8.29 8.29 0 01-.845 2.846c-.569 1.279-1.076 2.329-1.537 3.136-.122.243-.138.365 0 .334.128-.059.243-.141.338-.243.753-.868 1.537-1.796 2.597-2.755a33.95 33.95 0 013.073-2.755 50.732 50.732 0 013.288-2.435 22.528 22.528 0 013.073-1.78c.937 0 1.414.44 1.414 1.308a1.96 1.96 0 01-.093.579c0 .167-.153.395-.276.639-.323.685-.907 1.811-1.752 3.363a164.925 164.925 0 00-2.596 5.008 62.629 62.629 0 00-2.305 5.129 11.077 11.077 0 00-.999 3.79c0 1.247.599 1.871 1.798 1.871a7.102 7.102 0 003.58-1.126 27.795 27.795 0 003.78-2.709 39.893 39.893 0 003.487-3.318 82.5 82.5 0 002.735-3.044c.262-.38.507-.532.753-.471.246.06.185.395-.107.943z" fill="#54301A"/><path d="M180.675 19.11a8.773 8.773 0 01-.107.928c0 .441-.139.928-.216 1.522-.076.593-.107 1.065-.184 1.598-.056.394-.092.79-.107 1.187a.447.447 0 01-.323.137.4.4 0 01-.277-.137 6.64 6.64 0 00.169-.928v-.792a2.327 2.327 0 00-1.106-2.07 5.589 5.589 0 00-3.073-.73 9.673 9.673 0 00-5.992 2.13c-1.2.945-2.297 2.01-3.273 3.181a35.527 35.527 0 00-3.503 5.023 109.56 109.56 0 00-2.489 4.444c-.953 1.811-2.013 3.744-3.073 5.799-1.06 2.054-2.228 4.155-3.334 6.3-1.106 2.147-2.151 4.14-3.073 5.997h9.234c.215.122.277.335.2.654h-9.803a2148.08 2148.08 0 00-4.609 8.508c-1.537 2.846-3.258 5.586-4.871 8.25a132.37 132.37 0 01-4.84 7.38 190.032 190.032 0 01-4.379 5.997 111.296 111.296 0 01-9.526 10.76 63.465 63.465 0 01-8.589 7.154 32.85 32.85 0 01-7.682 3.972 20.793 20.793 0 01-6.776 1.233c-.686-.004-1.37-.07-2.043-.198a6.735 6.735 0 01-2.136-.792 5.996 5.996 0 01-1.844-1.689 7.566 7.566 0 01-1.198-2.892c0-.355.046-.507.138-.456.12.107.21.243.261.395.103.435.285.848.538 1.218.366.58.828 1.094 1.367 1.522a8.504 8.504 0 002.228 1.217 9.257 9.257 0 003.227.487 24.662 24.662 0 006.407-1.08 26.907 26.907 0 007.436-3.683 51.569 51.569 0 008.128-6.91 83.573 83.573 0 008.789-10.973c1.613-2.329 3.196-4.84 4.794-7.519 1.598-2.678 3.073-5.311 4.609-7.944a208.116 208.116 0 004.21-7.61 139.044 139.044 0 013.58-6.362c-1.921.137-3.442.259-4.609.396a9.846 9.846 0 00-2.674.624 3.615 3.615 0 00-1.536 1.263c-.476.738-.912 1.5-1.306 2.283h-.2a13.032 13.032 0 011.89-3.287 4.263 4.263 0 011.721-1.355c.368-.076.845-.182 1.444-.259.641-.1 1.287-.166 1.936-.197l2.043-.137h1.737a334.61 334.61 0 016.453-11.293 239.429 239.429 0 016.468-10.182 70.401 70.401 0 013.872-5.266 41.701 41.701 0 014.21-4.566 22.004 22.004 0 014.256-3.044 8.326 8.326 0 014.041-1.157 4.476 4.476 0 012.336.594 1.716 1.716 0 011.029 1.355z" fill="#54301A"/><path d="M183.609 26.672a8.328 8.328 0 01-.737 2.71 35.103 35.103 0 01-2.105 4.124 54.657 54.657 0 01-3.35 5.037 53.774 53.774 0 01-4.486 5.342 53.368 53.368 0 01-5.455 5.023 44.362 44.362 0 01-6.422 4.276c-.384.7-.953 1.644-1.66 2.847a84.867 84.867 0 00-2.12 3.774 39.966 39.966 0 00-1.798 3.911 9.176 9.176 0 00-.768 3.242c0 1.416.645 2.116 1.936 2.116a7.52 7.52 0 003.472-.929 20.496 20.496 0 003.457-2.237 35.984 35.984 0 003.073-2.83c.953-.99 1.767-1.873 2.443-2.68.308-.304.492-.38.523-.228.031.152 0 .32-.185.487-.814.974-1.751 2.025-2.842 3.044a31.098 31.098 0 01-3.488 3.044 20.388 20.388 0 01-3.841 2.313 9.413 9.413 0 01-4.01.944 3.347 3.347 0 01-2.505-.822 2.862 2.862 0 01-.768-2.04 8.978 8.978 0 011.03-3.408c.676-1.522 1.536-3.044 2.442-4.673a65.969 65.969 0 012.812-4.566c.937-1.4 1.537-2.541 1.998-3.257l2.381-4.002c.815-1.385 1.644-2.755 2.443-4.08l2.305-3.804c.737-1.218 1.413-2.298 2.043-3.211a45.714 45.714 0 012.336-3.257 20.535 20.535 0 013.073-3.044 29.178 29.178 0 014.609-3.242 8.394 8.394 0 012.873-1.126c.321-.013.634.096.876.304a1.142 1.142 0 01.415.898zm-3.073 1.705c0-.7-.307-1.05-.876-1.05a1.55 1.55 0 00-.722.197 4.088 4.088 0 00-1.045.822c-.43.426-.937 1.02-1.536 1.75l-2.32 2.923c-.354.487-.861 1.187-1.537 2.115a63.299 63.299 0 00-2.489 3.683c-.952 1.522-2.197 3.41-3.595 5.632-1.398 2.222-3.073 4.87-4.994 7.914a40.42 40.42 0 007.529-5.464 47.915 47.915 0 006.207-6.59 36.028 36.028 0 003.995-6.56 13.12 13.12 0 001.445-5.372h-.062z" fill="#54301A"/><path d="M167.152 69.121a2.415 2.415 0 01-1.537-.395 1.354 1.354 0 01-.522-1.187 8.687 8.687 0 011.629-3.942 438.196 438.196 0 013.994-6.195c.134-.17.278-.333.431-.487a1.4 1.4 0 01.368-.304l.907-.167c.227-.054.458-.09.691-.107.185 0 .261 0 .261.198-1.536 2.8-2.95 5.053-4.04 6.788a8.815 8.815 0 00-1.645 4.079c0 .532.246.791.753.791.297-.015.588-.082.861-.198a8.132 8.132 0 001.137-.517 20.73 20.73 0 001.137-.7c.298-.195.567-.43.799-.7a13.96 13.96 0 001.782-2.816c.768-1.522 1.706-3.211 2.827-5.19a25.63 25.63 0 011.537-2.466c.461-.67.845-.989 1.167-.989.229.172.405.404.507.67.138.334.211.69.215 1.05a3.67 3.67 0 01-.599 1.233 39.424 39.424 0 01-1.536 2.252c-.63.868-1.306 1.766-2.044 2.74-.737.974-1.429 1.887-2.105 2.724-1.536 2.435-3.211 4.931-4.855 7.519a332.97 332.97 0 01-4.871 7.487 91.088 91.088 0 01-5.085 6.819 44.017 44.017 0 01-5.378 5.6 26.158 26.158 0 01-5.746 3.775 14.639 14.639 0 01-6.254 1.385 6.705 6.705 0 01-3.488-.913 3.508 3.508 0 01-1.222-1.418 3.469 3.469 0 01-.314-1.839 5.525 5.525 0 01.107-1.096c.046-.306.124-.607.231-.898a.487.487 0 01.184-.258c.108 0 .154 0 .154.197a4.526 4.526 0 001.337 3.242 6.157 6.157 0 002.203 1.257 6.204 6.204 0 002.529.265 12.39 12.39 0 005.455-1.34 25.556 25.556 0 005.285-3.621 42.229 42.229 0 004.994-5.236 130.151 130.151 0 008.865-12.754 214.103 214.103 0 003.688-6.194v-.198l-.216.137c-.629.484-1.297.917-1.997 1.293a5.45 5.45 0 01-2.581.624z" fill="#54301A"/></svg>