<svg width="146" height="105" fill="none" xmlns="http://www.w3.org/2000/svg"><g clip-path="url(#clip0_2480_22759)"><path d="M144.5 88.611c0 4.273-1.697 8.371-4.719 11.392a16.107 16.107 0 01-11.392 4.719H15.611A16.109 16.109 0 01-.5 88.612v-72.5A16.111 16.111 0 0115.611 0H128.39a16.11 16.11 0 0116.11 16.111v72.5z" fill="#00785E"/><path fill-rule="evenodd" clip-rule="evenodd" d="M71.904 14.367c.73 1.398 1.124 3.122 1.64 4.729h5.123c-1.32 1.03-2.73 1.97-4.06 2.992.379 1.652.999 3.057 1.45 4.632-.274.11-.66-.257-.966-.479-.887-.657-2.067-1.543-2.99-2.223-1.501.749-2.87 2.146-4.152 2.799.407-1.62 1.035-3.017 1.45-4.636-1.236-1.116-2.646-2.054-4.056-2.993 1.478-.225 3.38-.032 5.019-.092.576-1.51 1.12-3.061 1.543-4.729zM49.99 28.077c.991-.591 1.877-1.276 2.8-1.929-.42-.994-.6-2.231-1.064-3.186.89.303 1.845 1.374 2.8 1.93.995-.58 1.889-1.265 2.799-1.93-.077.923-.725 2.107-.963 3.186.741.862 1.769 1.442 2.699 2.123-.97.234-2.372.056-3.375 0-.5.979-.846 2.115-1.16 3.283-.508-.939-.774-2.123-1.064-3.283h-2.606c-.068-.282-.79.085-.866-.193zm43.154.194h-2.51c-.414 1.035-.676 2.22-1.063 3.283-.439-1.043-.777-2.187-1.164-3.283-1.087.097-2.26.117-3.472.097.838-.774 1.87-1.35 2.703-2.123-.266-1.18-.717-2.179-1.063-3.283.978.6 1.873 1.285 2.799 1.93 1.091-.556 1.853-1.434 2.896-2.026-.419.99-.596 2.231-1.063 3.182.813.797 1.828 1.393 2.799 2.03-.073.278-.79-.089-.862.193zm-48.265 5.885c.471.91.475 2.287.77 3.379 1.212.077 2.291.278 3.471.387-.97.572-1.933 1.152-2.988 1.639.064 1.224.382 2.195.58 3.283-.282.064-.846-.488-1.257-.87-.451-.42-.858-.951-1.252-1.253-1.088.491-2.006 1.144-3.09 1.64.483-1 .882-2.08 1.446-2.993-.68-.963-1.611-1.668-2.51-2.413 1.012-.173 2.3.205 3.38.29.556-.955 1.023-1.998 1.45-3.09zm55.6 3.089c1.16-.125 2.251-.326 3.476-.387-.822.83-1.753 1.535-2.518 2.417.52.967.923 2.042 1.454 2.993-.922-.21-2.034-1.06-2.996-1.543-.935.604-1.777 1.825-2.602 2.22.169-1.116.491-2.083.58-3.28a22.472 22.472 0 00-2.993-1.643c.979-.31 2.247-.326 3.38-.479.422-.955.43-2.336.773-3.38.535.971.998 2.019 1.446 3.082z" fill="#FBD116"/><path fill-rule="evenodd" clip-rule="evenodd" d="M85.8 73.35c-6.275-.322-10.262-2.933-13.9-5.893-3.399 3.126-7.548 5.51-13.702 5.893h-18.15c.021.076 0 .189.093.189.42.644.842 1.28 1.354 1.833 5.643.386 12.353.197 18.048.1 5.466-.33 9.103-2.485 12.454-4.926 3.34 2.45 6.988 4.592 12.45 4.926 5.804.093 12.514.282 18.053-.1.487-.584.934-1.189 1.353-1.833.028.012.076-.016.101 0-.709-.431-2.892-.19-4.06-.19H85.8zm14.476 4.628c.169.028.339-.375 0-.286-18.886.125-38.24-.258-56.76.193.097 0 .114.076.194.093.25.282.584.76.967.87.761.209 2.142 0 3.375 0h51.45c.206-.35.577-.52.774-.87zm-3.472 3.379c.097.004.113-.073.194-.097.008-.117.12-.129.092-.286-16.087.314-32.927-.427-48.937 0-.274.008-1.092-.274-1.16.286.096 0 .116.08.193.097.592.439 1.168.898 1.74 1.35 15.16.164 30.986.164 46.142 0 .572-.452 1.152-.907 1.736-1.35zm-4.434 3.182c.253-.185.225-.133 0-.19-1.338-.314-3.4 0-5.12 0H53.66c-.625 0-2.437-.128-2.026.19 1.131.705 2.304 1.365 3.572 1.933 10.972.157 22.62.157 33.588 0a29.76 29.76 0 003.577-1.933zm-6.372 3.194h.189c-.004-.165-.036-.177-.19-.198-2.118-.31-4.663 0-7.048 0-7.097 0-14.564-.157-21.142.198h.198c3.468 1.28 7.201 2.316 11.777 2.505.387.226 1.188.036 1.736.097h.966c.548-.065 1.35.125 1.737-.097 4.55-.205 8.305-1.208 11.777-2.505z" fill="#fff"/><path fill-rule="evenodd" clip-rule="evenodd" d="M63.6 46.9c.186 4.608 1.43 8.157 3.38 11.004-1.55-3.443-2.924-7.238-2.51-12.164a20.976 20.976 0 017.63-14.572c3.572 3.218 6.83 8.112 7.43 14.48.496 5.3-1.115 9.497-2.992 12.933 2.099-2.695 3.69-6.73 3.863-11.68.16-.166.16-.995 0-1.16-.125-3.38-.878-6.143-2.026-8.495.608-1.22 1.595-2.074 1.925-3.569 1.53 2.425 2.517 5.398 2.8 9.075v2.992c-.27 4.556-1.813 7.843-3.666 10.811-.085.012-.298.318-.097.29.198-.35.572-.52.774-.87 4.168-3.548 9.074-6.368 16.505-6.658h1.74c.182.29-.467.657-.773 1.063-.33.435-.568 1.015-.87 1.354-8.08.157-13.356 3.117-17.565 7.137 3.178-2.187 7.536-4.656 12.647-5.111 4.886-.435 9.123.318 12.74 1.832a20.123 20.123 0 01-4.342 7.049 9.733 9.733 0 00-1.257 1.253c-3.327 3.012-7.37 5.3-13.32 5.695h-2.315c0 .093.116.072.193.093.403.25 1.096.193 1.736.197a4.428 4.428 0 002.03 0c6.468-.25 10.52-2.928 14.186-5.985.507.362 2.787.265 2.32.773a11.97 11.97 0 00-1.446 1.446c-3.416 2.989-7.56 5.244-13.614 5.599h-2.03c-6.11-.355-10.279-2.65-13.703-5.696-.326-.346-.572-.773-1.063-.962-.233.378-.632.588-.866.962-3.427 3.045-7.6 5.337-13.706 5.696h-2.026c-6.11-.367-10.303-2.635-13.707-5.696-.411-.488-.864-.94-1.353-1.349.052-.137-.379-.242-.097-.29.846-.089 1.643-.226 2.32-.483 3.774 2.98 7.753 5.76 14.287 5.985.447.157 1.575.157 2.026 0 .636-.004 1.34.052 1.736-.197h.193c-.58-.222-1.575-.033-2.312-.093-5.957-.387-9.993-2.687-13.324-5.695a9.468 9.468 0 00-1.257-1.253 19.928 19.928 0 01-4.342-7.049c3.597-1.518 7.798-2.239 12.644-1.832 5.075.43 9.445 2.827 12.55 5.018.185.234.451.387.677.584-.036-.322-.29-.419-.483-.584-4.314-3.85-9.446-6.9-17.477-7.04-.624-.721-1.39-1.829-1.833-2.413h1.833c7.306.322 12.265 2.989 16.316 6.561.395.411.705.907 1.253 1.156.073-.419-.19.077-.193-.189a1.783 1.783 0 00-.387-.58c-1.752-2.912-3.218-6.114-3.476-10.52V42.76c.246-3.69 1.333-6.521 2.707-9.075.507 1.321 1.273 2.397 2.026 3.476a21.618 21.618 0 00-1.93 7.335c-.221.137-.036.677-.096.967v.285c-.173.158-.173.987-.012 1.153zm3.38 11.004c.061.307.233.581.483.77a1.31 1.31 0 00-.483-.77z" fill="#fff"/></g><defs><clipPath id="clip0_2480_22759"><path fill="#fff" transform="translate(.5)" d="M0 0h145v105H0z"/></clipPath></defs></svg>