<svg width="27" height="24" fill="none" xmlns="http://www.w3.org/2000/svg"><path d="M23.083 3H3.917A1.923 1.923 0 002 4.929V19.07C2 20.136 2.859 21 3.917 21h19.166A1.923 1.923 0 0025 19.071V4.93A1.923 1.923 0 0023.083 3zM9.028 6.857a2.566 2.566 0 012.555 2.572A2.566 2.566 0 019.028 12a2.566 2.566 0 01-2.556-2.571 2.566 2.566 0 012.556-2.572zm4.472 9.514c0 .426-.4.772-.894.772H5.45c-.495 0-.894-.346-.894-.772V15.6c0-1.278 1.201-2.314 2.683-2.314h.2a4.099 4.099 0 003.178 0h.2c1.481 0 2.683 1.036 2.683 2.314v.771zm8.944-2.121a.321.321 0 01-.319.321h-5.75a.321.321 0 01-.32-.321v-.643c0-.177.144-.321.32-.321h5.75c.176 0 .32.144.32.321v.643zm0-2.571a.321.321 0 01-.319.321h-5.75a.321.321 0 01-.32-.321v-.643c0-.177.144-.322.32-.322h5.75c.176 0 .32.145.32.322v.643zm0-2.572a.321.321 0 01-.319.322h-5.75a.321.321 0 01-.32-.322v-.643c0-.177.144-.321.32-.321h5.75c.176 0 .32.144.32.321v.643z" fill="#54301A"/></svg>