<svg width="24" height="24" fill="none" xmlns="http://www.w3.org/2000/svg"><path d="M12 6.188a3.562 3.562 0 100 7.124 3.562 3.562 0 000-7.124zm0 6a2.438 2.438 0 110-4.876 2.438 2.438 0 010 4.875zm0-10.5A8.072 8.072 0 003.937 9.75c0 2.898 1.345 5.976 3.888 8.9a23.65 23.65 0 003.853 3.563.562.562 0 00.644 0 23.651 23.651 0 003.853-3.562c2.543-2.925 3.887-6 3.887-8.901A8.072 8.072 0 0012 1.687zm0 19.36c-1.406-1.086-6.938-5.709-6.938-11.298a6.937 6.937 0 1113.875 0c0 5.59-5.53 10.212-6.937 11.298z" fill="#000"/></svg>