<svg width="25" height="24" fill="none" xmlns="http://www.w3.org/2000/svg"><path d="M14.956 3.605a.56.56 0 01.69-.399 7.897 7.897 0 015.648 5.649.563.563 0 11-1.088.29 6.783 6.783 0 00-4.851-4.851.563.563 0 01-.399-.69zm-.351 3.689c1.364.364 2.238 1.237 2.601 2.601a.562.562 0 001.088-.29c-.469-1.754-1.645-2.93-3.399-3.399a.562.562 0 10-.29 1.088zm7.447 9.094A5.086 5.086 0 0117 20.811c-7.34 0-13.312-5.971-13.312-13.312A5.086 5.086 0 018.11 2.448a1.312 1.312 0 011.365.786l1.978 4.416a1.312 1.312 0 01-.145 1.298l-1.975 2.35a.178.178 0 000 .156c.718 1.47 2.26 3 3.75 3.718a.177.177 0 00.158-.006l2.314-1.969a1.312 1.312 0 011.297-.154l4.43 1.985a1.313 1.313 0 01.77 1.362v-.003zm-1.114-.14a.187.187 0 00-.114-.187l-4.43-1.984a.178.178 0 00-.15.009l-2.313 1.969a1.312 1.312 0 01-1.343.133c-1.722-.832-3.438-2.531-4.27-4.237a1.313 1.313 0 01.086-1.287.447.447 0 01.04-.053l1.975-2.35a.189.189 0 000-.156l-1.975-4.42a.188.188 0 00-.172-.122H8.25A3.96 3.96 0 004.813 7.5c0 6.72 5.467 12.188 12.187 12.188a3.96 3.96 0 003.938-3.44z" fill="#1E1D1B"/></svg>