<svg xmlns="http://www.w3.org/2000/svg" width="24" height="24" fill="none"><path d="M20.25 21a.746.746 0 01-.53-.22L3.22 4.28a.75.75 0 011.061-1.06l16.5 16.5a.75.75 0 01-.53 1.28zm-8.265-3c-1.945 0-3.82-.576-5.574-1.71-1.597-1.032-3.035-2.51-4.158-4.266v-.004c.934-1.34 1.958-2.472 3.058-3.385a.094.094 0 00.006-.138l-.933-.932a.094.094 0 00-.127-.006c-1.168.985-2.253 2.192-3.238 3.606a1.496 1.496 0 00-.03 1.666c1.238 1.937 2.83 3.569 4.606 4.718 2 1.295 4.151 1.951 6.39 1.951a11.21 11.21 0 003.553-.59.094.094 0 00.036-.155l-1.011-1.011a.188.188 0 00-.18-.047 9.603 9.603 0 01-2.398.303zm11.024-6.816c-1.24-1.918-2.85-3.547-4.653-4.712C16.36 5.182 14.157 4.5 11.985 4.5a10.657 10.657 0 00-3.51.601.094.094 0 00-.036.156l1.01 1.01a.187.187 0 00.182.047A9.038 9.038 0 0111.985 6c1.907 0 3.777.583 5.557 1.734 1.627 1.05 3.082 2.526 4.207 4.266l.002.004c0 .001 0 .003-.002.004a14.564 14.564 0 01-3.005 3.409.094.094 0 00-.007.138l.933.932a.094.094 0 00.126.007 16.099 16.099 0 003.218-3.68 1.51 1.51 0 00-.005-1.63z" fill="#1E1D1B"/><path d="M12 7.5c-.336 0-.672.038-1 .112a.094.094 0 00-.048.159l5.278 5.276a.095.095 0 00.093.024.094.094 0 00.065-.07A4.498 4.498 0 0012.001 7.5zm-4.228 3.453a.095.095 0 00-.093-.024.093.093 0 00-.066.07 4.5 4.5 0 005.391 5.391.093.093 0 00.072-.115.093.093 0 00-.025-.043l-5.28-5.28z" fill="#1E1D1B"/></svg>