<svg xmlns="http://www.w3.org/2000/svg" width="24" height="24" fill="none"><g clip-path="url(#clip0_1165_23958)"><path d="M12.08 7.534a4.5 4.5 0 10.001 9 4.5 4.5 0 000-9zm0 7.5c-1.654 0-3.034-1.379-3.034-3.033s1.346-3 3-3c1.655 0 3 1.346 3 3s-1.311 3.033-2.965 3.033zm11.912-3.208c-.009-.037-.005-.077-.017-.115-.004-.015-.014-.024-.02-.038-.008-.021-.006-.047-.017-.067-2.181-4.995-6.882-7.87-11.892-7.87S2.24 6.606.058 11.601c-.01.02-.008.043-.016.067-.005.014-.016.023-.02.036-.012.038-.008.078-.015.116a.998.998 0 00-.027.201 1 1 0 00.027.202c.008.037.003.078.014.114.005.017.016.024.021.04.008.02.006.045.016.066 2.183 4.994 6.931 7.821 11.941 7.821 5.01 0 9.758-2.821 11.94-7.816.011-.021.009-.044.017-.068.005-.013.015-.023.02-.037.012-.037.008-.077.016-.115.013-.067.025-.133.025-.202 0-.066-.012-.132-.025-.2zm-11.993 6.939c-4.249 0-8.431-2.24-10.486-6.743 2.035-4.488 6.273-6.785 10.533-6.785 4.258 0 8.402 2.3 10.439 6.79-2.035 4.486-6.226 6.738-10.486 6.738z" fill="#1E1D1B"/></g><defs><clipPath id="clip0_1165_23958"><path fill="#fff" d="M0 0h24v24H0z"/></clipPath></defs></svg>