<svg width="50" height="50" fill="none" xmlns="http://www.w3.org/2000/svg"><circle cx="25" cy="25" r="25" fill="#80757C" fill-opacity=".2"/><path d="M15.87 22.12a6.103 6.103 0 01-1.74-.252c-.56-.176-1.033-.416-1.417-.72l.672-1.212a3.64 3.64 0 001.104.6c.432.152.884.228 1.356.228.56 0 .996-.112 1.308-.336.312-.232.468-.544.468-.936 0-.384-.144-.688-.432-.912-.288-.224-.752-.336-1.392-.336h-.768v-1.068l2.4-2.856.204.588h-4.512V13.6h5.724v1.044l-2.4 2.856-.816-.48h.468c1.032 0 1.804.232 2.316.696.52.456.78 1.044.78 1.764 0 .472-.12.908-.36 1.308s-.608.724-1.104.972c-.488.24-1.108.36-1.86.36zm7.98 0c-.76 0-1.413-.16-1.957-.48-.544-.328-.96-.8-1.248-1.416-.287-.616-.431-1.376-.431-2.28 0-.96.172-1.772.516-2.436.351-.664.835-1.168 1.451-1.512.624-.344 1.34-.516 2.148-.516.424 0 .828.044 1.212.132.392.088.724.224.997.408l-.576 1.176a2.163 2.163 0 00-.756-.312 3.556 3.556 0 00-.84-.096c-.793 0-1.42.244-1.884.732-.465.488-.697 1.208-.697 2.16 0 .152.005.332.012.54.008.2.037.404.084.612l-.48-.528c.145-.328.34-.6.588-.816.256-.224.556-.392.9-.504a3.74 3.74 0 011.14-.168c.552 0 1.044.108 1.477.324.431.208.776.508 1.032.9.256.384.384.836.384 1.356 0 .552-.137 1.032-.409 1.44-.272.408-.64.724-1.104.948a3.542 3.542 0 01-1.56.336zm-.085-1.224c.32 0 .604-.056.852-.168.248-.12.44-.288.576-.504a1.33 1.33 0 00.216-.756c0-.44-.151-.788-.456-1.044-.303-.256-.712-.384-1.223-.384a1.96 1.96 0 00-.889.192c-.248.12-.448.288-.6.504a1.31 1.31 0 00-.215.744c0 .256.067.492.204.708.136.216.331.388.587.516.264.128.58.192.948.192zM28.68 22l5.736-8.4h1.176L29.855 22h-1.176zm.696-3.876c-.392 0-.74-.096-1.044-.288a1.926 1.926 0 01-.708-.804c-.168-.344-.252-.748-.252-1.212 0-.464.084-.868.252-1.212.168-.344.404-.612.708-.804a1.913 1.913 0 011.044-.288c.408 0 .76.096 1.056.288.304.192.54.46.708.804.168.344.252.748.252 1.212 0 .464-.084.868-.252 1.212a1.926 1.926 0 01-.708.804c-.296.192-.648.288-1.056.288zm.012-.84a.86.86 0 00.744-.372c.184-.256.276-.62.276-1.092 0-.472-.092-.832-.276-1.08a.851.851 0 00-.744-.384.912.912 0 00-.768.384c-.184.256-.276.616-.276 1.08 0 .464.092.824.276 1.08a.912.912 0 00.768.384zm5.496 4.8c-.392 0-.74-.096-1.044-.288a1.926 1.926 0 01-.708-.804c-.168-.344-.252-.748-.252-1.212 0-.464.084-.868.252-1.212.168-.344.404-.612.708-.804a1.913 1.913 0 011.044-.288c.408 0 .76.096 1.056.288.304.192.54.46.708.804.168.344.252.748.252 1.212 0 .464-.084.868-.252 1.212a1.926 1.926 0 01-.708.804c-.296.192-.648.288-1.056.288zm0-.84c.32 0 .572-.128.756-.384.184-.256.276-.616.276-1.08 0-.464-.092-.824-.276-1.08a.881.881 0 00-.756-.384.901.901 0 00-.756.384c-.184.248-.276.608-.276 1.08 0 .472.092.836.276 1.092a.91.91 0 00.756.372zM17.373 37.12a4.93 4.93 0 01-1.812-.324 4.433 4.433 0 01-1.44-.9 4.162 4.162 0 01-.948-1.368 4.379 4.379 0 01-.336-1.728c0-.624.112-1.196.336-1.716.224-.528.54-.984.948-1.368a4.332 4.332 0 011.44-.912 4.897 4.897 0 011.8-.324c.656 0 1.256.108 1.8.324.552.216 1.032.52 1.44.912.408.384.724.84.948 1.368.224.52.336 1.092.336 1.716 0 .624-.112 1.2-.336 1.728-.224.528-.54.984-.948 1.368a4.433 4.433 0 01-1.44.9 4.803 4.803 0 01-1.788.324zm-.012-1.368c.424 0 .816-.072 1.176-.216.36-.144.672-.348.936-.612a3.024 3.024 0 00.84-2.124c0-.432-.076-.824-.228-1.176a2.754 2.754 0 00-.612-.936 2.67 2.67 0 00-.936-.624 3.138 3.138 0 00-1.176-.216c-.424 0-.816.072-1.176.216a2.824 2.824 0 00-.936.624 2.908 2.908 0 00-.624.936 3.08 3.08 0 00-.216 1.176c0 .424.072.816.216 1.176.152.36.36.676.624.948.264.264.576.468.936.612.36.144.752.216 1.176.216zm7.605-3.288h4.188v1.32h-4.188v-1.32zM25.098 37h-1.56v-8.4h6.132v1.308h-4.572V37zm7.509-4.536h4.188v1.32h-4.188v-1.32zM32.739 37h-1.56v-8.4h6.132v1.308h-4.572V37z" fill="#80757C"/></svg>