<svg width="30" height="30" fill="none" xmlns="http://www.w3.org/2000/svg"><g fill="#fff"><path d="M9.505 5.755c2.17-2.17 3.255-3.255 4.603-3.255 1.349 0 2.434 1.085 4.602 3.255l5.525 5.524c2.17 2.168 3.254 3.254 3.254 4.602 0 1.348-1.085 2.433-3.255 4.603s-3.255 3.255-4.602 3.255c-1.35 0-2.434-1.085-4.603-3.255L9.504 14.96c-2.167-2.169-3.254-3.254-3.254-4.603 0-1.347 1.085-2.432 3.255-4.602zm-.4 11.457l-5.572 5.573c-.429.429-.643.642-.771.865a1.952 1.952 0 000 1.953c.128.222.342.437.77.864.428.428.642.643.866.772a1.953 1.953 0 001.952 0c.223-.129.438-.344.865-.771l5.573-5.573-3.683-3.683z"/><path d="M10.432 15.887l.005-.006 3.682 3.682-.006.005-3.681-3.682v.001zm14.155-6.909a1.952 1.952 0 00-.03-1.9c-.13-.222-.344-.436-.772-.863-.427-.43-.642-.643-.865-.772a1.953 1.953 0 00-1.898-.03l3.565 3.565z"/></g></svg>