<svg width="38" height="24" fill="none" xmlns="http://www.w3.org/2000/svg"><path opacity=".07" d="M35 0H3C1.3 0 0 1.3 0 3v18c0 1.7 1.4 3 3 3h32c1.7 0 3-1.3 3-3V3c0-1.7-1.4-3-3-3z" fill="#000"/><path d="M35 1c1.1 0 2 .9 2 2v18c0 1.1-.9 2-2 2H3c-1.1 0-2-.9-2-2V3c0-1.1.9-2 2-2h32z" fill="#fff"/><g clip-path="url(#clip0_2201_9723)"><path d="M11.082 4h6.478c.904 0 1.466.771 1.256 1.72L15.8 19.266c-.213.945-1.119 1.717-2.023 1.717H7.3c-.903 0-1.467-.772-1.256-1.718L9.061 5.72C9.272 4.771 10.177 4 11.082 4z" fill="#E21836"/><path d="M17.021 4h7.45c.903 0 .496.771.283 1.72L21.74 19.266c-.212.945-.146 1.717-1.052 1.717h-7.449c-.906 0-1.466-.772-1.253-1.718L15 5.72C15.214 4.771 16.117 4 17.02 4z" fill="#00447C"/><path d="M24.174 4h6.478c.905 0 1.468.771 1.255 1.72l-3.015 13.546c-.213.945-1.119 1.717-2.024 1.717h-6.475c-.906 0-1.468-.772-1.255-1.718L22.153 5.72C22.364 4.771 23.268 4 24.174 4z" fill="#007B84"/><path d="M12.774 8.34c-.666.007-.863 0-.925-.015l-.475 2.29c-.097.44-.168.753-.407.955a.704.704 0 01-.478.174c-.295 0-.467-.154-.496-.445l-.006-.1.09-.59s.472-1.978.556-2.239a.188.188 0 00.007-.03c-.918.009-1.08 0-1.092-.015a4.092 4.092 0 00-.029.144l-.482 2.228-.041.189-.08.618c0 .183.034.333.103.46.22.4.845.46 1.2.46.456 0 .884-.1 1.173-.286.502-.31.634-.796.75-1.227l.055-.22s.486-2.054.569-2.32c.003-.016.004-.024.008-.03zm1.654 1.657c-.118 0-.332.03-.524.128-.07.037-.136.08-.205.124l.063-.238-.035-.04c-.408.087-.499.098-.876.154l-.031.022c-.044.38-.083.665-.245 1.41-.062.276-.125.552-.19.827l.017.035c.386-.022.504-.022.84-.016l.026-.03c.043-.23.048-.283.143-.745.044-.22.137-.702.182-.873a.604.604 0 01.246-.08c.188 0 .165.17.158.24a8.98 8.98 0 01-.147.81l-.047.209c-.033.153-.069.302-.101.454l.014.03c.38-.02.497-.02.821-.015l.039-.03c.058-.357.076-.453.18-.973l.052-.238c.102-.467.153-.704.076-.897-.081-.216-.277-.268-.456-.268zm1.847.489c-.202.04-.331.067-.46.085-.127.021-.25.04-.446.069l-.016.014-.014.012c-.02.153-.034.284-.061.439-.023.16-.059.342-.116.603-.044.2-.067.27-.092.34-.025.07-.052.14-.102.336l.012.018.01.017c.182-.01.302-.016.425-.017.122-.005.25 0 .446.001l.017-.015.019-.016c.028-.177.032-.225.05-.312.017-.092.047-.22.12-.564.034-.161.072-.322.108-.487l.113-.486-.006-.02-.007-.017zm.004-.66c-.184-.113-.506-.077-.723.08-.217.153-.241.371-.058.486.18.11.504.078.72-.08.215-.157.242-.373.061-.486zm1.111 2.628c.372 0 .753-.107 1.04-.425.221-.258.322-.642.357-.8.114-.524.026-.769-.086-.917-.17-.228-.47-.3-.78-.3-.187 0-.632.019-.98.354-.25.242-.365.57-.435.885-.07.321-.151.899.357 1.114.156.07.382.09.527.09zm-.029-1.179c.086-.396.187-.73.446-.73.202 0 .217.248.127.646-.016.089-.09.417-.19.557-.07.103-.152.166-.244.166-.027 0-.188 0-.191-.25a1.836 1.836 0 01.052-.389zm2.356 1.128l.029-.03c.041-.23.048-.283.14-.745.045-.22.14-.702.184-.873.084-.041.165-.081.246-.081.187 0 .164.172.157.24-.007.115-.075.49-.147.812l-.044.207c-.034.154-.071.303-.104.455l.014.03c.382-.02.494-.02.82-.015l.04-.03c.057-.358.073-.453.18-.973l.051-.238c.103-.467.154-.704.079-.897-.084-.216-.28-.268-.458-.268-.117 0-.332.03-.524.128-.068.037-.136.08-.204.124l.059-.238-.032-.04c-.407.087-.5.098-.877.154l-.029.022c-.045.38-.082.664-.244 1.41a96.93 96.93 0 01-.19.827l.017.035a8.99 8.99 0 01.837-.016zm2.805.016c.024-.123.166-.85.168-.85 0 0 .12-.532.128-.552 0 0 .039-.055.077-.077h.056c.53 0 1.13 0 1.598-.361.32-.248.538-.614.636-1.059a1.68 1.68 0 00.044-.368.8.8 0 00-.127-.47c-.24-.35-.716-.357-1.267-.36l-.27.003c-.705.009-.988.006-1.104-.009l-.028.15-.252 1.225-.633 2.723c.615-.008.868-.008.974.005zm.467-2.173l.267-1.217.009-.062.004-.048.107.012s.553.05.566.05c.218.089.308.317.246.614a.888.888 0 01-.443.61c-.178.094-.396.102-.621.102h-.146l.011-.061zm1.67 1.052c-.07.316-.152.894.353 1.1a.95.95 0 00.452.085c.155-.01.299-.09.431-.207l-.036.144.023.03a13.7 13.7 0 01.87-.012l.036-.028c.057-.354.111-.697.26-1.373l.22-.968-.011-.035c-.406.079-.515.096-.906.153l-.03.026-.012.096a.565.565 0 00-.284-.245c-.174-.072-.582.02-.933.355-.247.238-.365.565-.433.879zm.854.02c.087-.39.187-.72.446-.72.163 0 .25.158.232.428-.015.072-.03.145-.047.218-.025.116-.054.23-.08.345a.854.854 0 01-.097.202.44.44 0 01-.316.16c-.026 0-.186 0-.191-.246a1.762 1.762 0 01.053-.388zm4.457-1.287l-.031-.038a9.113 9.113 0 01-.845.151l-.027.029-.004.018-.002-.007c-.274.664-.267.521-.49 1.043l-.003-.063-.056-1.133-.035-.038c-.421.085-.431.1-.82.151l-.03.029c-.005.013-.005.028-.007.044l.002.006c.049.26.037.202.086.612.023.202.053.404.076.603.038.333.06.497.106 1.005-.262.453-.325.625-.578 1.023l.002.004-.178.294c-.02.032-.039.053-.065.062a.258.258 0 01-.116.017h-.099l-.147.51.504.01c.295-.002.48-.146.58-.34l.317-.568h-.005l.033-.04c.213-.479 1.832-3.384 1.832-3.384zm-5.31 6.703h-.214l.79-2.734h.262l.083-.281.008.313c-.01.193.136.365.518.336h.443l.152-.526h-.167c-.095 0-.14-.025-.134-.08l-.008-.318h-.819v.002c-.265.005-1.056.026-1.216.07a1.406 1.406 0 00-.397.207l.08-.282h-.766l-.16.559-.8 2.776h-.156l-.152.522h1.525l-.05.175h.751l.05-.175h.211l.165-.564zm-.627-2.179c-.122.036-.35.144-.35.144l.202-.699h.609l-.147.51s-.188.01-.314.046zm.012.999s-.191.025-.317.054c-.124.04-.356.164-.356.164l.21-.727h.611l-.148.509zm-.341 1.186h-.61l.176-.613h.609l-.175.613zm1.47-1.695h.88l-.126.428h-.892l-.134.468h.78l-.59.87a.245.245 0 01-.12.105.338.338 0 01-.158.048h-.217l-.149.513h.567c.294 0 .468-.14.596-.324l.405-.58.087.59c.019.11.094.174.146.2.056.029.115.08.198.088.088.003.152.007.195.007h.278l.167-.575h-.11c-.062 0-.17-.01-.19-.031-.018-.025-.018-.064-.028-.123l-.088-.59h-.361l.158-.198h.89l.137-.468h-.824l.128-.428h.822l.152-.529h-2.449l-.15.529zm-7.433 1.815l.206-.715h.844l.154-.532H18.1l.13-.44h.825l.153-.515h-2.066l-.15.515h.47l-.126.44h-.47l-.156.54h.469l-.274.947c-.037.125.017.172.052.23.035.057.07.095.15.116a.87.87 0 00.217.031h.952l.17-.59-.422.062c-.082 0-.307-.01-.283-.09zm.097-3.423l-.214.405a.464.464 0 01-.124.168c-.032.022-.097.03-.191.03h-.112l-.149.518h.37a.812.812 0 00.381-.102c.07-.04.09-.017.143-.072l.126-.114h1.157l.154-.538h-.848l.148-.295h-.84zm1.71 3.433c-.02-.03-.006-.082.024-.191l.316-1.096h1.126a7.37 7.37 0 00.36-.01.717.717 0 00.27-.095.517.517 0 00.197-.19c.049-.07.127-.224.194-.46l.398-1.387-1.168.007s-.36.055-.518.117c-.16.068-.388.259-.388.259l.105-.38h-.721l-1.01 3.505c-.036.136-.06.234-.066.294-.002.064.077.127.128.175.06.047.15.04.236.047.09.008.218.012.395.012h.555l.17-.601-.496.049a.13.13 0 01-.108-.055zm.544-2.027h1.183l-.076.247c-.01.005-.035-.012-.156.002H20.02l.072-.249zm.237-.826h1.192l-.085.297s-.562-.006-.652.011a1.316 1.316 0 00-.628.293l.173-.601zm.897 1.898a.134.134 0 01-.047.076c-.024.016-.063.022-.12.022h-.17l.01-.3h-.7l-.028 1.467c-.002.106.008.167.082.216.075.062.303.07.61.07h.439l.158-.55-.382.022-.127.008c-.017-.008-.034-.015-.053-.034-.016-.017-.043-.007-.038-.113l.003-.376.4-.017a.507.507 0 00.388-.144c.076-.067.1-.144.129-.249l.067-.333h-.55l-.071.235z" fill="#FEFEFE"/></g><defs><clipPath id="clip0_2201_9723"><path fill="#fff" transform="translate(6 4)" d="M0 0h26v17H0z"/></clipPath></defs></svg>