<svg width="24" height="24" fill="none" xmlns="http://www.w3.org/2000/svg"><path fill-rule="evenodd" clip-rule="evenodd" d="M9.256 3.72c.698-.386 1.564-.564 2.603-.564 1.04 0 1.906.178 2.604.564.713.394 1.186.97 1.488 1.642.294.653.424 1.389.487 2.128.062.733.062 1.53.062 2.319v.021c0 2.003-.986 4.03-2.376 5.15 1.888.275 3.583.888 4.878 1.755 1.493 1 2.56 2.42 2.56 4.11v.844H2.157v-.843c0-1.686 1.068-3.106 2.56-4.106 1.295-.868 2.99-1.484 4.878-1.76-1.389-1.119-2.375-3.147-2.375-5.15v-.02c0-.79 0-1.586.062-2.32.063-.738.193-1.474.487-2.127.302-.672.774-1.248 1.488-1.642zm-.293 3.913c-.056.655-.057 1.384-.057 2.197 0 1.746 1.011 3.452 2.11 4.088l.421.244v2.33l-.773.064c-2.034.17-3.788.768-5.008 1.585-.856.574-1.398 1.216-1.648 1.86h15.705c-.25-.648-.793-1.29-1.65-1.864-1.22-.816-2.973-1.41-5.008-1.58l-.774-.065v-2.33l.421-.244c1.1-.636 2.11-2.341 2.11-4.088 0-.813 0-1.542-.056-2.197-.056-.656-.163-1.176-.344-1.579-.172-.383-.412-.662-.766-.857-.37-.205-.928-.353-1.787-.353-.859 0-1.417.148-1.787.353-.354.195-.593.474-.765.857-.181.403-.289.923-.344 1.579z" fill="#1C1D1D"/></svg>