<svg width="38" height="24" fill="none" xmlns="http://www.w3.org/2000/svg"><path opacity=".07" d="M35 0H3C1.3 0 0 1.3 0 3v18c0 1.7 1.4 3 3 3h32c1.7 0 3-1.3 3-3V3c0-1.7-1.4-3-3-3z" fill="#000"/><path d="M35 1c1.1 0 2 .9 2 2v18c0 1.1-.9 2-2 2H3c-1.1 0-2-.9-2-2V3c0-1.1.9-2 2-2h32z" fill="#fff"/><path d="M16.726 14.224a.551.551 0 01-.733-.225l-.036-.079-1.515-3.331a.394.394 0 010-.122.271.271 0 01.28-.273.255.255 0 01.162.055l1.817 1.273a.83.83 0 00.455.14.747.747 0 00.285-.056l8.373-3.75a8.942 8.942 0 00-6.81-2.938c-4.605 0-8.337 3.108-8.337 6.973a6.525 6.525 0 002.883 5.247.552.552 0 01.2.606l-.375 1.417a.786.786 0 00-.042.2.272.272 0 00.278.279.347.347 0 00.159-.049l1.816-1.054a.855.855 0 01.685-.09c.885.25 1.8.376 2.72.374 4.604 0 8.343-3.107 8.343-6.942a6.024 6.024 0 00-.915-3.235l-9.626 5.543-.067.037z" fill="#1AAD19"/></svg>