<svg width="70" height="70" fill="none" xmlns="http://www.w3.org/2000/svg"><g filter="url(#filter0_i_315_2500)"><circle cx="35" cy="35" r="35" fill="#4FCA5D"/></g><path d="M46.751 23.18a16.36 16.36 0 00-11.683-4.85c-9.1 0-16.517 7.417-16.517 16.517 0 2.916.767 5.75 2.2 8.25l-2.333 8.566 8.75-2.3a16.52 16.52 0 007.9 2.017c9.1 0 16.517-7.416 16.517-16.517 0-4.416-1.717-8.566-4.834-11.683zm-11.683 25.4a13.77 13.77 0 01-7-1.916l-.5-.3-5.2 1.366 1.383-5.066-.333-.517a13.772 13.772 0 01-2.1-7.3c0-7.567 6.167-13.734 13.733-13.734 3.667 0 7.117 1.434 9.7 4.034a13.64 13.64 0 014.017 9.717c.033 7.566-6.133 13.716-13.7 13.716zm7.533-10.267c-.416-.2-2.45-1.2-2.816-1.35-.384-.133-.65-.2-.934.2-.283.417-1.066 1.35-1.3 1.617-.233.283-.483.317-.9.1-.416-.2-1.75-.65-3.316-2.05-1.234-1.1-2.05-2.45-2.3-2.866-.234-.417-.034-.634.183-.85.183-.184.417-.484.617-.717.2-.233.283-.417.416-.683.134-.284.067-.517-.033-.717-.1-.2-.933-2.233-1.267-3.067-.333-.8-.683-.7-.933-.716h-.8c-.283 0-.717.1-1.1.516-.367.417-1.433 1.417-1.433 3.45 0 2.034 1.483 4 1.683 4.267.2.283 2.917 4.45 7.05 6.233.983.434 1.75.684 2.35.867.983.317 1.883.267 2.6.167.8-.117 2.45-1 2.783-1.967.35-.967.35-1.783.234-1.967-.117-.183-.367-.267-.784-.467z" fill="#fff"/><defs><filter id="filter0_i_315_2500" x="0" y="0" width="70" height="70" filterUnits="userSpaceOnUse" color-interpolation-filters="sRGB"><feFlood flood-opacity="0" result="BackgroundImageFix"/><feBlend in="SourceGraphic" in2="BackgroundImageFix" result="shape"/><feColorMatrix in="SourceAlpha" values="0 0 0 0 0 0 0 0 0 0 0 0 0 0 0 0 0 0 127 0" result="hardAlpha"/><feOffset/><feGaussianBlur stdDeviation="2"/><feComposite in2="hardAlpha" operator="arithmetic" k2="-1" k3="1"/><feColorMatrix values="0 0 0 0 0 0 0 0 0 0 0 0 0 0 0 0 0 0 0.07 0"/><feBlend in2="shape" result="effect1_innerShadow_315_2500"/></filter></defs></svg>